<svg width="55" height="138" viewBox="0 0 55 138" fill="none" xmlns="http://www.w3.org/2000/svg">
<path d="M4.70016 29.8447C7.5472 27.0113 10.92 25.5436 14.8569 25.5436V25.5559H39.8474C43.944 25.5559 47.2825 27.0113 50.0688 29.857C52.926 32.8066 54.3091 36.2638 54.3091 40.0899V75.5546C54.3091 76.8857 53.8056 78.0863 53.0109 79.0587C52.1313 80.0188 50.9585 80.453 49.4096 80.453C48.0892 80.453 46.876 80.0188 45.8286 79.0587C44.949 78.0863 44.5304 76.8837 44.5304 75.5546V43.8406H41.8714V131.644C41.8714 133.336 41.3053 134.898 40.0698 136.1C38.7514 137.431 37.2834 138 35.6092 138C33.6397 138 32.0281 137.429 30.7825 136.1C29.5451 134.898 28.8859 133.334 28.8859 131.644V80.7465H26.0388V131.644C26.0388 133.336 25.4403 134.898 24.1219 136.1C22.8763 137.431 21.3477 138 19.4429 138C17.6837 138 16.1551 137.429 14.8468 136.1C13.4536 134.898 12.7216 133.334 12.7216 131.644V43.8406H10.1779V75.5546C10.1779 76.8857 9.74719 78.0863 8.93028 79.0587C7.98801 80.0188 6.81522 80.453 5.28656 80.453C3.95807 80.453 2.78528 80.0188 1.843 79.0587C0.825912 78.0863 0.375 76.8837 0.375 75.5546V40.0879C0.375 36.2515 1.84301 32.8066 4.70016 29.8447Z" fill="#909DAD"/>
<path d="M35.3787 19.4813C33.1989 21.6074 30.4893 22.6266 27.4199 22.6266C24.2068 22.6266 21.4953 21.6074 19.4429 19.4813C17.2652 17.3043 16.24 14.6033 16.24 11.3419C16.24 8.23935 17.2652 5.5792 19.4429 3.3838C21.4832 1.12522 24.1947 0 27.4199 0C30.4792 0 33.1807 1.12522 35.3685 3.3838C37.5463 5.5792 38.6665 8.23935 38.6665 11.3419C38.6665 14.5952 37.5564 17.2961 35.3787 19.4813Z" fill="#909DAD"/>
</svg>
