<svg width="133" height="133" viewBox="0 0 133 133" fill="none" xmlns="http://www.w3.org/2000/svg">
<g filter="url(#filter0_d_635_4083)">
<path d="M66.0813 122.708C98.7558 122.708 125.244 96.2204 125.244 63.5459C125.244 30.8715 98.7558 4.38354 66.0813 4.38354C33.4069 4.38354 6.91895 30.8715 6.91895 63.5459C6.91895 96.2204 33.4069 122.708 66.0813 122.708Z" stroke="url(#paint0_angular_635_4083)" stroke-width="4" stroke-miterlimit="10"/>
<path d="M66.1184 112.444C93.3472 112.444 115.42 90.3706 115.42 63.1418C115.42 35.9131 93.3472 13.8398 66.1184 13.8398C38.8897 13.8398 16.8164 35.9131 16.8164 63.1418C16.8164 90.3706 38.8897 112.444 66.1184 112.444Z" stroke="url(#paint1_angular_635_4083)" stroke-width="4" stroke-miterlimit="10"/>
<path d="M66.4416 102.883C88.2246 102.883 105.883 85.2246 105.883 63.4416C105.883 41.6586 88.2246 24 66.4416 24C44.6586 24 27 41.6586 27 63.4416C27 85.2246 44.6586 102.883 66.4416 102.883Z" stroke="url(#paint2_angular_635_4083)" stroke-width="4" stroke-miterlimit="10"/>
<path d="M66.0812 93.1624C82.4184 93.1624 95.6624 79.9184 95.6624 63.5812C95.6624 47.244 82.4184 34 66.0812 34C49.744 34 36.5 47.244 36.5 63.5812C36.5 79.9184 49.744 93.1624 66.0812 93.1624Z" stroke="url(#paint3_angular_635_4083)" stroke-width="4" stroke-miterlimit="10" stroke-linecap="round" stroke-linejoin="round"/>
</g>
<defs>
<filter id="filter0_d_635_4083" x="-1.5" y="0" width="137" height="133" filterUnits="userSpaceOnUse" color-interpolation-filters="sRGB">
<feFlood flood-opacity="0" result="BackgroundImageFix"/>
<feColorMatrix in="SourceAlpha" type="matrix" values="0 0 0 0 0 0 0 0 0 0 0 0 0 0 0 0 0 0 127 0" result="hardAlpha"/>
<feOffset dy="4"/>
<feGaussianBlur stdDeviation="2"/>
<feComposite in2="hardAlpha" operator="out"/>
<feColorMatrix type="matrix" values="0 0 0 0 0 0 0 0 0 0 0 0 0 0 0 0 0 0 0.25 0"/>
<feBlend mode="normal" in2="BackgroundImageFix" result="effect1_dropShadow_635_4083"/>
<feBlend mode="normal" in="SourceGraphic" in2="effect1_dropShadow_635_4083" result="shape"/>
</filter>
<radialGradient id="paint0_angular_635_4083" cx="0" cy="0" r="1" gradientUnits="userSpaceOnUse" gradientTransform="translate(66.0813 63.5459) rotate(-90.1497) scale(62.1626)">
<stop stop-color="#FF2D2D"/>
<stop offset="0.296775" stop-color="#FF2D2D"/>
<stop offset="0.296875" stop-color="#442A2A"/>
<stop offset="1" stop-color="#442A2A"/>
</radialGradient>
<radialGradient id="paint1_angular_635_4083" cx="0" cy="0" r="1" gradientUnits="userSpaceOnUse" gradientTransform="translate(66.1184 63.1418) rotate(-90.1497) scale(51.8022 51.8022)">
<stop stop-color="#FF5959"/>
<stop offset="0.21865" stop-color="#FF5959"/>
<stop offset="0.21875" stop-color="#442A2A"/>
<stop offset="1" stop-color="#442A2A"/>
</radialGradient>
<radialGradient id="paint2_angular_635_4083" cx="0" cy="0" r="1" gradientUnits="userSpaceOnUse" gradientTransform="translate(66.4416 63.4416) rotate(-90.1497) scale(41.4417 41.4417)">
<stop stop-color="#FF8282"/>
<stop offset="0.166667" stop-color="#FF8282"/>
<stop offset="0.166767" stop-color="#442A2A"/>
<stop offset="1" stop-color="#442A2A"/>
</radialGradient>
<radialGradient id="paint3_angular_635_4083" cx="0" cy="0" r="1" gradientUnits="userSpaceOnUse" gradientTransform="translate(66.0812 63.5812) rotate(-90.1497) scale(31.0813 31.0813)">
<stop stop-color="#FFB1B1"/>
<stop offset="0.114583" stop-color="#FFB1B1"/>
<stop offset="0.114683" stop-color="#442A2A"/>
<stop offset="1" stop-color="#442A2A"/>
</radialGradient>
</defs>
</svg>
