<svg width="130" height="125" viewBox="0 0 130 125" fill="none" xmlns="http://www.w3.org/2000/svg">
<path d="M64.0813 122.708C96.7558 122.708 123.244 96.2204 123.244 63.5459C123.244 30.8715 96.7558 4.38354 64.0813 4.38354C31.4069 4.38354 4.91895 30.8715 4.91895 63.5459C4.91895 96.2204 31.4069 122.708 64.0813 122.708Z" stroke="url(#paint0_angular_635_4110)" stroke-width="4" stroke-miterlimit="10"/>
<path d="M64.1184 112.444C91.3472 112.444 113.42 90.3706 113.42 63.1418C113.42 35.9131 91.3472 13.8398 64.1184 13.8398C36.8897 13.8398 14.8164 35.9131 14.8164 63.1418C14.8164 90.3706 36.8897 112.444 64.1184 112.444Z" stroke="url(#paint1_angular_635_4110)" stroke-width="4" stroke-miterlimit="10"/>
<path d="M64.4416 102.883C86.2246 102.883 103.883 85.2246 103.883 63.4416C103.883 41.6586 86.2246 24 64.4416 24C42.6586 24 25 41.6586 25 63.4416C25 85.2246 42.6586 102.883 64.4416 102.883Z" stroke="url(#paint2_angular_635_4110)" stroke-width="4" stroke-miterlimit="10"/>
<path d="M64.0812 93.1624C80.4184 93.1624 93.6624 79.9184 93.6624 63.5812C93.6624 47.244 80.4184 34 64.0812 34C47.744 34 34.5 47.244 34.5 63.5812C34.5 79.9184 47.744 93.1624 64.0812 93.1624Z" stroke="url(#paint3_angular_635_4110)" stroke-width="4" stroke-miterlimit="10" stroke-linecap="round" stroke-linejoin="round"/>
<defs>
<radialGradient id="paint0_angular_635_4110" cx="0" cy="0" r="1" gradientUnits="userSpaceOnUse" gradientTransform="translate(64.0813 63.5459) rotate(-90.1497) scale(62.1626)">
<stop stop-color="#FF2D2D"/>
<stop offset="0.463442" stop-color="#FF2D2D"/>
<stop offset="0.463542" stop-color="#442A2A"/>
<stop offset="1" stop-color="#442A2A"/>
</radialGradient>
<radialGradient id="paint1_angular_635_4110" cx="0" cy="0" r="1" gradientUnits="userSpaceOnUse" gradientTransform="translate(64.1184 63.1418) rotate(-90.1497) scale(51.8022 51.8022)">
<stop stop-color="#FF5959"/>
<stop offset="0.390525" stop-color="#FF5959"/>
<stop offset="0.390625" stop-color="#442A2A"/>
<stop offset="1" stop-color="#442A2A"/>
</radialGradient>
<radialGradient id="paint2_angular_635_4110" cx="0" cy="0" r="1" gradientUnits="userSpaceOnUse" gradientTransform="translate(64.4416 63.4416) rotate(-90.1497) scale(41.4417 41.4417)">
<stop stop-color="#FF8282"/>
<stop offset="0.0833333" stop-color="#FF8282"/>
<stop offset="0.0834333" stop-color="#442A2A"/>
<stop offset="1" stop-color="#442A2A"/>
</radialGradient>
<radialGradient id="paint3_angular_635_4110" cx="0" cy="0" r="1" gradientUnits="userSpaceOnUse" gradientTransform="translate(64.0812 63.5812) rotate(-90.1497) scale(31.0813 31.0813)">
<stop stop-color="#FFB1B1"/>
<stop offset="0.0625" stop-color="#FFB1B1"/>
<stop offset="0.0626" stop-color="#442A2A"/>
<stop offset="1" stop-color="#442A2A"/>
</radialGradient>
</defs>
</svg>
