<svg width="40" height="32" viewBox="0 0 40 32" fill="none" xmlns="http://www.w3.org/2000/svg">
<rect width="40" height="32" rx="5" fill="#8E1F83"/>
<path d="M25.75 10C25.2 10 24.7292 9.80417 24.3375 9.4125C23.9458 9.02083 23.75 8.55 23.75 8C23.75 7.45 23.9458 6.97917 24.3375 6.5875C24.7292 6.19583 25.2 6 25.75 6C26.3 6 26.7708 6.19583 27.1625 6.5875C27.5542 6.97917 27.75 7.45 27.75 8C27.75 8.55 27.5542 9.02083 27.1625 9.4125C26.7708 9.80417 26.3 10 25.75 10ZM24.75 26V18C24.75 17.3333 24.5792 16.7333 24.2375 16.2C23.8958 15.6667 23.4583 15.25 22.925 14.95L23.8 12.375C23.9333 11.9583 24.1792 11.625 24.5375 11.375C24.8958 11.125 25.3 11 25.75 11C26.2 11 26.6042 11.125 26.9625 11.375C27.3208 11.625 27.5667 11.9583 27.7 12.375L30.25 20H27.75V26H24.75ZM20.25 15.5C19.8333 15.5 19.4792 15.3542 19.1875 15.0625C18.8958 14.7708 18.75 14.4167 18.75 14C18.75 13.5833 18.8958 13.2292 19.1875 12.9375C19.4792 12.6458 19.8333 12.5 20.25 12.5C20.6667 12.5 21.0208 12.6458 21.3125 12.9375C21.6042 13.2292 21.75 13.5833 21.75 14C21.75 14.4167 21.6042 14.7708 21.3125 15.0625C21.0208 15.3542 20.6667 15.5 20.25 15.5ZM13.25 10C12.7 10 12.2292 9.80417 11.8375 9.4125C11.4458 9.02083 11.25 8.55 11.25 8C11.25 7.45 11.4458 6.97917 11.8375 6.5875C12.2292 6.19583 12.7 6 13.25 6C13.8 6 14.2708 6.19583 14.6625 6.5875C15.0542 6.97917 15.25 7.45 15.25 8C15.25 8.55 15.0542 9.02083 14.6625 9.4125C14.2708 9.80417 13.8 10 13.25 10ZM11.25 26V19H9.75V13C9.75 12.45 9.94583 11.9792 10.3375 11.5875C10.7292 11.1958 11.2 11 11.75 11H14.75C15.3 11 15.7708 11.1958 16.1625 11.5875C16.5542 11.9792 16.75 12.45 16.75 13V19H15.25V26H11.25ZM18.75 26V22H17.75V18C17.75 17.5833 17.8958 17.2292 18.1875 16.9375C18.4792 16.6458 18.8333 16.5 19.25 16.5H21.25C21.6667 16.5 22.0208 16.6458 22.3125 16.9375C22.6042 17.2292 22.75 17.5833 22.75 18V22H21.75V26H18.75Z" fill="white"/>
</svg>
