<svg width="32" height="32" viewBox="0 0 32 32" fill="none" xmlns="http://www.w3.org/2000/svg">
<mask id="mask0_635_3793" style="mask-type:alpha" maskUnits="userSpaceOnUse" x="0" y="0" width="32" height="32">
<rect width="32" height="32" fill="#D9D9D9"/>
</mask>
<g mask="url(#mask0_635_3793)">
<path d="M3.16409 23.1436L2.56152 22.0948C3.01108 21.8504 3.43587 21.5713 3.83589 21.2577C4.23589 20.944 4.62735 20.6205 5.01026 20.2871V16.1461H2.75126V15.0897H6.08206V20.1615C6.56068 20.7513 7.15042 21.1949 7.85129 21.4923C8.55213 21.7897 9.28376 21.9384 10.0462 21.9384C11.2393 21.9384 12.4226 21.9359 13.5962 21.9307C14.7696 21.9256 15.953 21.8812 17.1462 21.7974C17.0692 21.9906 17.0034 22.1863 16.9487 22.3846C16.894 22.5829 16.8419 22.7812 16.7923 22.9795C15.6538 23.0239 14.5295 23.035 13.4192 23.0128C12.309 22.9906 11.1846 22.9795 10.0462 22.9795C9.20171 22.9795 8.37949 22.8222 7.57949 22.5077C6.77949 22.1931 6.0906 21.7248 5.51282 21.1025C5.13505 21.4803 4.7547 21.8372 4.37179 22.173C3.98888 22.509 3.58629 22.8325 3.16409 23.1436ZM11.2513 21.3128L11.0462 17.8307C10.5231 18.4923 9.97606 19.0547 9.40512 19.5179C8.83419 19.9812 8.19829 20.4179 7.49742 20.8282C7.37607 20.6966 7.25769 20.5577 7.14229 20.4115C7.02691 20.2654 6.90341 20.129 6.77179 20.0025C7.54957 19.6863 8.23632 19.2854 8.83206 18.8C9.42777 18.3145 9.98972 17.7325 10.5179 17.0538H7.51282V13.1641H11.0795V11.882H6.84616V10.8487H11.0795V9.29998H12.1359V10.8487H16.6692V11.882H12.1359V13.1641H15.9026V17.0205H12.6385C13.2111 17.682 13.8692 18.2487 14.6128 18.7205C15.3564 19.1923 16.1171 19.5863 16.8949 19.9025C16.741 20.029 16.5996 20.1611 16.4705 20.2987C16.3414 20.4363 16.2299 20.5931 16.1359 20.7692C15.4077 20.4256 14.6996 20.0183 14.0115 19.5474C13.3235 19.0765 12.6983 18.5325 12.1359 17.9154L12.341 21.3128H11.2513ZM11.0462 14.182H8.57692V16.0102H11.0462V14.182ZM14.8462 14.182H12.1026V16.0102H14.8462V14.182ZM5.63076 12.4102C5.27007 11.9179 4.86965 11.4654 4.42949 11.0525C3.98931 10.6397 3.50341 10.2752 2.97179 9.95894L3.77179 9.27434C4.28119 9.61792 4.74913 9.99741 5.17562 10.4128C5.60213 10.8282 6.03419 11.2547 6.47179 11.6923L5.63076 12.4102ZM26.8333 19.8153V15.3589C26.2197 15.4598 25.6577 15.5761 25.1474 15.7077C24.6372 15.8393 24.1162 15.9863 23.5846 16.1487C22.4308 16.5282 21.5739 17.0068 21.0141 17.5846C20.4543 18.1624 20.1744 18.8222 20.1744 19.5641C20.1744 20.2957 20.4 20.8752 20.8513 21.3025C21.3026 21.7299 21.9043 21.9435 22.6564 21.9435C23.3641 21.9435 24.0808 21.7564 24.8064 21.382C25.532 21.0077 26.2077 20.4854 26.8333 19.8153ZM27.0359 22.8333L26.8872 21.1025C26.2137 21.7436 25.4919 22.2423 24.7218 22.5987C23.9517 22.9551 23.2043 23.1333 22.4795 23.1333C21.3838 23.1333 20.5034 22.8064 19.8385 22.1525C19.1735 21.4987 18.841 20.635 18.841 19.5615C18.841 18.5427 19.1991 17.6752 19.9154 16.9589C20.6316 16.2427 21.7239 15.6453 23.1923 15.1666C23.6008 15.0333 24.1064 14.9025 24.709 14.7743C25.3115 14.6461 26.0197 14.5034 26.8333 14.3461V14.0128C26.8231 12.7632 26.5914 11.8226 26.1385 11.191C25.6855 10.5594 24.9239 10.2436 23.8538 10.2436C23.2419 10.2436 22.6355 10.3491 22.0346 10.5602C21.4338 10.7714 20.8 11.1008 20.1333 11.5487L19.5538 10.5282C20.2359 10.0581 20.956 9.69355 21.7141 9.43458C22.4722 9.17562 23.2342 9.04614 24 9.04614C25.4068 9.04614 26.453 9.48802 27.1385 10.3718C27.8239 11.2555 28.1667 12.5025 28.1667 14.1128V22.8333H27.0359Z" fill="#AF48A5"/>
</g>
</svg>
