<svg width="32" height="32" viewBox="0 0 32 32" fill="none" xmlns="http://www.w3.org/2000/svg">
<mask id="mask0_635_3786" style="mask-type:alpha" maskUnits="userSpaceOnUse" x="0" y="0" width="32" height="32">
<rect width="32" height="32" fill="#D9D9D9"/>
</mask>
<g mask="url(#mask0_635_3786)">
<path d="M16 18.359L17.5538 14.8872L21.0257 13.3333L17.5538 11.7795L16 8.30767L14.4462 11.7795L10.9743 13.3333L14.4462 14.8872L16 18.359ZM4 26.7692V6.15383C4 5.54017 4.20556 5.02778 4.61667 4.61667C5.02778 4.20556 5.54017 4 6.15383 4H25.8462C26.4598 4 26.9722 4.20556 27.3833 4.61667C27.7944 5.02778 28 5.54017 28 6.15383V20.5128C28 21.1265 27.7944 21.6389 27.3833 22.05C26.9722 22.4611 26.4598 22.6667 25.8462 22.6667H8.10257L4 26.7692ZM5.33333 23.541L7.54103 21.3333H25.8462C26.0855 21.3333 26.2821 21.2564 26.4359 21.1026C26.5897 20.9487 26.6667 20.7521 26.6667 20.5128V6.15383C26.6667 5.91452 26.5897 5.71794 26.4359 5.5641C26.2821 5.41026 26.0855 5.33333 25.8462 5.33333H6.15383C5.91452 5.33333 5.71794 5.41026 5.5641 5.5641C5.41026 5.71794 5.33333 5.91452 5.33333 6.15383V23.541ZM5.33333 6.15383V5.33333V23.541V6.15383Z" fill="#AF48A5"/>
</g>
</svg>
