<svg width="32" height="32" viewBox="0 0 32 32" fill="none" xmlns="http://www.w3.org/2000/svg">
<mask id="mask0_635_3772" style="mask-type:alpha" maskUnits="userSpaceOnUse" x="0" y="0" width="32" height="32">
<rect width="32" height="32" fill="#D9D9D9"/>
</mask>
<g mask="url(#mask0_635_3772)">
<path d="M16 28C14.3436 28 12.7855 27.6842 11.3256 27.0526C9.86581 26.4209 8.59572 25.565 7.51537 24.4846C6.43503 23.4043 5.57906 22.1342 4.94743 20.6744C4.31581 19.2145 4 17.6564 4 16C4 14.3436 4.31581 12.7855 4.94743 11.3256C5.57906 9.86581 6.43503 8.59572 7.51537 7.51537C8.59572 6.43503 9.86581 5.57906 11.3256 4.94743C12.7855 4.31581 14.3436 4 16 4C19.1077 4 21.7885 5.02521 24.0423 7.07563C26.2961 9.12606 27.5863 11.659 27.9128 14.6744H26.5641C26.3299 12.7444 25.6329 11.0124 24.4731 9.4782C23.3132 7.94402 21.8222 6.81198 20 6.08207V6.66667C20 7.4 19.7389 8.02778 19.2167 8.55C18.6944 9.07222 18.0667 9.33333 17.3333 9.33333H14.6667V12C14.6667 12.3778 14.5389 12.6944 14.2833 12.95C14.0278 13.2056 13.7111 13.3333 13.3333 13.3333H10.6667V16H13.1282V20H12L5.6 13.6C5.53333 14 5.47222 14.4 5.41667 14.8C5.36111 15.2 5.33333 15.6 5.33333 16C5.33333 18.9111 6.35556 21.4111 8.4 23.5C10.4444 25.5889 12.9778 26.6444 16 26.6667V28ZM28.0308 27.641L23.4308 23.0923C23.0325 23.3761 22.6009 23.5983 22.1359 23.759C21.6709 23.9197 21.1812 24 20.6667 24C19.359 24 18.2543 23.5491 17.3526 22.6474C16.4509 21.7457 16 20.641 16 19.3333C16 18.0256 16.4509 16.9209 17.3526 16.0192C18.2543 15.1175 19.359 14.6667 20.6667 14.6667C21.9744 14.6667 23.0791 15.1175 23.9808 16.0192C24.8825 16.9209 25.3333 18.0256 25.3333 19.3333C25.3333 19.865 25.2487 20.3675 25.0795 20.841C24.9103 21.3145 24.6752 21.7504 24.3744 22.1487L28.9744 26.6974L28.0308 27.641ZM20.6667 22.6667C21.6 22.6667 22.3889 22.3444 23.0333 21.7C23.6778 21.0556 24 20.2667 24 19.3333C24 18.4 23.6778 17.6111 23.0333 16.9667C22.3889 16.3222 21.6 16 20.6667 16C19.7333 16 18.9444 16.3222 18.3 16.9667C17.6556 17.6111 17.3333 18.4 17.3333 19.3333C17.3333 20.2667 17.6556 21.0556 18.3 21.7C18.9444 22.3444 19.7333 22.6667 20.6667 22.6667Z" fill="#AF48A5"/>
</g>
</svg>
