<svg width="24" height="24" viewBox="0 0 24 24" fill="none" xmlns="http://www.w3.org/2000/svg">
<path d="M4.7 20.15C4.23333 20.15 3.83333 19.9833 3.5 19.65C3.16667 19.3167 3 18.9167 3 18.45V5.2C3 4.73333 3.16667 4.33333 3.5 4C3.83333 3.66667 4.24167 3.5 4.725 3.5H13.8V4.9H4.725C4.625 4.9 4.54567 4.929 4.487 4.987C4.429 5.04567 4.4 5.125 4.4 5.225V18.425C4.4 18.525 4.429 18.604 4.487 18.662C4.54567 18.7207 4.625 18.75 4.725 18.75H17.925C18.025 18.75 18.104 18.7207 18.162 18.662C18.2207 18.604 18.25 18.525 18.25 18.425V9.35H19.65V18.425C19.65 18.9083 19.4833 19.3167 19.15 19.65C18.8167 19.9833 18.4167 20.15 17.95 20.15H4.7ZM6.8 16.475H8.2V10.125H6.8V16.475ZM10.625 16.475H12.025V7.175H10.625V16.475ZM14.45 16.475H15.85V13.1H14.45V16.475ZM16.775 8.375V6.375H14.775V4.975H16.775V3H18.175V4.975H20.15V6.375H18.175V8.375H16.775Z" fill="#D6DFF0"/>
</svg>
