<svg width="25" height="25" viewBox="0 0 25 25" fill="none" xmlns="http://www.w3.org/2000/svg">
<path d="M12.325 14.225C12.875 14.225 13.3417 14.0333 13.725 13.65C14.1083 13.2667 14.3 12.8 14.3 12.25C14.3 11.7 14.1083 11.2333 13.725 10.85C13.3417 10.4667 12.875 10.275 12.325 10.275C11.775 10.275 11.3083 10.4667 10.925 10.85C10.5417 11.2333 10.35 11.7 10.35 12.25C10.35 12.8 10.5417 13.2667 10.925 13.65C11.3083 14.0333 11.775 14.225 12.325 14.225ZM12.325 21.525C10.2083 20.9417 8.45833 19.6917 7.075 17.775C5.69167 15.8583 5 13.7167 5 11.35V5.75L12.325 3L19.65 5.725V11.35C19.65 12.3667 19.5127 13.3457 19.238 14.287C18.9627 15.229 18.575 16.125 18.075 16.975L15.175 14.075C15.3417 13.7917 15.471 13.496 15.563 13.188C15.6543 12.8793 15.7 12.5667 15.7 12.25C15.7 11.3167 15.3707 10.521 14.712 9.863C14.054 9.20433 13.2583 8.875 12.325 8.875C11.3917 8.875 10.596 9.20433 9.938 9.863C9.27933 10.521 8.95 11.3167 8.95 12.25C8.95 13.1833 9.27933 13.979 9.938 14.637C10.596 15.2957 11.3917 15.625 12.325 15.625C12.6583 15.625 12.9833 15.5793 13.3 15.488C13.6167 15.396 13.9083 15.25 14.175 15.05L17.275 18.15C16.6083 18.9667 15.8667 19.6627 15.05 20.238C14.2333 20.8127 13.325 21.2417 12.325 21.525Z" fill="#D6DFF0"/>
</svg>
