<svg width="24" height="24" viewBox="0 0 24 24" fill="none" xmlns="http://www.w3.org/2000/svg">
<path d="M7 16C7.28333 16 7.521 15.904 7.713 15.712C7.90433 15.5207 8 15.2833 8 15C8 14.7167 7.90433 14.479 7.713 14.287C7.521 14.0957 7.28333 14 7 14C6.71667 14 6.479 14.0957 6.287 14.287C6.09567 14.479 6 14.7167 6 15C6 15.2833 6.09567 15.5207 6.287 15.712C6.479 15.904 6.71667 16 7 16ZM6 13H8V8H6V13ZM10 15H18V13H10V15ZM10 11H18V9H10V11ZM4 20C3.45 20 2.97933 19.8043 2.588 19.413C2.196 19.021 2 18.55 2 18V6C2 5.45 2.196 4.97933 2.588 4.588C2.97933 4.196 3.45 4 4 4H20C20.55 4 21.021 4.196 21.413 4.588C21.8043 4.97933 22 5.45 22 6V18C22 18.55 21.8043 19.021 21.413 19.413C21.021 19.8043 20.55 20 20 20H4Z" fill="#7AAC47"/>
</svg>
