<svg width="34" height="34" viewBox="0 0 34 34" fill="none" xmlns="http://www.w3.org/2000/svg">
<path d="M28.4154 12.666L21.332 5.58268L23.707 3.20768C24.3459 2.56879 25.1306 2.24935 26.0612 2.24935C26.9918 2.24935 27.7765 2.56879 28.4154 3.20768L30.7904 5.58268C31.4293 6.22157 31.7487 7.00629 31.7487 7.93685C31.7487 8.8674 31.4293 9.65213 30.7904 10.291L28.4154 12.666ZM1.9987 31.9993V24.916L9.4987 17.416L0.707031 8.54102L8.58203 0.666016L17.4154 9.54102L21.332 5.58268L28.4154 12.666L24.4987 16.5827L33.2904 25.4577L25.457 33.291L16.582 24.4577L9.08203 31.9993H1.9987ZM11.8737 15.041L15.0404 11.8743L13.0404 9.87435L11.0404 11.8327L8.70703 9.49935L10.6654 7.49935L8.54037 5.41602L5.41537 8.58268L11.8737 15.041ZM25.4154 28.5827L28.582 25.416L26.457 23.3327L24.4987 25.291L22.1237 22.9577L24.1237 20.9577L22.082 18.9577L18.9154 22.1243L25.4154 28.5827ZM5.33203 28.666H7.66537L23.707 12.666L21.332 10.291L5.33203 26.3327V28.666Z" fill="#1282D6"/>
</svg>
