<svg width="153" height="31" viewBox="0 0 153 31" fill="none" xmlns="http://www.w3.org/2000/svg">
<path d="M152.34 23.5278V28.9502H123.618V2.21306H134.056V23.5238L152.34 23.5278ZM65.5024 0.662109L40.0516 12.2923C37.4387 6.47916 28.9485 2.21306 18.5102 2.21306H0.226562V28.9502H18.5102C28.9485 28.9502 38.0903 24.688 40.0516 18.8749L65.5024 30.5011L90.9665 18.8749V28.9502H119.688V23.5238H100.773V2.21306H90.315V12.2844L66.1606 23.9185L60.9415 21.2033L72.6962 15.777L85.1025 9.96386L77.922 6.4831L53.7677 17.7107L48.5485 14.9995L72.6962 4.14681L65.5157 0.662109L65.5024 0.662109ZM10.0133 7.63941H17.8453C19.4742 7.63941 21.0765 7.85646 22.5459 8.25505C24.0152 8.65364 25.3649 9.24166 26.5084 9.96386C27.652 10.694 28.5828 11.5582 29.2344 12.5409C29.8859 13.5196 30.2449 14.6167 30.2449 15.777C30.2449 16.8425 29.9258 17.8804 29.3274 18.8433C28.7224 19.8063 27.8448 20.6903 26.7345 21.444C25.6375 22.1939 24.3211 22.8095 22.8185 23.2397C21.3225 23.6698 19.6404 23.9106 17.8453 23.9106H10.0133V7.63941Z" fill="#A3ADBB"/>
</svg>
