<svg width="20" height="20" viewBox="0 0 20 20" fill="none" xmlns="http://www.w3.org/2000/svg">
<circle cx="10" cy="10" r="10" fill="#151A20"/>
<mask id="mask0_635_541" style="mask-type:alpha" maskUnits="userSpaceOnUse" x="4" y="4" width="12" height="12">
<rect x="4" y="4" width="12" height="12" fill="#D9D9D9"/>
</mask>
<g mask="url(#mask0_635_541)">
<path d="M7.27273 9.54545C6.64394 9.54545 6.10795 9.32386 5.66477 8.88068C5.22159 8.4375 5 7.90152 5 7.27273C5 6.63636 5.22159 6.09848 5.66477 5.65909C6.10795 5.2197 6.64394 5 7.27273 5C7.90909 5 8.44697 5.2197 8.88636 5.65909C9.32576 6.09848 9.54545 6.63636 9.54545 7.27273C9.54545 7.90152 9.32576 8.4375 8.88636 8.88068C8.44697 9.32386 7.90909 9.54545 7.27273 9.54545ZM7.27273 8.63636C7.65909 8.63636 7.98295 8.50379 8.24432 8.23864C8.50568 7.97348 8.63636 7.65152 8.63636 7.27273C8.63636 6.88636 8.50568 6.5625 8.24432 6.30114C7.98295 6.03977 7.65909 5.90909 7.27273 5.90909C6.89394 5.90909 6.57197 6.03977 6.30682 6.30114C6.04167 6.5625 5.90909 6.88636 5.90909 7.27273C5.90909 7.65152 6.04167 7.97348 6.30682 8.23864C6.57197 8.50379 6.89394 8.63636 7.27273 8.63636ZM11.8182 15C11.5682 15 11.3542 14.911 11.1761 14.733C10.9981 14.5549 10.9091 14.3409 10.9091 14.0909V11.8182C10.9091 11.5682 10.9981 11.3542 11.1761 11.1761C11.3542 10.9981 11.5682 10.9091 11.8182 10.9091H14.0909C14.3409 10.9091 14.5549 10.9981 14.733 11.1761C14.911 11.3542 15 11.5682 15 11.8182V14.0909C15 14.3409 14.911 14.5549 14.733 14.733C14.5549 14.911 14.3409 15 14.0909 15H11.8182ZM11.8182 14.0909H14.0909V11.8182H11.8182V14.0909ZM12.6023 8.04545L8.04545 12.5909C8.08333 12.6818 8.11553 12.7765 8.14205 12.875C8.16856 12.9735 8.18182 13.0758 8.18182 13.1818C8.18182 13.5606 8.05114 13.8826 7.78977 14.1477C7.52841 14.4129 7.20455 14.5455 6.81818 14.5455C6.43939 14.5455 6.11742 14.4129 5.85227 14.1477C5.58712 13.8826 5.45455 13.5606 5.45455 13.1818C5.45455 12.7955 5.58712 12.4716 5.85227 12.2102C6.11742 11.9489 6.43939 11.8182 6.81818 11.8182C6.92424 11.8182 7.02652 11.8314 7.125 11.858C7.22348 11.8845 7.31818 11.9167 7.40909 11.9545L11.9545 7.39773C11.9167 7.30682 11.8845 7.21402 11.858 7.11932C11.8314 7.02462 11.8182 6.92424 11.8182 6.81818C11.8182 6.43182 11.9508 6.10795 12.2159 5.84659C12.4811 5.58523 12.803 5.45455 13.1818 5.45455C13.5682 5.45455 13.892 5.58523 14.1534 5.84659C14.4148 6.10795 14.5455 6.43182 14.5455 6.81818C14.5455 7.19697 14.4148 7.51894 14.1534 7.78409C13.892 8.04924 13.5682 8.18182 13.1818 8.18182C13.0758 8.18182 12.9754 8.16856 12.8807 8.14205C12.786 8.11553 12.6932 8.08333 12.6023 8.04545Z" fill="#B2BBC6"/>
</g>
</svg>
