<svg width="153" height="27" viewBox="0 0 153 27" fill="none" xmlns="http://www.w3.org/2000/svg">
<path fill-rule="evenodd" clip-rule="evenodd" d="M6.74242 26.2027H0.452148L5.37901 0.527344H11.6383L6.74242 26.2027ZM38.9375 26.2027H32.6782L37.605 0.527344H43.8643L38.9375 26.2027ZM64.9042 26.2027H71.1635L76.0904 0.527344H69.8311L64.9042 26.2027ZM33.143 9.33161H26.8527C26.9766 6.90285 26.078 5.68848 24.2188 5.68848C21.1512 5.68848 18.8582 8.50756 17.8976 13.5819C16.968 18.4828 18.1455 21.1718 21.1822 21.1718C23.3822 21.1718 25.0555 19.6538 25.9231 16.748H32.2134C30.5091 23.3403 26.4809 26.2895 19.7258 26.2895C13.0017 26.2895 10.12 21.6055 11.5763 13.9289C13.1876 5.42826 18.0215 0.57074 25.1484 0.57074C31.3148 0.57074 33.9796 3.56332 33.143 9.33161ZM59.0787 9.33161H65.369C66.2056 3.56332 63.5408 0.57074 57.3745 0.57074C50.2476 0.57074 45.4137 5.42826 43.8024 13.9289C42.346 21.6055 45.2277 26.2895 51.9518 26.2895C58.7069 26.2895 62.7351 23.3403 64.4394 16.748H58.1491C57.2815 19.6538 55.6082 21.1718 53.4082 21.1718C50.3715 21.1718 49.194 18.4828 50.1236 13.5819C51.0842 8.50756 53.3772 5.68848 56.4449 5.68848C58.3041 5.68848 59.2027 6.90285 59.0787 9.33161ZM85.5102 22.1693L86.9356 14.6662H91.0568C94.2174 14.6662 95.6118 15.4469 95.0541 18.4828C94.5273 21.2585 92.978 22.1693 90.1272 22.1693H85.5102ZM88.8878 4.51747H92.7921C95.7358 4.51747 97.0682 4.99455 96.6034 7.59678C96.1076 10.1556 94.5273 10.8062 91.4906 10.8062H87.6793L88.8878 4.51747ZM80.7693 26.2461H90.1892C92.854 26.2461 94.8682 25.9425 96.7583 24.121C98.0288 22.9066 98.9894 21.0417 99.3612 19.0032C100.043 15.4902 98.8964 13.1048 96.0147 12.541C98.7415 11.8471 100.446 9.85206 101.003 6.81612C101.468 4.4741 101.096 2.78264 99.888 1.655C98.8964 0.744222 97.2541 0.57074 95.0541 0.57074H85.6961L80.7693 26.2461ZM111.198 18.0057L111.136 18.3093C110.516 21.6489 108.595 23.6439 106.24 23.6439C104.536 23.6439 103.823 22.7331 104.133 20.9983C104.598 18.6563 106.054 18.0057 108.781 18.0057H111.198ZM109.711 26.2462H113.491C113.584 25.0318 113.801 23.7307 114.08 22.2561L115.443 15.0999C116.342 10.3725 114.669 7.94376 110.423 7.94376C106.333 7.94376 103.637 9.93881 102.832 13.2783H106.457C106.922 11.5869 107.976 10.8062 109.711 10.8062C111.663 10.8062 112.345 12.0206 111.849 14.6228L111.787 14.9264H109.804C104.195 14.9264 101.159 16.3577 100.291 20.8682C99.6092 24.3812 101.189 26.6365 104.536 26.6365C106.705 26.6365 108.595 25.639 110.114 23.7307L109.711 26.2462ZM120.556 26.2462H116.745L119.193 13.6254C119.317 12.9314 119.595 11.1966 119.967 8.37752H123.717L123.252 11.5436C124.894 9.11482 126.846 7.98718 129.232 7.98718C132.92 7.98718 134.624 10.6762 133.725 15.3168L131.618 26.2896H127.9L129.697 16.9215C130.41 13.2784 129.635 11.4568 127.404 11.4568C125.142 11.4568 122.973 13.7555 122.322 17.095L120.556 26.2462ZM134.965 26.2461H138.652L140.511 16.5745L145.5 26.2461H150.582L144.943 16.0107L152.565 8.33409H147.793L140.697 15.577L143.579 0.57074H139.892L134.965 26.2461Z" fill="#A3ADBB"/>
</svg>
