<svg width="20" height="20" viewBox="0 0 20 20" fill="none" xmlns="http://www.w3.org/2000/svg">
<circle cx="10" cy="10" r="10" fill="#151A20"/>
<mask id="mask0_635_489" style="mask-type:alpha" maskUnits="userSpaceOnUse" x="4" y="4" width="12" height="12">
<rect x="4" y="4" width="12" height="12" fill="#D9D9D9"/>
</mask>
<g mask="url(#mask0_635_489)">
<path d="M13.4248 8.7001L11.2998 6.5751L12.0123 5.8626C12.204 5.67093 12.4394 5.5751 12.7186 5.5751C12.9977 5.5751 13.2331 5.67093 13.4248 5.8626L14.1373 6.5751C14.329 6.76676 14.4248 7.00218 14.4248 7.28135C14.4248 7.56051 14.329 7.79593 14.1373 7.9876L13.4248 8.7001ZM5.4998 14.5001V12.3751L7.7498 10.1251L5.1123 7.4626L7.4748 5.1001L10.1248 7.7626L11.2998 6.5751L13.4248 8.7001L12.2498 9.8751L14.8873 12.5376L12.5373 14.8876L9.8748 12.2376L7.6248 14.5001H5.4998ZM8.46231 9.4126L9.4123 8.4626L8.8123 7.8626L8.21231 8.4501L7.5123 7.7501L8.0998 7.1501L7.4623 6.5251L6.5248 7.4751L8.46231 9.4126ZM12.5248 13.4751L13.4748 12.5251L12.8373 11.9001L12.2498 12.4876L11.5373 11.7876L12.1373 11.1876L11.5248 10.5876L10.5748 11.5376L12.5248 13.4751ZM6.4998 13.5001H7.1998L12.0123 8.7001L11.2998 7.9876L6.4998 12.8001V13.5001Z" fill="#B2BBC6"/>
</g>
</svg>
