<svg width="153" height="40" viewBox="0 0 153 40" fill="none" xmlns="http://www.w3.org/2000/svg">
<path d="M10.7107 24.6028C9.91301 24.9281 9.03467 25.096 8.14496 25.0932C6.86104 25.0675 5.63876 24.6337 4.73301 23.8822C3.82725 23.1308 3.30799 22.1198 3.28353 21.0601C3.25907 20.0003 3.73136 18.9737 4.60179 18.1943C5.47221 17.415 6.67351 16.9431 7.95531 16.877C9.29534 16.8746 10.5896 17.2795 11.591 18.0144L13.5633 16.1514C12.818 15.5607 11.9335 15.1027 10.9648 14.8058C9.99611 14.5089 8.96387 14.3795 7.93204 14.4256C6.89595 14.4329 5.87181 14.6087 4.91808 14.9429C3.96434 15.277 3.09968 15.763 2.37365 16.3731C1.64762 16.9832 1.07442 17.7054 0.686741 18.4984C0.299067 19.2914 0.104562 20.1397 0.114327 20.9947C0.0973561 21.8505 0.287119 22.7005 0.672505 23.4951C1.05789 24.2897 1.63116 25.0129 2.35892 25.6227C3.08668 26.2324 3.95427 26.7164 4.91114 27.0463C5.86801 27.3763 6.89499 27.5457 7.93204 27.5446C9.97914 27.6193 11.9994 27.1371 13.6821 26.1721V21.0541H10.7117L10.7107 24.6028Z" fill="#A3ADBB"/>
<path d="M28.3169 18.6619C28.3169 16.27 25.9408 14.7007 22.3529 14.7007H16.9355V27.2707H19.9059V22.6424H22.0924L25.2046 27.2707H28.6526L25.1123 22.27C26.0474 22.0356 26.8652 21.5572 27.443 20.9066C28.0208 20.2561 28.3275 19.4685 28.3169 18.6619ZM22.5912 20.4856H19.9059V16.8583H22.5912C24.159 16.8583 25.1812 17.5839 25.1812 18.6628C25.1802 19.76 24.1601 20.4856 22.5912 20.4856Z" fill="#A3ADBB"/>
<path d="M38.106 14.4255C36.5319 14.4157 34.9899 14.7919 33.6751 15.5063C32.3604 16.2208 31.3322 17.2413 30.7211 18.4385C30.11 19.6358 29.9434 20.9558 30.2424 22.2313C30.5414 23.5068 31.2926 24.6803 32.4007 25.603C33.5088 26.5257 34.9239 27.1561 36.4666 27.4143C38.0094 27.6725 39.6102 27.5468 41.0663 27.0532C42.5223 26.5596 43.7682 25.7203 44.6456 24.6417C45.523 23.5631 45.9925 22.2937 45.9948 20.9946C46.0013 20.1354 45.8022 19.2835 45.409 18.4879C45.0157 17.6923 44.4361 16.9686 43.7031 16.3582C42.9702 15.7479 42.0985 15.263 41.1381 14.9314C40.1776 14.5997 39.1472 14.4278 38.106 14.4255ZM38.106 25.0931C37.1103 25.1353 36.1221 24.9301 35.2692 24.5039C34.4163 24.0777 33.7378 23.4502 33.3215 22.7025C32.9051 21.9548 32.7701 21.1213 32.9339 20.3095C33.0976 19.4978 33.5525 18.7453 34.2399 18.1492C34.9272 17.5531 35.8154 17.1408 36.7896 16.9657C37.7638 16.7905 38.7793 16.8605 39.7048 17.1666C40.6303 17.4727 41.4232 18.0009 41.9812 18.6829C42.5392 19.3648 42.8366 20.1692 42.8349 20.9921C42.8651 22.0528 42.3841 23.08 41.4975 23.8482C40.611 24.6165 39.3911 25.063 38.106 25.0898V25.0931Z" fill="#A3ADBB"/>
<path d="M63.1485 24.4268L60.0839 14.7007H56.353L53.3106 24.4268L49.9642 14.7007H46.6855L51.5086 27.2707H55.0965L58.0901 17.7405L61.0838 27.2707H64.7904L69.6134 14.7007H66.5032L63.1485 24.4268Z" fill="#A3ADBB"/>
<path d="M70.54 16.9948H75.0549V27.2698H78.0251V16.9948H82.5633V14.7007H70.54V16.9948Z" fill="#A3ADBB"/>
<path d="M94.9182 19.7014H87.6714V14.7007H84.7012V27.2707H87.6714V21.998H94.9182V27.2707H97.9119V14.7007H94.9182V19.7014Z" fill="#A3ADBB"/>
<path d="M108.306 23.4927C107.27 22.2329 106.566 20.8077 106.24 19.3092C105.913 17.8107 105.971 16.2723 106.41 14.7935C106.55 14.3071 106.729 13.8289 106.946 13.3623C107.104 12.2348 107.418 11.1261 107.883 10.0581C105.879 12.232 104.833 14.9044 104.916 17.6349C104.999 20.3655 106.207 22.9912 108.34 25.0795C108.289 24.5516 108.278 24.0217 108.306 23.4927Z" fill="#A3ADBB"/>
<path d="M144.462 31.0788C142.789 33.6921 139.996 35.6979 136.629 36.7056C136.209 36.8328 135.787 36.9423 135.363 37.0403C134.308 37.596 133.18 38.0507 132 38.3953C133.716 38.3542 135.413 38.0829 137.024 37.5919C139.164 36.9526 141.108 35.9328 142.718 34.6046C144.327 33.2765 145.564 31.6725 146.339 29.9062C145.75 30.3356 145.123 30.7276 144.462 31.0788Z" fill="#A3ADBB"/>
<path d="M139.347 4.45257C140.114 4.70365 140.878 4.96112 141.637 5.22504C143.854 5.9921 145.822 7.17821 147.383 8.68788C148.943 10.1976 150.052 11.9886 150.62 13.9167C150.923 14.9218 151.08 15.9533 151.087 16.9891C151.487 18.2598 151.647 19.5739 151.561 20.885C152.702 17.6502 152.368 14.1823 150.622 11.1371C148.875 8.09184 145.837 5.68016 142.082 4.35796C140.386 3.76541 138.669 3.20745 136.93 2.68408C137.255 2.89081 137.574 3.10758 137.882 3.33774C138.374 3.70432 138.862 4.07594 139.347 4.45257Z" fill="#A3ADBB"/>
<path d="M135.364 37.0368C136.45 36.4665 137.454 35.7959 138.356 35.0382C139.403 34.1577 140.441 33.2594 141.469 32.3433C140.606 32.6501 139.74 32.9511 138.872 33.2463C138.431 33.6268 137.987 34.0041 137.543 34.3779C136.112 35.5932 134.401 36.5594 132.511 37.2195C130.62 37.8796 128.588 38.2202 126.535 38.221C125.23 38.2199 123.93 38.0853 122.665 37.8201C120.664 37.4066 118.781 36.6701 117.127 35.6533C115.853 35.1373 114.669 34.4832 113.606 33.7083C113.119 33.3541 112.659 32.9759 112.228 32.5759C114.494 35.6556 118.146 37.8694 122.385 38.7333C123.744 39.018 125.14 39.1626 126.543 39.1635C129.669 39.1636 132.731 38.4253 135.365 37.0359L135.364 37.0368Z" fill="#A3ADBB"/>
<path d="M106.946 13.3656C106.736 14.8695 106.802 16.3908 107.141 17.8784C107.498 19.451 107.913 21.0588 108.377 22.7C108.427 22.3083 108.497 21.9158 108.591 21.5225C108.692 21.1098 108.793 20.7014 108.895 20.2938C108.669 19.4212 108.459 18.5583 108.265 17.7051C107.529 14.4699 108.198 11.1241 110.155 8.25561C112.111 5.38715 115.231 3.17961 118.964 2.02092C120.303 1.32118 121.763 0.792682 123.294 0.453343C123.761 0.349563 124.23 0.264221 124.702 0.197266C120.306 0.230143 116.077 1.58632 112.808 4.0111C109.539 6.43588 107.455 9.76233 106.948 13.3656H106.946Z" fill="#A3ADBB"/>
<path d="M151.087 16.9889C150.504 15.1504 149.434 13.4414 147.955 11.9849C145.274 9.3323 142.399 6.81684 139.347 4.45243C138.862 4.07692 138.373 3.70534 137.882 3.33765C137.578 3.10833 137.255 2.89154 136.93 2.68481C135.213 1.59137 133.239 0.80504 131.133 0.375924C129.028 -0.0531931 126.837 -0.115716 124.701 0.192383C124.228 0.259896 123.758 0.34529 123.293 0.448512C120.768 1.0061 118.453 2.07789 116.56 3.56558C114.667 5.05327 113.257 6.90929 112.459 8.96354C111.026 12.6836 109.836 16.4645 108.894 20.2898C108.792 20.6982 108.691 21.1059 108.59 21.5193C108.496 21.9118 108.426 22.3052 108.377 22.6969C108.342 22.963 108.319 23.2283 108.305 23.4928C108.276 24.0229 108.287 24.554 108.337 25.083C108.602 27.8664 109.968 30.5009 112.224 32.5811C112.656 32.9811 113.116 33.3592 113.602 33.7135C114.666 34.4884 115.85 35.1426 117.123 35.6586C119.24 36.5167 121.567 36.9628 123.926 36.9625C125.624 36.9612 127.312 36.7352 128.923 36.293C132.242 35.3865 135.575 34.368 138.87 33.2524C139.739 32.9583 140.604 32.657 141.467 32.3484C141.706 32.2648 141.947 32.1811 142.185 32.0974C142.975 31.8123 143.736 31.4747 144.461 31.088C147.847 29.2839 150.247 26.4618 151.154 23.2208C151.372 22.4578 151.508 21.6803 151.559 20.8974C151.647 19.5823 151.488 18.2638 151.087 16.9889ZM141.731 31.2253C137.398 32.7887 132.97 34.1906 128.567 35.3932C126.155 36.0546 123.576 36.1829 121.086 35.7655C118.596 35.3481 116.282 34.3995 114.375 33.0142C112.467 31.6289 111.033 29.8553 110.214 27.87C109.396 25.8848 109.222 23.7572 109.71 21.6992C110.693 17.4919 111.973 13.3356 113.543 9.25144C114.282 7.34608 115.589 5.62451 117.344 4.24508C119.1 2.86566 121.247 1.87267 123.589 1.35743C125.936 0.832823 128.404 0.803137 130.768 1.2711C133.132 1.73906 135.316 2.68968 137.118 4.03564C140.679 6.68852 144.008 9.54569 147.08 12.5858C148.518 14.0144 149.535 15.6994 150.049 17.5078C150.562 19.3162 150.56 21.1984 150.041 23.0058C149.522 24.8133 148.502 26.4964 147.06 27.9224C145.618 29.3485 143.794 30.4783 141.732 31.2228L141.731 31.2253Z" fill="#A3ADBB"/>
<path d="M122.249 13.9123C120.675 13.9025 119.132 14.2787 117.818 14.9932C116.503 15.7076 115.475 16.7281 114.864 17.9254C114.253 19.1226 114.086 20.4426 114.385 21.7181C114.684 22.9936 115.435 24.1671 116.543 25.0898C117.651 26.0125 119.066 26.643 120.609 26.9011C122.152 27.1593 123.753 27.0337 125.209 26.54C126.665 26.0464 127.911 25.2071 128.788 24.1285C129.666 23.0499 130.135 21.7806 130.137 20.4814C130.144 19.6222 129.945 18.7703 129.552 17.9747C129.158 17.1791 128.579 16.4554 127.846 15.8451C127.113 15.2347 126.241 14.7498 125.281 14.4182C124.32 14.0865 123.29 13.9146 122.249 13.9123ZM122.249 24.5799C121.253 24.6221 120.265 24.4169 119.412 23.9907C118.559 23.5645 117.88 22.9371 117.464 22.1894C117.048 21.4417 116.913 20.6081 117.076 19.7964C117.24 18.9847 117.695 18.2321 118.382 17.636C119.07 17.0399 119.958 16.6276 120.932 16.4525C121.906 16.2773 122.922 16.3474 123.847 16.6535C124.773 16.9596 125.566 17.4878 126.124 18.1697C126.682 18.8517 126.979 19.6561 126.978 20.4789C126.994 21.0047 126.884 21.5281 126.655 22.019C126.426 22.5099 126.082 22.9587 125.643 23.3399C125.204 23.7211 124.678 24.0272 124.096 24.2407C123.513 24.4542 122.886 24.5709 122.249 24.5841V24.5799Z" fill="#A3ADBB"/>
<path d="M143.23 23.1331C143.23 18.7208 135.219 19.7209 135.219 17.4854C135.219 16.7406 136.051 16.23 137.476 16.23C138.168 16.2288 138.851 16.361 139.47 16.6164C140.089 16.8717 140.627 17.243 141.041 17.7005L143.084 16.0333C142.442 15.3428 141.608 14.7899 140.653 14.4214C139.697 14.0529 138.649 13.8795 137.595 13.9159C134.34 13.9159 132.036 15.4224 132.036 17.5632C132.036 21.9362 140.047 20.8382 140.047 23.2695C140.047 24.1718 139.12 24.7207 137.457 24.7207C136.706 24.7366 135.962 24.6022 135.287 24.3291C134.613 24.056 134.028 23.6523 133.584 23.1524L131.47 24.7802C132.468 26.0155 134.297 27.0358 137.411 27.0358C140.902 27.0358 143.23 25.4079 143.23 23.1331Z" fill="#A3ADBB"/>
<path d="M0.217773 2.42578H4.38981C5.65744 2.42578 7.7364 2.42574 7.7364 4.32141C7.7364 6.21708 5.65541 6.20871 4.38981 6.20871H1.68013V8.60653H0.217773V2.42578ZM4.70932 5.17173C5.54393 5.17173 6.27504 5.11231 6.27504 4.31303C6.27504 3.51375 5.54393 3.46271 4.70932 3.46271H1.68013V5.17173H4.70932Z" fill="#A3ADBB"/>
<path d="M16.9614 5.95427C16.9614 7.94367 15.4261 8.75973 12.9851 8.75973C10.5442 8.75973 9.00879 7.94367 9.00879 5.95427V2.42578H10.4721V5.86891C10.4721 6.88914 10.9153 7.72275 12.9861 7.72275C15.0569 7.72275 15.5001 6.88579 15.5001 5.86891V2.42578H16.9634L16.9614 5.95427Z" fill="#A3ADBB"/>
<path d="M18.9395 2.42578H23.4512C25.2127 2.42578 26.3921 2.83417 26.3921 4.00756C26.4144 4.26775 26.3445 4.5277 26.1909 4.75566C26.0373 4.98363 25.8066 5.16977 25.527 5.29142C25.8766 5.42626 26.1715 5.64162 26.3763 5.91156C26.581 6.18151 26.687 6.49453 26.6812 6.81297C26.6812 7.97799 25.5585 8.6074 23.7342 8.6074H18.9395V2.42578ZM23.5445 4.86626C24.5028 4.86626 24.9247 4.67044 24.9247 4.15238C24.9247 3.63431 24.5018 3.43007 23.5445 3.43007H20.4007V4.86713L23.5445 4.86626ZM23.5861 7.60388C24.514 7.60388 25.2137 7.45075 25.2137 6.7201C25.2137 6.07398 24.5749 5.86978 23.5861 5.86978H20.4028V7.60388H23.5861Z" fill="#A3ADBB"/>
<path d="M28.3067 2.42578H29.77V7.53528H35.1995V8.60653H28.3037L28.3067 2.42578Z" fill="#A3ADBB"/>
<path d="M36.6211 2.42578H38.0844V8.60653H36.6211V2.42578Z" fill="#A3ADBB"/>
<path d="M48.0264 6.40493C47.8823 7.09373 47.285 8.76009 43.8442 8.76009C41.4742 8.76009 39.6104 7.67207 39.6104 5.41903C39.6104 3.61626 40.9804 2.27295 43.9578 2.27295C47.3043 2.27295 47.8003 4.06654 47.9128 4.39881H46.4494C46.2344 4.03319 45.8868 3.73194 45.4548 3.53694C45.0228 3.34194 44.5279 3.26285 44.0389 3.31075C41.9681 3.31075 41.098 4.27156 41.098 5.55542C41.0878 5.8587 41.1565 6.16026 41.2995 6.43976C41.4425 6.71927 41.6563 6.97026 41.9267 7.17576C42.1972 7.38127 42.5179 7.53655 42.8672 7.63112C43.2165 7.72568 43.5864 7.75731 43.9517 7.72393C44.5017 7.77315 45.0557 7.67048 45.5274 7.43194C45.999 7.19341 46.3614 6.83248 46.5579 6.40574L48.0264 6.40493Z" fill="#A3ADBB"/>
<path d="M49.6143 2.42578H51.0776V8.60653H49.6143V2.42578Z" fill="#A3ADBB"/>
<path d="M58.9795 4.30538C58.7422 3.753 58.1348 3.27678 56.353 3.27678C55.3643 3.27678 54.3643 3.48099 54.3643 4.05094C54.3643 4.31458 54.5499 4.59496 56.0437 4.74812L57.8154 4.96905C59.4947 5.18163 60.4835 5.71727 60.4835 6.75424C60.4835 8.21637 58.7939 8.76291 56.7951 8.76291C53.5804 8.76291 52.7975 7.45311 52.623 6.9861L54.0348 6.62035C54.3025 7.07062 54.8592 7.72593 56.8367 7.72593C58.0313 7.72593 59.0201 7.40287 59.0201 6.86723C59.0201 6.46801 58.4633 6.20437 57.3975 6.09389L55.6046 5.88971C53.8735 5.69387 52.905 5.07367 52.905 4.13211C52.905 2.27829 55.8206 2.27832 56.3976 2.27832C59.6224 2.27832 60.1782 3.5111 60.3638 3.93626L58.9795 4.30538Z" fill="#A3ADBB"/>
</svg>
