<svg width="153" height="39" viewBox="0 0 153 39" fill="none" xmlns="http://www.w3.org/2000/svg">
<path fill-rule="evenodd" clip-rule="evenodd" d="M34.0148 5.76296C34.0148 4.48187 33.4142 3.25326 32.345 2.34739C31.2758 1.44153 29.8257 0.932617 28.3136 0.932617H6.04006C4.52831 0.933434 3.07875 1.44261 2.00977 2.34829C0.9408 3.25398 0.339831 4.48212 0.338867 5.76296L0.382527 25.0196C0.382527 25.0196 0.382527 26.8476 0.790015 27.8247C1.25208 28.9714 3.70064 30.448 3.70064 30.448L16.9294 38.2314L19.7855 36.7795L6.96055 12.2455L3.8862 9.77951V4.25252L8.89612 7.42753L9.36909 10.954C11.2588 9.99906 13.4194 9.49722 15.6197 9.50208C16.9757 9.52302 17.9449 9.98111 19.0363 10.497C20.516 11.1963 22.2203 12.0018 25.4176 11.9681C26.691 11.9681 30.5112 10.7598 30.5112 10.7598L30.533 18.8977C30.533 18.8977 27.5241 20.0845 26.8256 20.1708C25.5217 20.3355 24.1951 20.3219 22.8962 20.1307C22.1445 19.9942 21.5849 19.7228 21.0388 19.4578C20.5118 19.2022 19.9972 18.9526 19.3344 18.836C16.2527 18.2935 14.8593 18.836 14.8593 18.836L22.7653 35.2413C22.7653 35.2413 27.6406 33.2592 30.3474 31.234C31.2205 30.663 32.0161 30.0117 32.7196 29.292C34.0731 27.7507 34.0148 24.6158 34.0148 24.6158V5.76296ZM12.7527 31.8536L5.65804 27.9141C5.49171 27.7979 5.33262 27.6744 5.18143 27.5442C4.8729 27.2844 4.59844 26.9971 4.36281 26.6873C4.09475 26.2696 3.94176 25.8059 3.9153 25.3309C3.89596 25.0887 3.89596 24.8457 3.9153 24.6035L3.8862 16.0371L12.7527 31.8536ZM30.5003 25.0042C30.5003 25.0042 30.4384 25.3803 30.3438 25.7779C30.2929 25.9814 30.2347 26.1971 30.1655 26.3944C30.1025 26.5923 30.0083 26.782 29.8854 26.9585C29.645 27.2938 29.3593 27.6041 29.034 27.8833C28.9063 27.9898 28.7764 28.0843 28.628 28.1921L28.628 28.1922L28.6278 28.1923C28.5058 28.281 28.3713 28.3788 28.2154 28.4998C27.5642 28.9838 24.1369 30.7932 24.1369 30.7932L20.062 22.384C20.7937 22.6725 21.5431 22.9277 22.3068 23.1485C23.2442 23.3481 24.2041 23.4618 25.1702 23.4876C26.278 23.5268 27.3855 23.4048 28.4446 23.1269C29.1546 22.8993 29.842 22.6241 30.5003 22.3039V25.0042ZM30.5003 6.86651C29.8526 7.55392 27.8298 8.45402 24.4389 8.45402C23.2615 8.45402 22.0608 8.01066 20.7696 7.53386C19.2677 6.97928 17.6433 6.37947 15.7907 6.37947C14.6018 6.38703 13.4178 6.50906 12.2615 6.74321L7.83737 3.63292L28.31 3.66683C29.7653 3.66683 30.493 4.61009 30.493 5.76296L30.5003 6.86651ZM62.1642 26.9924C63.6669 26.3759 64.5146 25.371 64.5146 23.9345C64.5146 21.2065 62.2843 20.3033 58.9917 20.3033H50.8565V34.9515H59.2245C62.3462 34.9515 65.3259 33.6815 65.3259 30.7069C65.3368 28.8789 64.2708 27.5041 62.1642 26.9924ZM54.6585 22.8187H58.2167C59.5738 22.8187 60.8326 23.1053 60.8326 24.5017C60.8326 25.7348 59.8394 26.2434 58.5078 26.2434H54.6585V22.8187ZM58.7261 32.4609H54.6585V28.4536H58.7988C60.4215 28.4536 61.5348 29.0485 61.5348 30.5466C61.5348 32.0447 60.2287 32.4485 58.7261 32.4485V32.4609ZM73.2756 24.0579C75.7678 24.0579 78.773 24.5295 78.773 27.0726V32.5996C78.773 33.5644 78.8931 34.5293 79.206 34.9577H75.7205C75.5916 34.626 75.5098 34.2824 75.4767 33.9343C74.3889 34.8961 72.788 35.2475 71.2636 35.2475C68.8914 35.2475 67.0032 34.2241 67.0032 32.0663C67.0032 29.6588 69.157 29.1071 71.2636 28.8389C71.64 28.791 72.0117 28.7536 72.3684 28.7177L72.3685 28.7177L72.3686 28.7177C74.0084 28.5528 75.3312 28.4197 75.3312 27.4425C75.3312 26.191 74.3161 26.006 73.1046 26.006C71.7984 26.006 70.9507 26.4592 70.827 27.6059H67.3888C67.5817 24.8778 70.4668 24.0579 73.2756 24.0579ZM72.5479 33.2901C75.2366 33.2901 75.3312 31.4837 75.3312 30.8487V29.7606C74.9177 30.069 74.1807 30.157 73.4046 30.2497L73.4046 30.2497C73.095 30.2866 72.7791 30.3243 72.4752 30.3771C71.4091 30.562 70.4414 30.8487 70.4414 31.9368C70.4414 33.025 71.4346 33.2901 72.5479 33.2901ZM88.6 24.0517C87.8375 24.0447 87.0856 24.203 86.4157 24.5116C85.7458 24.8202 85.1802 25.2689 84.7726 25.8149H84.6998V24.3599H81.4253V34.967H84.8635V29.4184C84.8635 27.2606 85.6639 26.379 87.5267 26.379C89.1276 26.379 89.7315 27.2421 89.7315 28.9868V34.9762H93.1697V28.4289C93.177 25.8026 92.2565 24.0517 88.6 24.0517ZM103.877 24.3445H107.945L103.222 28.2439L108.476 34.9515H104.31L100.872 30.2137L99.5404 31.3018V34.9515H96.1022V20.3033H99.5404V28.1607L103.877 24.3445ZM57.2744 13.7776C55.237 13.7776 53.4469 13.0193 53.4469 11.068H49.765C49.7177 14.6807 53.3014 16.2806 57.1289 16.2806C61.8259 16.2806 64.3218 14.2708 64.3218 11.5828C64.3218 8.36458 60.6942 7.62245 59.3153 7.34036L59.1845 7.31348L58.814 7.23289C54.804 6.36093 54.0291 6.19241 54.0291 5.09713C54.0291 3.86411 55.4334 3.43564 56.6413 3.43564C58.4605 3.43564 59.9376 3.88877 60.0577 5.65199H63.7396C63.7396 2.26119 60.4215 0.932617 56.8269 0.932617C53.7016 0.932617 50.3617 2.36908 50.3617 5.36531C50.3617 8.11494 52.9521 8.95647 55.5208 9.52982C55.8851 9.61115 56.2494 9.68634 56.6063 9.76L56.6065 9.76004L56.6066 9.76007L56.6072 9.76018L56.6072 9.76019L56.6074 9.76023C58.7661 10.2058 60.6544 10.5955 60.6544 11.9496C60.6398 13.4477 58.606 13.7776 57.2744 13.7776ZM71.0708 16.0555C68.9642 16.0555 67.1233 15.6456 67.1233 13.5309L67.1196 7.27339H65.0349V5.32214H67.1196V2.14404H70.5578V5.32214H73.0755V7.28264H70.5578V12.523C70.5578 13.5094 70.8525 13.756 72.0131 13.756C72.3707 13.7599 72.7279 13.7331 73.0791 13.6758V15.9538C72.4136 16.03 71.7423 16.0641 71.0708 16.0555ZM78.1036 9.81648C75.9752 10.0631 73.8432 10.6364 73.8432 13.0377C73.8432 15.214 75.7314 16.2189 78.1036 16.2189C79.6317 16.2189 81.2289 15.8706 82.3204 14.9058C82.3508 15.2549 82.4314 15.5996 82.5605 15.9322H86.0496C85.7331 15.5007 85.613 14.5359 85.613 13.571V8.05327C85.613 5.50709 82.6078 5.03546 80.1156 5.03546C77.3068 5.03546 74.4253 5.8585 74.2288 8.58655H77.6706C77.7907 7.43676 78.6384 6.98671 79.9446 6.98671C81.1561 6.98671 82.1748 7.17166 82.1748 8.42317C82.1748 9.41336 80.8142 9.54537 79.1435 9.70747C78.8066 9.74015 78.4571 9.77407 78.1036 9.81648ZM82.1748 11.8294C82.1748 12.4644 82.0766 14.2708 79.3879 14.2708C78.2746 14.2708 77.2813 14.0026 77.2813 12.9144C77.2813 11.8263 78.2491 11.5396 79.3152 11.3547C79.6201 11.3018 79.937 11.2642 80.2476 11.2275C81.0229 11.1357 81.7593 11.0485 82.1748 10.7382V11.8294ZM100.028 15.9323H96.5788L96.5751 9.95214C96.5751 8.20742 95.9712 7.34739 94.3703 7.34739C92.5075 7.34739 91.7071 8.22591 91.7071 10.3837V15.9323H88.2689V5.30983H91.5434V6.78945H91.6162C92.0252 6.24384 92.5924 5.79614 93.2638 5.48908C93.9351 5.18203 94.6881 5.02586 95.4509 5.03548C99.1074 5.03548 100.028 6.7802 100.028 9.40653V15.9323ZM111.394 6.61682H111.368C110.952 6.1106 110.392 5.70072 109.741 5.42452C109.09 5.14832 108.367 5.01458 107.639 5.03548C103.961 5.03548 102.094 7.68338 102.094 10.5347C102.094 13.4693 103.935 16.2189 107.712 16.2189C109.313 16.2189 110.717 15.7257 111.514 14.579H111.565V15.9323H114.839V1.28094H111.401L111.394 6.61682ZM108.56 14.0149C106.431 14.0149 105.533 12.2702 105.533 10.6241C105.533 8.87941 106.308 7.23333 108.56 7.23333C110.812 7.23333 111.514 8.87324 111.514 10.5964C111.514 12.3195 110.837 14.0242 108.56 14.0242V14.0149ZM123.156 5.03546C125.649 5.03546 128.654 5.50709 128.654 8.05327V13.571C128.654 14.5359 128.774 15.5007 129.087 15.9322H125.601C125.473 15.5994 125.391 15.2548 125.358 14.9058C124.27 15.8706 122.669 16.2189 121.145 16.2189C118.772 16.2189 116.884 15.214 116.884 13.0377C116.884 10.6364 119.038 10.0816 121.145 9.81648C121.518 9.76942 121.888 9.73266 122.243 9.69736C123.886 9.53383 125.212 9.4018 125.212 8.42317C125.212 7.17166 124.197 6.98671 122.985 6.98671C121.679 6.98671 120.832 7.43676 120.708 8.58655H117.27C117.463 5.8585 120.348 5.03546 123.156 5.03546ZM122.429 14.2708C125.118 14.2708 125.212 12.4644 125.212 11.8294V10.7382C124.799 11.0485 124.063 11.1357 123.288 11.2275C122.977 11.2643 122.661 11.3018 122.356 11.3547C121.29 11.5396 120.322 11.8263 120.322 12.9144C120.322 14.0026 121.315 14.2708 122.429 14.2708ZM134.632 7.29188H134.592V5.32214H131.317V15.9322H134.755V11.1512C134.755 9.2832 135.629 7.76043 138.146 7.76043C138.56 7.7596 138.973 7.79367 139.38 7.86215V5.14027C139.137 5.07378 138.885 5.03846 138.63 5.03546C137.778 5.04607 136.948 5.26456 136.239 5.66475C135.529 6.06495 134.972 6.62989 134.632 7.29188ZM149.007 6.61682V1.28094H152.452V15.9323H149.178V14.579H149.13C148.33 15.7257 146.925 16.2189 145.328 16.2189C141.548 16.2189 139.707 13.4693 139.707 10.5347C139.707 7.68338 141.573 5.03548 145.255 5.03548C145.983 5.01458 146.706 5.14832 147.357 5.42452C148.009 5.70072 148.568 6.1106 148.985 6.61682H149.007ZM143.149 10.6334C143.149 12.2795 144.044 14.0242 146.176 14.0242C148.45 14.0242 149.145 12.3195 149.145 10.5964C149.145 8.87324 148.428 7.24258 146.176 7.24258C143.924 7.24258 143.149 8.88866 143.149 10.6334Z" fill="#A3ADBB"/>
</svg>
