<svg width="12" height="10" viewBox="0 0 12 10" fill="none" xmlns="http://www.w3.org/2000/svg">
<path d="M12 4.66667L9.1 8.76667C8.97778 8.94444 8.81956 9.08333 8.62533 9.18333C8.43067 9.28333 8.22222 9.33333 8 9.33333H1.33333C0.966667 9.33333 0.652667 9.20289 0.391333 8.942C0.130444 8.68067 0 8.36667 0 8V1.33333C0 0.966667 0.130444 0.652889 0.391333 0.392C0.652667 0.130667 0.966667 0 1.33333 0H8C8.22222 0 8.43067 0.0499999 8.62533 0.15C8.81956 0.25 8.97778 0.388889 9.1 0.566667L12 4.66667ZM5.01667 7.33333L5.85 5.5L7.68333 4.66667L5.85 3.83333L5.01667 2L4.18333 3.83333L2.35 4.66667L4.18333 5.5L5.01667 7.33333Z" fill="#1282D6"/>
</svg>
