<svg width="24" height="24" viewBox="0 0 24 24" fill="none" xmlns="http://www.w3.org/2000/svg">
<mask id="mask0_1531_3467" style="mask-type:alpha" maskUnits="userSpaceOnUse" x="4" y="4" width="16" height="16">
<rect x="4.5" y="4.5" width="15" height="15" fill="#D9D9D9" stroke="#EC7A7D"/>
</mask>
<g mask="url(#mask0_1531_3467)">
<path d="M10.4859 14.6134L10.5062 14.6054L10.2718 14.0068L10.4859 14.6134ZM10.4859 14.6134H10.5178M10.4859 14.6134H10.5178M10.5178 14.6134H11.1244C11.3694 14.6134 11.5767 14.7075 11.7471 14.8966C11.9175 15.0857 12.0028 15.3141 12.0028 15.5823C12.0028 15.8527 11.9149 16.0815 11.7391 16.2695C11.5633 16.4576 11.3498 16.5513 11.0979 16.5513H8.71254C8.24177 16.5513 7.84103 16.3743 7.50964 16.0198C7.17822 15.6653 7.0125 15.2361 7.0125 14.7317C7.0125 14.2178 7.17826 13.7864 7.50958 13.4366C7.84096 13.0868 8.24172 12.9122 8.71254 12.9122C9.05245 12.9122 9.36394 13.0106 9.6473 13.2076M10.5178 14.6134L9.6473 13.2076M9.6473 13.2076C9.9306 13.4046 10.1387 13.6709 10.2718 14.0067L9.6473 13.2076ZM8.55829 8.85648C9.14622 7.98061 9.92031 7.36793 10.8808 7.01809C10.8465 7.89774 10.9737 8.74392 11.2624 9.55654C11.5532 10.3749 11.9924 11.0985 12.5801 11.7272C13.1677 12.3559 13.8442 12.8258 14.6095 13.137C15.3692 13.4459 16.1603 13.582 16.9828 13.5455C16.6645 14.572 16.1003 15.3959 15.29 16.0179C14.4827 16.6376 13.5802 16.9605 12.5821 16.9868C12.7414 16.7963 12.8648 16.5831 12.9521 16.3473C13.0427 16.1027 13.0879 15.8477 13.0879 15.5823C13.0879 15.0095 12.9077 14.5185 12.5471 14.1101C12.1883 13.7037 11.7509 13.4918 11.2356 13.4752C11.0064 12.9524 10.6653 12.5349 10.2125 12.2231C9.7575 11.9098 9.25742 11.753 8.71254 11.753C8.53086 11.753 8.35071 11.7728 8.17213 11.8122C7.99967 11.8503 7.83059 11.9068 7.6649 11.9817L7.6649 11.8267C7.6649 11.8267 7.6649 11.8266 7.6649 11.8266C7.66896 10.7276 7.96678 9.73766 8.55829 8.85648Z" fill="#EC7A7D" stroke="#EC7A7D" stroke-width="0.025"/>
</g>
<circle cx="12" cy="12" r="11.5" stroke="#EC7A7D"/>
</svg>
