<svg width="20" height="20" viewBox="0 0 20 20" fill="none" xmlns="http://www.w3.org/2000/svg">
<mask id="mask0_635_742" style="mask-type:alpha" maskUnits="userSpaceOnUse" x="0" y="0" width="20" height="20">
<rect width="20" height="20" fill="url(#paint0_linear_635_742)"/>
</mask>
<g mask="url(#mask0_635_742)">
<path d="M5.08301 18.1252C4.65331 18.1252 4.28547 17.9722 3.97949 17.6662C3.6735 17.3602 3.52051 16.9924 3.52051 16.5627V8.35433C3.52051 7.92464 3.6735 7.55679 3.97949 7.25081C4.28547 6.94482 4.65331 6.79183 5.08301 6.79183H5.97884V5.17118C5.97884 4.05023 6.36947 3.09912 7.15072 2.31787C7.93197 1.53662 8.88162 1.146 9.99967 1.146C11.1177 1.146 12.0674 1.53662 12.8486 2.31787C13.6299 3.09912 14.0205 4.05023 14.0205 5.17118V6.79183H14.9163C15.346 6.79183 15.7139 6.94482 16.0199 7.25081C16.3258 7.55679 16.4788 7.92464 16.4788 8.35433V16.5627C16.4788 16.9924 16.3258 17.3602 16.0199 17.6662C15.7139 17.9722 15.346 18.1252 14.9163 18.1252H5.08301ZM5.08301 16.5627H14.9163V8.35433H5.08301V16.5627ZM9.99967 14.0627C10.4408 14.0627 10.8185 13.9056 11.1326 13.5914C11.4468 13.2773 11.6038 12.8996 11.6038 12.4585C11.6038 12.0173 11.4468 11.6397 11.1326 11.3256C10.8185 11.0114 10.4408 10.8543 9.99967 10.8543C9.55852 10.8543 9.18088 11.0114 8.86674 11.3256C8.55258 11.6397 8.39551 12.0173 8.39551 12.4585C8.39551 12.8996 8.55258 13.2773 8.86674 13.5914C9.18088 13.9056 9.55852 14.0627 9.99967 14.0627ZM7.54134 6.79183H12.458V5.16362C12.458 4.4852 12.2192 3.90641 11.7417 3.42725C11.2642 2.94808 10.6843 2.7085 10.0021 2.7085C9.31994 2.7085 8.73926 2.9475 8.26009 3.42552C7.78092 3.90352 7.54134 4.48395 7.54134 5.16683V6.79183Z" fill="url(#paint1_linear_635_742)"/>
</g>
<defs>
<linearGradient id="paint0_linear_635_742" x1="10" y1="0" x2="10" y2="20" gradientUnits="userSpaceOnUse">
<stop stop-color="#ED787B"/>
<stop offset="1" stop-color="#DF5B5D"/>
</linearGradient>
<linearGradient id="paint1_linear_635_742" x1="9.99967" y1="1.146" x2="9.99967" y2="18.1252" gradientUnits="userSpaceOnUse">
<stop stop-color="#ED787B"/>
<stop offset="1" stop-color="#DF5B5D"/>
</linearGradient>
</defs>
</svg>
