<svg width="24" height="24" viewBox="0 0 24 24" fill="none" xmlns="http://www.w3.org/2000/svg">
<mask id="mask0_1022_832" style="mask-type:alpha" maskUnits="userSpaceOnUse" x="0" y="0" width="24" height="24">
<rect x="0.5" y="0.5" width="23" height="23" fill="#D9D9D9" stroke="#B2BBC6"/>
</mask>
<g mask="url(#mask0_1022_832)">
<circle cx="12" cy="12" r="11.5" stroke="#909DAD"/>
<path d="M7.2 17C6.87 17 6.5875 16.8776 6.3525 16.6328C6.1175 16.388 6 16.0938 6 15.75V8.25C6 7.90625 6.1175 7.61198 6.3525 7.36719C6.5875 7.1224 6.87 7 7.2 7H16.8C17.13 7 17.4125 7.1224 17.6475 7.36719C17.8825 7.61198 18 7.90625 18 8.25V15.75C18 16.0938 17.8825 16.388 17.6475 16.6328C17.4125 16.8776 17.13 17 16.8 17H7.2ZM12 12.625L16.8 9.5V8.25L12 11.375L7.2 8.25V9.5L12 12.625Z" fill="#909DAD"/>
</g>
</svg>
