<svg width="18" height="14" viewBox="0 0 18 14" fill="none" xmlns="http://www.w3.org/2000/svg">
<path d="M2.4375 13.4793C2.00781 13.4793 1.63997 13.3263 1.33398 13.0203C1.02799 12.7144 0.875 12.3465 0.875 11.9168V2.0835C0.875 1.6538 1.02799 1.28596 1.33398 0.979975C1.63997 0.673989 2.00781 0.520996 2.4375 0.520996H15.5625C15.9922 0.520996 16.36 0.673989 16.666 0.979975C16.972 1.28596 17.125 1.6538 17.125 2.0835V11.9168C17.125 12.3465 16.972 12.7144 16.666 13.0203C16.36 13.3263 15.9922 13.4793 15.5625 13.4793H2.4375ZM9 7.76058L2.4375 3.646V11.9168H15.5625V3.646L9 7.76058ZM9 6.18766L15.5417 2.0835H2.45833L9 6.18766ZM2.4375 3.646V2.0835V11.9168V3.646Z" fill="#EC7A7D"/>
</svg>
