<svg width="44" height="40" viewBox="0 0 44 40" fill="none" xmlns="http://www.w3.org/2000/svg">
<path d="M43.61 11.9276C42.9813 5.01562 38.0837 0.000827405 31.9544 0.000827405C27.871 0.000827405 24.1321 2.19588 22.0283 5.71393C19.9435 2.15038 16.3579 -2.05155e-08 12.3399 -2.05155e-08C6.21144 -2.05155e-08 1.31298 5.01479 0.685146 11.9268C0.635449 12.2321 0.431691 13.8389 1.05125 16.4592C1.94413 20.2387 4.00656 23.6765 7.01405 26.3986L22.0184 40L37.2803 26.3994C40.2878 23.6765 42.3502 20.2395 43.2431 16.4592C43.8626 13.8397 43.6589 12.2329 43.61 11.9276ZM41.6304 16.0803C40.8154 19.5321 38.9261 22.677 36.172 25.1691L22.0283 37.7743L8.12726 25.1724C5.36825 22.6754 3.47977 19.5313 2.66391 16.0794C2.07749 13.5998 2.31852 12.199 2.31935 12.1899L2.33177 12.1063C2.87015 6.05068 7.07865 1.65477 12.3399 1.65477C16.2221 1.65477 19.6395 4.03765 21.2613 7.87258L22.0242 9.67877L22.787 7.87258C24.3831 4.09639 27.9812 1.6556 31.9553 1.6556C37.2157 1.6556 41.425 6.05151 41.9742 12.1857C41.9758 12.199 42.2168 13.6006 41.6304 16.0803Z" fill="#B2BBC6"/>
<path d="M13.8648 5.0293C9.2977 5.0293 5.58203 8.74095 5.58203 13.3032C5.58203 13.7607 5.95227 14.1305 6.41031 14.1305C6.86835 14.1305 7.23859 13.7607 7.23859 13.3032C7.23859 9.65356 10.2113 6.68407 13.8648 6.68407C14.3229 6.68407 14.6931 6.31423 14.6931 5.85668C14.6931 5.39914 14.3221 5.0293 13.8648 5.0293Z" fill="#B2BBC6"/>
</svg>
