<svg width="41" height="40" viewBox="0 0 41 40" fill="none" xmlns="http://www.w3.org/2000/svg">
<path d="M22.8497 13.9131H17.6387V27.8261H22.8497V13.9131ZM21.1127 26.087H19.3757V15.6522H21.1127V26.087Z" fill="#B2BBC6"/>
<path d="M36.7467 0H3.74355C1.83279 0 0.269531 1.56517 0.269531 3.47826V36.5217C0.269531 38.4347 1.83279 40 3.74355 40H28.9301H29.7986L40.2207 27.8261V26.9566V3.47826C40.2207 1.56517 38.6573 0 36.7467 0ZM29.7987 37.3913V29.5653C29.7987 28.5218 30.6671 27.8262 31.5357 27.8262H37.9626L29.7987 37.3913ZM38.4837 26.087H31.5357C29.625 26.087 28.0616 27.6522 28.0616 29.5652V38.2609H3.74355C2.70134 38.2609 2.00654 37.5652 2.00654 36.5217V10.4348H38.4837V26.087ZM38.4837 8.69565H2.00654V3.47826C2.00654 2.43478 2.70134 1.73913 3.74355 1.73913H36.7467C37.7889 1.73913 38.4837 2.43478 38.4837 3.47826V8.69565Z" fill="#B2BBC6"/>
<path d="M22.8497 29.5654H17.6387V34.7828H22.8497V29.5654ZM21.1127 33.0437H19.3757V31.3046H21.1127V33.0437Z" fill="#B2BBC6"/>
</svg>
