<svg width="24" height="24" viewBox="0 0 24 24" fill="none" xmlns="http://www.w3.org/2000/svg">
<path d="M4 21C3.45 21 2.97933 20.8043 2.588 20.413C2.196 20.021 2 19.55 2 19V5C2 4.45 2.196 3.979 2.588 3.587C2.97933 3.19567 3.45 3 4 3H18C18.55 3 19.021 3.19567 19.413 3.587C19.8043 3.979 20 4.45 20 5V7H22V9H20V11H22V13H20V15H22V17H20V19C20 19.55 19.8043 20.021 19.413 20.413C19.021 20.8043 18.55 21 18 21H4ZM4 19H18V5H4V19ZM6 17H11V13H6V17ZM12 10H16V7H12V10ZM6 12H11V7H6V12ZM12 17H16V11H12V17Z" fill="#7AAC47"/>
</svg>
