<svg width="41" height="41" viewBox="0 0 41 41" fill="none" xmlns="http://www.w3.org/2000/svg">
<circle cx="20.5" cy="20.5" r="20.5" fill="#151A20"/>
<path d="M21 23L22.4 19.9L25.5 18.5L22.4 17.1L21 14L19.6 17.1L16.5 18.5L19.6 19.9L21 23ZM13 26C12.45 26 11.9793 25.8043 11.588 25.413C11.196 25.021 11 24.55 11 24V13C11 12.45 11.196 11.979 11.588 11.587C11.9793 11.1957 12.45 11 13 11H29C29.55 11 30.021 11.1957 30.413 11.587C30.8043 11.979 31 12.45 31 13V24C31 24.55 30.8043 25.021 30.413 25.413C30.021 25.8043 29.55 26 29 26H13ZM11 29C10.7167 29 10.4793 28.904 10.288 28.712C10.096 28.5207 10 28.2833 10 28C10 27.7167 10.096 27.4793 10.288 27.288C10.4793 27.096 10.7167 27 11 27H31C31.2833 27 31.5207 27.096 31.712 27.288C31.904 27.4793 32 27.7167 32 28C32 28.2833 31.904 28.5207 31.712 28.712C31.5207 28.904 31.2833 29 31 29H11Z" fill="#1655D0"/>
</svg>
