<svg width="51" height="40" viewBox="0 0 51 40" fill="none" xmlns="http://www.w3.org/2000/svg">
<path d="M47.191 4.00293V1.48975e-07H40.8188V4.00293H10.5241V1.48975e-07H4.1519V4.00293H0.960938V18.4037H4.1519V40H10.5241V26.3998H40.8188V40H47.191V18.4037H50.382V4.00293H47.191ZM42.4143 1.60117H45.6053V4.00293H42.4143V1.60117ZM47.6191 5.6041L36.0713 16.8025H26.8194L38.3672 5.6041H47.6191ZM36.0713 5.6041L24.5235 16.8025H15.2716L26.8194 5.6041H36.0713ZM5.74739 1.60117H8.93835V4.00293H5.74739V1.60117ZM2.55642 5.6041H12.9757L2.55642 15.7188V5.6041ZM8.93835 38.3988H5.74739V18.4037H8.93835V38.3988ZM3.73358 16.8025L15.2814 5.6041H24.5332L12.9757 16.8025H3.73358ZM40.8188 24.8084H10.5241V18.4135H40.8188V24.8084ZM45.5956 38.4086H42.4046V18.4037H45.5956V38.4086ZM48.7962 16.8025H38.3672L48.7962 6.68782V16.8025Z" fill="#B2BBC6"/>
</svg>
