<svg width="24" height="23" viewBox="0 0 24 23" fill="none" xmlns="http://www.w3.org/2000/svg">
<path d="M8.72539 9.075L7.62539 6.65L5.20039 5.525L7.62539 4.425L8.72539 2L9.82539 4.425L12.2754 5.525L9.82539 6.65L8.72539 9.075ZM15.2004 12.1L14.2254 10.025L12.1504 9.05L14.2254 8.1L15.2004 6L16.1754 8.1L18.2504 9.05L16.1754 10.025L15.2004 12.1ZM4.20039 14.15L3.25039 12.075L1.15039 11.1L3.25039 10.125L4.20039 8.05L5.17539 10.125L7.25039 11.1L5.17539 12.075L4.20039 14.15ZM4.67539 20.9L3.07539 19.325L10.6004 11.8L14.5004 15.725L21.5004 7.85L23.0004 9.375L14.5254 18.95L10.6004 14.975L4.67539 20.9Z" fill="white"/>
</svg>
