<svg width="179" height="40" viewBox="0 0 179 40" fill="none" xmlns="http://www.w3.org/2000/svg">
<path d="M173.795 0.356035L164.128 21.0817L160.475 13.2181H156.527L162.525 26.0801H165.716L177.712 0.359539V0.356035H173.795Z" fill="#CD040B"/>
<path d="M71.0751 4.1084H78.9318V11.0646H71.0751V4.1084ZM9.26419 38.8428H17.4721L26.3808 13.2177H18.5233L13.5188 29.6835H13.4172L8.41274 13.2177H0.355469L9.26419 38.8428ZM38.0918 18.0742C40.8442 18.0742 42.7468 20.1257 43.0464 23.1286H32.5863C33.1872 20.0749 34.8384 18.0742 38.0918 18.0742ZM38.4922 33.9382C35.039 33.9382 32.9376 31.686 32.5364 28.2329H51.0047C51.0546 22.7274 49.604 18.3238 46.5494 15.5715C44.398 13.569 41.545 12.4679 37.942 12.4679C30.2343 12.4679 24.8785 18.3238 24.8785 25.9808C24.8785 33.6885 29.9846 39.5944 38.4422 39.5944C41.6457 39.5944 44.1974 38.7429 46.2998 37.2905C48.5519 35.7409 50.1532 33.4879 50.6043 31.2358H43.0963C42.3465 32.9387 40.7942 33.9382 38.4922 33.9382ZM52.8565 38.8428H60.6641V27.0819C60.6641 21.7279 63.8667 19.3741 68.7704 20.025H68.9211V13.2694C68.5208 13.1187 68.0705 13.0688 67.3198 13.0688C64.2679 13.0688 62.2155 14.4704 60.4635 17.4724H60.3128V13.2177H52.8565V38.8428ZM71.0751 38.8428H78.9318V13.2177H71.0751V38.8428ZM81.085 38.8428H103.006V32.6864H90.5929V32.5375L102.456 19.2252V13.2177H81.085V19.3741H93.0955V19.5248L81.085 32.9387V38.8428ZM116.869 33.8891C113.165 33.8891 111.214 30.7855 111.214 26.0815C111.214 21.3267 113.165 18.2721 116.869 18.2721C120.573 18.2721 122.626 21.3267 122.626 26.0815C122.626 30.7855 120.573 33.8891 116.869 33.8891ZM116.92 12.5169C108.762 12.5169 103.306 18.3738 103.306 26.0815C103.306 33.7384 108.762 39.6443 116.92 39.6443C125.077 39.6443 130.532 33.7384 130.532 26.0815C130.532 18.3738 125.077 12.5169 116.92 12.5169ZM132.234 38.8428H140.042V24.5792C140.042 21.3267 141.943 19.0246 144.745 19.0246C147.448 19.0246 148.85 20.9255 148.85 23.6288V38.8428H156.658V22.1264C156.658 16.472 153.255 12.4679 147.75 12.4679C144.245 12.4679 141.794 13.9702 139.943 16.7225H139.792V13.2177H132.234V38.8428Z" fill="white"/>
</svg>
