<svg width="34" height="34" viewBox="0 0 34 34" fill="none" xmlns="http://www.w3.org/2000/svg">
<path d="M12.8 22.6C10.07 22.6 7.75393 21.6489 5.8518 19.7468C3.9506 17.8456 3 15.53 3 12.8C3 10.07 3.9506 7.75393 5.8518 5.8518C7.75393 3.9506 10.07 3 12.8 3C15.53 3 17.8461 3.9506 19.7482 5.8518C21.6494 7.75393 22.6 10.07 22.6 12.8C22.6 15.53 21.6494 17.8456 19.7482 19.7468C17.8461 21.6489 15.53 22.6 12.8 22.6ZM11.4 28.2V25.33C11.6333 25.3533 11.8667 25.3711 12.1 25.3832C12.3333 25.3944 12.5667 25.4 12.8 25.4C16.3 25.4 19.275 24.175 21.725 21.725C24.175 19.275 25.4 16.3 25.4 12.8C25.4 12.5667 25.3944 12.3333 25.3832 12.1C25.3711 11.8667 25.3533 11.6333 25.33 11.4H28.2C28.97 11.4 29.6294 11.6739 30.1782 12.2218C30.7261 12.7706 31 13.43 31 14.2V28.2C31 28.97 30.7261 29.6294 30.1782 30.1782C29.6294 30.7261 28.97 31 28.2 31H14.2C13.43 31 12.7711 30.7261 12.2232 30.1782C11.6744 29.6294 11.4 28.97 11.4 28.2Z" fill="#C23D2C"/>
</svg>
