<svg width="72" height="72" viewBox="0 0 72 72" fill="none" xmlns="http://www.w3.org/2000/svg">
<circle cx="36" cy="36" r="36" fill="#151A20"/>
<path d="M27.9298 47C26.702 47 25.8296 46.4526 25.3125 45.3577C24.7944 44.2618 24.9205 43.2444 25.6909 42.3056L33.7076 32.5556V23.8889H32.2631C31.8539 23.8889 31.5106 23.7502 31.2332 23.4729C30.9569 23.1965 30.8187 22.8537 30.8187 22.4444C30.8187 22.0352 30.9569 21.6919 31.2332 21.4146C31.5106 21.1382 31.8539 21 32.2631 21H43.8187C44.228 21 44.5708 21.1382 44.8471 21.4146C45.1245 21.6919 45.2631 22.0352 45.2631 22.4444C45.2631 22.8537 45.1245 23.1965 44.8471 23.4729C44.5708 23.7502 44.228 23.8889 43.8187 23.8889H42.3742V32.5556L50.3909 42.3056C51.1613 43.2444 51.2874 44.2618 50.7694 45.3577C50.2522 46.4526 49.3798 47 48.152 47H27.9298Z" fill="#C23D2C"/>
</svg>
