<svg width="41" height="32" viewBox="0 0 41 32" fill="none" xmlns="http://www.w3.org/2000/svg">
<path d="M9.9298 29C8.70203 29 7.82958 28.4526 7.31247 27.3577C6.7944 26.2618 6.92054 25.2444 7.69092 24.3056L15.7076 14.5556V5.88889H14.2631C13.8539 5.88889 13.5106 5.75022 13.2332 5.47289C12.9569 5.19652 12.8187 4.8537 12.8187 4.44444C12.8187 4.03519 12.9569 3.69189 13.2332 3.41456C13.5106 3.13819 13.8539 3 14.2631 3H25.8187C26.228 3 26.5708 3.13819 26.8471 3.41456C27.1245 3.69189 27.2631 4.03519 27.2631 4.44444C27.2631 4.8537 27.1245 5.19652 26.8471 5.47289C26.5708 5.75022 26.228 5.88889 25.8187 5.88889H24.3742V14.5556L32.3909 24.3056C33.1613 25.2444 33.2874 26.2618 32.7694 27.3577C32.2522 28.4526 31.3798 29 30.152 29H9.9298Z" fill="#C23D2C"/>
</svg>
