<svg width="36" height="38" viewBox="0 0 36 38" fill="none" xmlns="http://www.w3.org/2000/svg">
<path d="M11.25 25.75H17.25V19.75H11.25V25.75ZM11.25 18.25H17.25V12.25H11.25V18.25ZM18.75 25.75H24.75V19.75H18.75V25.75ZM18.75 18.25H24.75V12.25H18.75V18.25ZM6 31C5.175 31 4.469 30.7065 3.882 30.1195C3.294 29.5315 3 28.825 3 28V10C3 9.175 3.294 8.469 3.882 7.882C4.469 7.294 5.175 7 6 7H30C30.825 7 31.5315 7.294 32.1195 7.882C32.7065 8.469 33 9.175 33 10V28C33 28.825 32.7065 29.5315 32.1195 30.1195C31.5315 30.7065 30.825 31 30 31H6Z" fill="#C23D2C"/>
</svg>
