<svg width="38" height="56" viewBox="0 0 38 56" fill="none" xmlns="http://www.w3.org/2000/svg">
<path d="M1.26203 29.2599C1.95796 29.2599 2.52212 28.6958 2.52212 27.9998C2.52212 27.3039 1.95796 26.7397 1.26203 26.7397C0.566109 26.7397 0.00195312 27.3039 0.00195312 27.9998C0.00195312 28.6958 0.566109 29.2599 1.26203 29.2599Z" fill="#D6DFF0"/>
<path d="M31.5111 30.1326C34.9918 26.9682 37.1744 22.4009 37.1744 17.3273C37.1744 7.75783 29.4165 0 19.8494 0C10.2799 0 2.52209 7.75783 2.52209 17.3273C2.52209 22.4033 4.70465 26.9682 8.18296 30.1326H18.6488V16.5618H13.2423V14.5575H26.0595V16.5618H20.653V30.1303H31.5111V30.1326Z" fill="#B9B9B9"/>
<path d="M27.3885 40.3394C26.9059 44.034 23.7438 46.887 19.9184 46.887C16.093 46.887 12.9309 44.034 12.4482 40.3394H27.3885Z" fill="#B9B9B9"/>
<path d="M29.5712 31.6162H10.1232V39.0982H29.5712V31.6162Z" fill="#B9B9B9"/>
<g opacity="0.51">
<path d="M29.5711 54.45C29.5711 55.3059 25.5769 56.0002 20.653 56.0002C15.7268 56.0002 11.735 55.3059 11.735 54.45C11.735 53.5941 15.7292 52.8999 20.653 52.8999C25.5793 52.8975 29.5711 53.5941 29.5711 54.45Z" fill="#D6DFF0"/>
</g>
</svg>
