<svg width="43" height="40" viewBox="0 0 43 40" fill="none" xmlns="http://www.w3.org/2000/svg">
<path d="M29.5356 36.154L28.9971 33.4617C28.6382 33.3121 28.3019 33.1554 27.9884 32.9914C27.6737 32.8263 27.3518 32.6241 27.0228 32.3848L24.4202 33.1925L22.6253 30.1412L24.6894 28.3463C24.6296 27.9275 24.5997 27.5386 24.5997 27.1796C24.5997 26.8206 24.6296 26.4317 24.6894 26.0129L22.6253 24.2181L24.4202 21.1668L27.0228 21.9745C27.3518 21.7351 27.6737 21.5329 27.9884 21.3678C28.3019 21.2039 28.6382 21.0471 28.9971 20.8975L29.5356 18.2052H33.1254L33.6638 20.8975C34.0228 21.0471 34.3596 21.2116 34.6743 21.3911C34.9878 21.5706 35.3091 21.795 35.6382 22.0642L38.2408 21.1668L40.0356 24.3078L37.9715 26.1027C38.0314 26.4617 38.0613 26.8356 38.0613 27.2245C38.0613 27.6134 38.0314 27.9873 37.9715 28.3463L40.0356 30.1412L38.2408 33.1925L35.6382 32.3848C35.3091 32.6241 34.9878 32.8263 34.6743 32.9914C34.3596 33.1554 34.0228 33.3121 33.6638 33.4617L33.1254 36.154H29.5356ZM31.3305 30.7694C32.3177 30.7694 33.1631 30.4182 33.8666 29.7158C34.569 29.0122 34.9202 28.1668 34.9202 27.1796C34.9202 26.1924 34.569 25.347 33.8666 24.6434C33.1631 23.941 32.3177 23.5899 31.3305 23.5899C30.3433 23.5899 29.4979 23.941 28.7943 24.6434C28.0919 25.347 27.7407 26.1924 27.7407 27.1796C27.7407 28.1668 28.0919 29.0122 28.7943 29.7158C29.4979 30.4182 30.3433 30.7694 31.3305 30.7694ZM4.40731 32.5642C3.89876 32.5642 3.47277 32.3919 3.12935 32.0473C2.78474 31.7039 2.61243 31.2779 2.61243 30.7694V5.64107C2.61243 5.13252 2.78474 4.70594 3.12935 4.36132C3.47277 4.0179 3.89876 3.84619 4.40731 3.84619C4.64662 3.84619 5.17791 3.98799 6.00116 4.27158C6.82321 4.55636 7.92228 4.86329 9.29835 5.19235C10.6744 5.52141 12.2976 5.82774 14.1679 6.11133C16.0369 6.39612 18.168 6.53851 20.5612 6.53851C22.9544 6.53851 25.0855 6.39612 26.9546 6.11133C28.8248 5.82774 30.448 5.52141 31.8241 5.19235C33.2001 4.86329 34.2998 4.55636 35.1231 4.27158C35.9451 3.98799 36.4758 3.84619 36.7151 3.84619C37.2237 3.84619 37.6497 4.0179 37.9931 4.36132C38.3377 4.70594 38.51 5.13252 38.51 5.64107V16.8591C37.4929 16.1411 36.3561 15.5877 35.0997 15.1988C33.8433 14.8099 32.5869 14.6155 31.3305 14.6155C30.2236 14.6155 29.1838 14.7351 28.211 14.9744C27.2394 15.2138 26.3048 15.5877 25.4074 16.0962L24.151 14.6155L19.0356 20.718L15.4458 16.4103L8.8945 24.3078C10.6295 24.0685 12.3646 23.8962 14.0996 23.7909C15.8347 23.6868 17.5847 23.6198 19.3497 23.5899C19.0206 24.577 18.8339 25.6091 18.7897 26.686C18.7442 27.7629 18.8411 28.8249 19.0804 29.8719C17.0462 29.9318 15.2143 30.0963 13.5845 30.3655C11.9536 30.6347 10.5248 30.9189 9.29835 31.2181C7.92228 31.5471 6.82321 31.8535 6.00116 32.1371C5.17791 32.4218 4.64662 32.5642 4.40731 32.5642Z" fill="#C23D2C"/>
</svg>
