<svg width="24" height="24" viewBox="0 0 24 24" fill="none" xmlns="http://www.w3.org/2000/svg">
<mask id="mask0_635_1412" style="mask-type:alpha" maskUnits="userSpaceOnUse" x="0" y="0" width="24" height="24">
<rect width="24" height="24" fill="#B2BBC6"/>
</mask>
<g mask="url(#mask0_635_1412)">
<path d="M12 11C14.5 11 16.625 10.6083 18.375 9.825C20.125 9.04167 21 8.1 21 7C21 5.9 20.125 4.95833 18.375 4.175C16.625 3.39167 14.5 3 12 3C9.5 3 7.375 3.39167 5.625 4.175C3.875 4.95833 3 5.9 3 7C3 8.1 3.875 9.04167 5.625 9.825C7.375 10.6083 9.5 11 12 11ZM12 13.5C12.6833 13.5 13.5373 13.429 14.562 13.287C15.5873 13.1457 16.575 12.9167 17.525 12.6C18.475 12.2833 19.2917 11.871 19.975 11.363C20.6583 10.8543 21 10.2333 21 9.5V12C21 12.7333 20.6583 13.3543 19.975 13.863C19.2917 14.371 18.475 14.7833 17.525 15.1C16.575 15.4167 15.5873 15.6457 14.562 15.787C13.5373 15.929 12.6833 16 12 16C11.3167 16 10.4627 15.929 9.438 15.787C8.41267 15.6457 7.425 15.4167 6.475 15.1C5.525 14.7833 4.70833 14.371 4.025 13.863C3.34167 13.3543 3 12.7333 3 12V9.5C3 10.2333 3.34167 10.8543 4.025 11.363C4.70833 11.871 5.525 12.2833 6.475 12.6C7.425 12.9167 8.41267 13.1457 9.438 13.287C10.4627 13.429 11.3167 13.5 12 13.5ZM12 18.5C12.6833 18.5 13.5373 18.4293 14.562 18.288C15.5873 18.146 16.575 17.9167 17.525 17.6C18.475 17.2833 19.2917 16.871 19.975 16.363C20.6583 15.8543 21 15.2333 21 14.5V17C21 17.7333 20.6583 18.3543 19.975 18.863C19.2917 19.371 18.475 19.7833 17.525 20.1C16.575 20.4167 15.5873 20.646 14.562 20.788C13.5373 20.9293 12.6833 21 12 21C11.3167 21 10.4627 20.9293 9.438 20.788C8.41267 20.646 7.425 20.4167 6.475 20.1C5.525 19.7833 4.70833 19.371 4.025 18.863C3.34167 18.3543 3 17.7333 3 17V14.5C3 15.2333 3.34167 15.8543 4.025 16.363C4.70833 16.871 5.525 17.2833 6.475 17.6C7.425 17.9167 8.41267 18.146 9.438 18.288C10.4627 18.4293 11.3167 18.5 12 18.5Z" fill="#C2A950"/>
</g>
</svg>
