<svg width="24" height="24" viewBox="0 0 24 24" fill="none" xmlns="http://www.w3.org/2000/svg">
<mask id="mask0_635_1411" style="mask-type:alpha" maskUnits="userSpaceOnUse" x="0" y="0" width="24" height="24">
<rect width="24" height="24" fill="#B2BBC6"/>
</mask>
<g mask="url(#mask0_635_1411)">
<path d="M19.5 20.5C19.7833 20.5 20.0207 20.404 20.212 20.212C20.404 20.0207 20.5 19.7833 20.5 19.5C20.5 19.2167 20.404 18.9793 20.212 18.788C20.0207 18.596 19.7833 18.5 19.5 18.5C19.2167 18.5 18.9793 18.596 18.788 18.788C18.596 18.9793 18.5 19.2167 18.5 19.5C18.5 19.7833 18.596 20.0207 18.788 20.212C18.9793 20.404 19.2167 20.5 19.5 20.5ZM12 22C10.2833 22 8.68767 21.5917 7.213 20.775C5.73767 19.9583 4.575 18.9 3.725 17.6L8.125 13.2L11.4 16L16 11.425V13H18V8H13V10H14.575L11.3 13.275L8 10.5L2.725 15.775C2.49167 15.225 2.31267 14.604 2.188 13.912C2.06267 13.2207 2 12.5833 2 12C2 10.6167 2.26267 9.31667 2.788 8.1C3.31267 6.88333 4.025 5.825 4.925 4.925C5.825 4.025 6.88333 3.31233 8.1 2.787C9.31667 2.26233 10.6167 2 12 2C13.3833 2 14.6833 2.26233 15.9 2.787C17.1167 3.31233 18.175 4.025 19.075 4.925C19.975 5.825 20.6873 6.88333 21.212 8.1C21.7373 9.31667 22 10.6167 22 12V20C22 20.55 21.8043 21.021 21.413 21.413C21.021 21.8043 20.55 22 20 22H12Z" fill="#C2A950"/>
</g>
</svg>
