<svg width="30" height="24" viewBox="0 0 30 24" fill="none" xmlns="http://www.w3.org/2000/svg">
<path d="M14.6667 16L16.5333 11.8667L20.6667 10L16.5333 8.13333L14.6667 4L12.8 8.13333L8.66667 10L12.8 11.8667L14.6667 16ZM4 20C3.26667 20 2.63911 19.7391 2.11733 19.2173C1.59467 18.6947 1.33333 18.0667 1.33333 17.3333V2.66667C1.33333 1.93333 1.59467 1.30533 2.11733 0.782667C2.63911 0.260889 3.26667 0 4 0H25.3333C26.0667 0 26.6947 0.260889 27.2173 0.782667C27.7391 1.30533 28 1.93333 28 2.66667V17.3333C28 18.0667 27.7391 18.6947 27.2173 19.2173C26.6947 19.7391 26.0667 20 25.3333 20H4ZM1.33333 24C0.955556 24 0.639111 23.872 0.384 23.616C0.128 23.3609 0 23.0444 0 22.6667C0 22.2889 0.128 21.9724 0.384 21.7173C0.639111 21.4613 0.955556 21.3333 1.33333 21.3333H28C28.3778 21.3333 28.6942 21.4613 28.9493 21.7173C29.2053 21.9724 29.3333 22.2889 29.3333 22.6667C29.3333 23.0444 29.2053 23.3609 28.9493 23.616C28.6942 23.872 28.3778 24 28 24H1.33333Z" fill="#B2BBC6"/>
</svg>
