<svg width="24" height="24" viewBox="0 0 24 24" fill="none" xmlns="http://www.w3.org/2000/svg">
<mask id="mask0_635_1413" style="mask-type:alpha" maskUnits="userSpaceOnUse" x="0" y="0" width="24" height="24">
<rect width="24" height="24" fill="#B2BBC6"/>
</mask>
<g mask="url(#mask0_635_1413)">
<path d="M17 22L16.7 20.5C16.5 20.4167 16.3127 20.3293 16.138 20.238C15.9627 20.146 15.7833 20.0333 15.6 19.9L14.15 20.35L13.15 18.65L14.3 17.65C14.2667 17.45 14.25 17.2333 14.25 17C14.25 16.7667 14.2667 16.55 14.3 16.35L13.15 15.35L14.15 13.65L15.6 14.1C15.7833 13.9667 15.9627 13.854 16.138 13.762C16.3127 13.6707 16.5 13.5833 16.7 13.5L17 12H19L19.3 13.5C19.5 13.5833 19.6877 13.6707 19.863 13.762C20.0377 13.854 20.2167 13.9667 20.4 14.1L21.85 13.65L22.85 15.35L21.7 16.35C21.7333 16.55 21.75 16.7667 21.75 17C21.75 17.2333 21.7333 17.45 21.7 17.65L22.85 18.65L21.85 20.35L20.4 19.9C20.2167 20.0333 20.0377 20.146 19.863 20.238C19.6877 20.3293 19.5 20.4167 19.3 20.5L19 22H17ZM18 19C18.55 19 19.021 18.8043 19.413 18.413C19.8043 18.021 20 17.55 20 17C20 16.45 19.8043 15.9793 19.413 15.588C19.021 15.196 18.55 15 18 15C17.45 15 16.979 15.196 16.587 15.588C16.1957 15.9793 16 16.45 16 17C16 17.55 16.1957 18.021 16.587 18.413C16.979 18.8043 17.45 19 18 19ZM4 20C3.45 20 2.97933 19.8043 2.588 19.413C2.196 19.021 2 18.55 2 18V6C2 5.45 2.196 4.97933 2.588 4.588C2.97933 4.196 3.45 4 4 4H10L12 6H20C20.55 6 21.021 6.196 21.413 6.588C21.8043 6.97933 22 7.45 22 8V11.25C21.4167 10.8333 20.7833 10.5207 20.1 10.312C19.4167 10.104 18.7167 10 18 10C16.05 10 14.396 10.679 13.038 12.037C11.6793 13.3957 11 15.05 11 17C11 17.5333 11.0543 18.05 11.163 18.55C11.271 19.05 11.4417 19.5333 11.675 20H4Z" fill="#C2A950"/>
</g>
</svg>
