<svg width="72" height="72" viewBox="0 0 72 72" fill="none" xmlns="http://www.w3.org/2000/svg">
<circle cx="36" cy="36" r="36" fill="#151A20"/>
<path d="M31.8 41.6C29.07 41.6 26.7539 40.6489 24.8518 38.7468C22.9506 36.8456 22 34.53 22 31.8C22 29.07 22.9506 26.7539 24.8518 24.8518C26.7539 22.9506 29.07 22 31.8 22C34.53 22 36.8461 22.9506 38.7482 24.8518C40.6494 26.7539 41.6 29.07 41.6 31.8C41.6 34.53 40.6494 36.8456 38.7482 38.7468C36.8461 40.6489 34.53 41.6 31.8 41.6ZM30.4 47.2V44.33C30.6333 44.3533 30.8667 44.3711 31.1 44.3832C31.3333 44.3944 31.5667 44.4 31.8 44.4C35.3 44.4 38.275 43.175 40.725 40.725C43.175 38.275 44.4 35.3 44.4 31.8C44.4 31.5667 44.3944 31.3333 44.3832 31.1C44.3711 30.8667 44.3533 30.6333 44.33 30.4H47.2C47.97 30.4 48.6294 30.6739 49.1782 31.2218C49.7261 31.7706 50 32.43 50 33.2V47.2C50 47.97 49.7261 48.6294 49.1782 49.1782C48.6294 49.7261 47.97 50 47.2 50H33.2C32.43 50 31.7711 49.7261 31.2232 49.1782C30.6744 48.6294 30.4 47.97 30.4 47.2Z" fill="#C23D2C"/>
</svg>
