<svg width="200" height="63" viewBox="0 0 200 63" fill="none" xmlns="http://www.w3.org/2000/svg">
<g clip-path="url(#clip0_635_1441)">
<path d="M13.9333 39.1937C12.8846 39.7119 11.7298 39.9794 10.56 39.975C8.87189 39.9341 7.26485 39.2429 6.07397 38.0458C4.88308 36.8486 4.20036 35.238 4.1682 33.5497C4.13604 31.8615 4.75701 30.2259 5.90144 28.9843C7.04587 27.7427 8.62532 26.9909 10.3106 26.8857C12.0725 26.8818 13.7742 27.5269 15.0907 28.6977L17.684 25.7297C16.7041 24.7886 15.5413 24.0589 14.2676 23.586C12.994 23.113 11.6367 22.9069 10.28 22.9803C8.91778 22.992 7.57125 23.272 6.31729 23.8044C5.06333 24.3367 3.92649 25.111 2.97192 26.083C2.01734 27.0549 1.26369 28.2054 0.753979 29.4687C0.244269 30.732 -0.0114643 32.0834 0.00137477 33.4457C-0.0209382 34.809 0.22856 36.1631 0.735261 37.429C1.24196 38.6948 1.99569 39.8471 2.95255 40.8185C3.9094 41.7898 5.0501 42.5608 6.30818 43.0865C7.56626 43.6122 8.91652 43.8821 10.28 43.8803C12.9715 43.9993 15.6277 43.2311 17.8401 41.6937V33.5403H13.9346L13.9333 39.1937Z" fill="white"/>
<path d="M37.0812 29.7297C37.0812 25.919 33.9572 23.4189 29.2399 23.4189H22.1172V43.4443H26.0226V36.071H28.8973L32.9893 43.4443H37.5226L32.8678 35.4776C34.0975 35.1044 35.1729 34.3423 35.9326 33.3059C36.6923 32.2695 37.0954 31.0146 37.0812 29.7297ZM29.5532 32.6349H26.0226V26.8563H29.5532C31.6146 26.8563 32.9585 28.0123 32.9585 29.731C32.9572 31.479 31.6159 32.6349 29.5532 32.6349Z" fill="white"/>
<path d="M49.9512 22.9798C47.8816 22.9642 45.8541 23.5635 44.1255 24.7017C42.3969 25.8399 41.045 27.4657 40.2415 29.373C39.4381 31.2803 39.219 33.3833 39.6122 35.4153C40.0053 37.4472 40.993 39.3167 42.4499 40.7868C43.9068 42.2568 45.7674 43.2611 47.7957 43.6724C49.8241 44.0837 51.9288 43.8835 53.8433 43.0971C55.7577 42.3108 57.3957 40.9736 58.5493 39.2553C59.7029 37.5369 60.3203 35.5148 60.3233 33.4451C60.3319 32.0762 60.0701 30.7191 59.5531 29.4516C59.036 28.1841 58.2739 27.0312 57.3102 26.0589C56.3466 25.0866 55.2005 24.3141 53.9377 23.7857C52.6748 23.2573 51.3201 22.9834 49.9512 22.9798ZM49.9512 39.9745C48.642 40.0417 47.3428 39.7147 46.2214 39.0358C45.0999 38.3569 44.2079 37.3572 43.6605 36.166C43.1131 34.9748 42.9356 33.6469 43.1509 32.3537C43.3661 31.0606 43.9643 29.8617 44.868 28.9121C45.7717 27.9624 46.9395 27.3056 48.2204 27.0266C49.5013 26.7475 50.8364 26.859 52.0532 27.3467C53.2701 27.8344 54.3126 28.6758 55.0462 29.7623C55.7799 30.8487 56.1709 32.1302 56.1686 33.4411C56.2084 35.1309 55.576 36.7673 54.4103 37.9913C53.2447 39.2152 51.6408 39.9265 49.9512 39.9691V39.9745Z" fill="white"/>
<path d="M82.8791 38.9137L78.8483 23.4189H73.943L69.943 38.9137L65.543 23.4189H61.2324L67.5737 43.4443H72.291L76.2271 28.2616L80.1631 43.4443H85.0365L91.3778 23.4189H87.2897L82.8791 38.9137Z" fill="white"/>
<path d="M92.5958 27.0736H98.5319V43.443H102.437V27.0736H108.404V23.4189H92.5958V27.0736Z" fill="white"/>
<path d="M124.648 31.3856H115.12V23.4189H111.215V43.4443H115.12V35.0443H124.648V43.4443H128.584V23.4189H124.648V31.3856Z" fill="white"/>
<path d="M142.251 37.4251C140.889 35.4182 139.963 33.1477 139.534 30.7604C139.104 28.3732 139.18 25.9224 139.758 23.5665C139.941 22.7915 140.177 22.0298 140.463 21.2865C140.67 19.4902 141.083 17.7239 141.695 16.0225C139.06 19.4857 137.684 23.7431 137.793 28.0932C137.902 32.4432 139.49 36.6263 142.295 39.9531C142.229 39.1121 142.214 38.2679 142.251 37.4251Z" fill="white"/>
<path d="M179.491 58.4735C178.939 58.6761 178.383 58.8522 177.826 59.0068C176.439 59.8922 174.955 60.6165 173.404 61.1655C175.661 61.1002 177.892 60.6679 180.01 59.8856C182.824 58.8672 185.379 57.2424 187.496 55.1265C189.612 53.0106 191.237 50.4554 192.257 47.6416C191.483 48.3253 190.658 48.9492 189.79 49.5081C187.59 53.6722 183.919 56.8682 179.491 58.4735Z" fill="white"/>
<path d="M199.34 21.8078C198.538 18.5097 196.972 15.4461 194.77 12.8639C192.567 10.2816 189.788 8.25284 186.657 6.94108C184.427 5.99708 182.169 5.10819 179.883 4.27441C180.311 4.60375 180.729 4.94909 181.135 5.31576C181.782 5.89976 182.424 6.4913 183.061 7.09041C184.07 7.49041 185.074 7.90068 186.072 8.32113C188.987 9.54304 191.575 11.4326 193.627 13.8377C195.678 16.2428 197.136 19.0961 197.883 22.1677C198.282 23.769 198.487 25.4123 198.496 27.0624C199.023 29.0868 199.233 31.1804 199.12 33.2691C200.213 29.5365 200.289 25.5796 199.34 21.8078Z" fill="#CC0028"/>
<path d="M181.761 55.8187C183.138 54.416 184.502 52.9849 185.854 51.5254C184.72 52.0143 183.582 52.4938 182.439 52.964C181.859 53.5703 181.276 54.1712 180.69 54.7668C178.81 56.7029 176.56 58.2423 174.074 59.2939C171.588 60.3456 168.917 60.888 166.218 60.8893C164.502 60.8874 162.792 60.6729 161.129 60.2507C158.498 59.5918 156.023 58.4186 153.847 56.7987C152.173 55.9765 150.616 54.9345 149.218 53.7C148.578 53.1357 147.973 52.5332 147.406 51.896C150.386 56.8024 155.188 60.3293 160.761 61.7054C162.548 62.159 164.384 62.3892 166.228 62.3908C170.338 62.3909 174.363 61.2147 177.827 59.0013C179.255 58.093 180.575 57.0253 181.761 55.8187Z" fill="#CC0028"/>
<path d="M140.719 28.4766C141.189 30.9819 141.734 33.5433 142.345 36.158C142.41 35.534 142.502 34.9086 142.625 34.2819C142.758 33.6246 142.891 32.974 143.025 32.3246C142.728 30.9344 142.452 29.5597 142.197 28.2006C141.229 23.0465 142.109 17.7163 144.681 13.1465C147.254 8.57672 151.355 5.05986 156.264 3.21395C158.025 2.09919 159.944 1.25724 161.957 0.716634C162.571 0.551301 163.188 0.41526 163.808 0.308594C158.029 0.36097 152.468 2.52159 148.17 6.38452C143.871 10.2475 141.132 15.5469 140.465 21.2873C140.189 23.6829 140.274 26.1065 140.719 28.4766Z" fill="#CC0028"/>
<path d="M198.497 27.0642C197.73 24.1354 196.325 21.4128 194.381 19.0922C190.855 14.8663 187.075 10.8589 183.062 7.09221C182.424 6.49399 181.781 5.90244 181.135 5.31755C180.735 4.95222 180.311 4.60688 179.883 4.27621C177.626 2.53424 175.03 1.28154 172.262 0.59791C169.494 -0.0857188 166.614 -0.185325 163.805 0.305511C163.183 0.413066 162.565 0.549106 161.954 0.713551C158.634 1.60185 155.59 3.30932 153.101 5.67937C150.612 8.04943 148.758 11.0063 147.709 14.2789C145.825 20.2055 144.261 26.2287 143.022 32.3228C142.889 32.9735 142.755 33.6229 142.622 34.2802C142.499 34.9055 142.407 35.5322 142.342 36.1562C142.297 36.5802 142.266 37.0029 142.247 37.4242C142.209 38.2688 142.224 39.1148 142.29 39.9575C142.638 44.3918 144.434 48.5889 147.401 51.9029C147.968 52.5402 148.573 53.1426 149.213 53.7069C150.611 54.9413 152.168 55.9834 153.842 56.8055C156.625 58.1726 159.685 58.8833 162.786 58.8829C165.019 58.8808 167.237 58.5207 169.357 57.8163C173.719 56.3723 178.102 54.7495 182.434 52.9722C183.576 52.5037 184.715 52.0238 185.849 51.5322C186.163 51.3989 186.479 51.2656 186.794 51.1323C187.833 50.6777 188.834 50.1394 189.786 49.5229C194.238 46.6488 197.395 42.1529 198.586 36.9895C198.874 35.7741 199.052 34.5354 199.119 33.2882C199.234 31.1938 199.024 29.0943 198.497 27.0642ZM197.129 36.6269C196.461 39.5169 195.124 42.2097 193.225 44.4881C191.326 46.7666 188.918 48.567 186.195 49.7442C180.499 52.2349 174.677 54.4682 168.887 56.3842C165.717 57.4378 162.326 57.6423 159.052 56.9773C155.778 56.3123 152.736 54.801 150.228 52.5941C147.72 50.3872 145.834 47.5617 144.758 44.3989C143.682 41.2362 143.453 37.8467 144.095 34.5682C145.388 27.8655 147.071 21.244 149.135 14.7376C150.106 11.7021 151.824 8.95946 154.132 6.76189C156.44 4.56432 159.264 2.98238 162.343 2.16155C165.428 1.3258 168.674 1.27851 171.782 2.02402C174.89 2.76953 177.761 4.28397 180.131 6.42823C184.813 10.6544 189.189 15.2062 193.229 20.0496C195.132 22.3143 196.476 24.9945 197.154 27.8742C197.831 30.7539 197.823 33.7511 197.129 36.6269Z" fill="#BDAB78"/>
<path d="M160.584 22.1624C158.515 22.1468 156.487 22.7462 154.758 23.8843C153.03 25.0225 151.678 26.6483 150.874 28.5556C150.071 30.463 149.852 32.5659 150.245 34.5979C150.638 36.6299 151.626 38.4994 153.083 39.9694C154.54 41.4394 156.4 42.4437 158.429 42.855C160.457 43.2663 162.562 43.0661 164.476 42.2798C166.391 41.4934 168.028 40.1563 169.182 38.438C170.336 36.7196 170.953 34.6974 170.956 32.6277C170.965 31.2589 170.703 29.9018 170.186 28.6342C169.669 27.3667 168.907 26.2138 167.943 25.2415C166.98 24.2692 165.833 23.4967 164.57 22.9683C163.308 22.4399 161.953 22.1661 160.584 22.1624ZM160.584 39.1571C159.275 39.2243 157.976 38.8973 156.854 38.2184C155.733 37.5395 154.841 36.5399 154.293 35.3487C153.746 34.1575 153.568 32.8295 153.784 31.5363C153.999 30.2432 154.597 29.0443 155.501 28.0947C156.404 27.145 157.572 26.4882 158.853 26.2092C160.134 25.9302 161.469 26.0417 162.686 26.5294C163.903 27.0171 164.946 27.8585 165.679 28.945C166.413 30.0314 166.804 31.3128 166.802 32.6238C166.823 33.4614 166.679 34.2952 166.378 35.0772C166.077 35.8592 165.625 36.5743 165.047 37.1816C164.47 37.7889 163.779 38.2766 163.013 38.6167C162.247 38.9568 161.422 39.1427 160.584 39.1638V39.1571Z" fill="white"/>
<path d="M177.642 27.8544C177.642 26.6677 178.735 25.8544 180.61 25.8544C181.52 25.8523 182.418 26.063 183.231 26.4698C184.045 26.8766 184.753 27.468 185.297 28.197L187.983 25.541C187.139 24.441 186.043 23.5603 184.787 22.9732C183.531 22.3861 182.151 22.1098 180.766 22.1677C176.486 22.1677 173.457 24.5677 173.457 27.9783C173.457 34.945 183.99 33.1957 183.99 37.0691C183.99 38.5064 182.771 39.381 180.585 39.381C179.597 39.4062 178.618 39.1922 177.732 38.7571C176.845 38.322 176.077 37.6788 175.493 36.8824L172.713 39.4757C174.025 41.4437 176.43 43.0691 180.522 43.0691C185.114 43.0691 188.175 40.4757 188.175 36.8517C188.17 29.8224 177.642 31.4157 177.642 27.8544Z" fill="white"/>
<path d="M2.06201 9.89193H5.62467C7.29134 9.89193 10.0247 9.89192 10.0247 6.88525C10.0247 3.87859 7.28867 3.86523 5.62467 3.86523H0.136719V13.7119H2.05941L2.06201 9.89193ZM2.06201 5.51725H6.04476C7.14209 5.51725 8.10335 5.61191 8.10335 6.87191C8.10335 8.13191 7.14209 8.23991 6.04476 8.23991H2.06201V5.51725Z" fill="white"/>
<path d="M22.152 3.86426H20.228V9.34953C20.228 10.9749 19.6454 12.3029 16.9227 12.3029C14.2 12.3029 13.6174 10.9695 13.6174 9.34953V3.86426H11.6934V9.48551C11.6934 12.6548 13.7119 13.9549 16.9212 13.9549C20.1306 13.9549 22.1493 12.6548 22.1493 9.48551L22.152 3.86426Z" fill="white"/>
<path d="M34.9246 10.8535C34.9323 10.3462 34.7931 9.84753 34.5239 9.41748C34.2547 8.98743 33.8669 8.64434 33.4072 8.42952C33.7748 8.23572 34.0782 7.93919 34.2801 7.57601C34.4821 7.21283 34.5739 6.79871 34.5446 6.3842C34.5446 4.51753 33.0006 3.86426 30.6779 3.86426H24.75V13.7109H31.0487C33.4487 13.7122 34.9246 12.7095 34.9246 10.8535ZM26.6753 5.46289H30.8086C32.0686 5.46289 32.6234 5.77486 32.6234 6.61353C32.6234 7.45219 32.0673 7.7509 30.8086 7.7509H26.6753V5.46289ZM26.6753 12.1135V9.35091H30.8607C32.1607 9.35091 33.0007 9.67623 33.0007 10.7056C33.0007 11.8709 32.0793 12.1135 30.8607 12.1135H26.6753Z" fill="white"/>
<path d="M46.1296 12.0055H38.9924V3.86426H37.0684V13.7109H46.1349L46.1296 12.0055Z" fill="white"/>
<path d="M49.9227 3.86426H48V13.7109H49.9227V3.86426Z" fill="white"/>
<path d="M57.4937 13.9552C62.0177 13.9552 62.803 11.3005 62.9924 10.2031H61.0684C60.81 10.883 60.3335 11.4579 59.7134 11.8379C59.0933 12.2179 58.3646 12.3816 57.6416 12.3031C57.1612 12.3563 56.6751 12.3058 56.2158 12.1552C55.7566 12.0045 55.3349 11.7572 54.9793 11.4298C54.6238 11.1025 54.3424 10.7026 54.1545 10.2573C53.9665 9.81203 53.8762 9.33162 53.8897 8.84847C53.8897 6.80314 55.027 5.27246 57.7564 5.27246C58.3993 5.19616 59.05 5.32208 59.618 5.63273C60.186 5.94338 60.643 6.42331 60.9256 7.00578H62.8496C62.7003 6.47244 62.0498 3.61914 57.6498 3.61914C53.7351 3.61914 51.9336 5.7591 51.9336 8.6311C51.9269 12.2218 54.379 13.9552 57.4937 13.9552Z" fill="white"/>
<path d="M67.0047 3.86426H65.082V13.7109H67.0047V3.86426Z" fill="white"/>
<path d="M74.5771 12.3025C71.9758 12.3025 71.2439 11.2598 70.8932 10.5412L69.0371 11.1238C69.2678 11.8691 70.2971 13.9545 74.5225 13.9545C77.1505 13.9545 79.3719 13.0878 79.3719 10.7545C79.3719 9.10248 78.0719 8.24915 75.8639 7.91048L73.5345 7.55851C71.5705 7.31451 71.3265 6.86784 71.3265 6.44784C71.3265 5.53984 72.6399 5.21582 73.9412 5.21582C76.2839 5.21582 77.0839 5.97449 77.3945 6.85449L79.2091 6.25846C78.9651 5.58113 78.2345 3.61719 73.9945 3.61719C73.2358 3.61719 69.4025 3.61714 69.4025 6.57048C69.4025 8.07448 70.6758 9.06244 72.9518 9.37044L75.3092 9.6958C76.7172 9.8718 77.4425 10.2918 77.4425 10.9278C77.4492 11.7878 76.1491 12.3025 74.5771 12.3025Z" fill="white"/>
</g>
<defs>
<clipPath id="clip0_635_1441">
<rect width="200" height="62.392" fill="white"/>
</clipPath>
</defs>
</svg>
