<svg width="72" height="72" viewBox="0 0 72 72" fill="none" xmlns="http://www.w3.org/2000/svg">
<circle cx="36" cy="36" r="36" fill="#151A20"/>
<path d="M29.25 42.75H35.25V36.75H29.25V42.75ZM29.25 35.25H35.25V29.25H29.25V35.25ZM36.75 42.75H42.75V36.75H36.75V42.75ZM36.75 35.25H42.75V29.25H36.75V35.25ZM24 48C23.175 48 22.469 47.7065 21.882 47.1195C21.294 46.5315 21 45.825 21 45V27C21 26.175 21.294 25.469 21.882 24.882C22.469 24.294 23.175 24 24 24H48C48.825 24 49.5315 24.294 50.1195 24.882C50.7065 25.469 51 26.175 51 27V45C51 45.825 50.7065 46.5315 50.1195 47.1195C49.5315 47.7065 48.825 48 48 48H24Z" fill="#C23D2C"/>
</svg>
