<svg width="24" height="24" viewBox="0 0 24 24" fill="none" xmlns="http://www.w3.org/2000/svg">
<path d="M1 20V16C1 15.4333 1.196 14.9583 1.588 14.575C1.97933 14.1917 2.45 14 3 14H6.275C6.60833 14 6.925 14.0833 7.225 14.25C7.525 14.4167 7.76667 14.6417 7.95 14.925C8.43333 15.575 9.02933 16.0833 9.738 16.45C10.446 16.8167 11.2 17 12 17C12.8167 17 13.5793 16.8167 14.288 16.45C14.996 16.0833 15.5833 15.575 16.05 14.925C16.2667 14.6417 16.5207 14.4167 16.812 14.25C17.104 14.0833 17.4083 14 17.725 14H21C21.5667 14 22.0417 14.1917 22.425 14.575C22.8083 14.9583 23 15.4333 23 16V20H16V17.725C15.4167 18.1417 14.7877 18.4583 14.113 18.675C13.4377 18.8917 12.7333 19 12 19C11.2833 19 10.5833 18.8877 9.9 18.663C9.21667 18.4377 8.58333 18.1167 8 17.7V20H1ZM12 16C11.3667 16 10.7667 15.854 10.2 15.562C9.63333 15.2707 9.15833 14.8667 8.775 14.35C8.49167 13.9333 8.13767 13.6043 7.713 13.363C7.28767 13.121 6.825 13 6.325 13C6.69167 12.3833 7.46667 11.8957 8.65 11.537C9.83333 11.179 10.95 11 12 11C13.05 11 14.1667 11.179 15.35 11.537C16.5333 11.8957 17.3083 12.3833 17.675 13C17.1917 13 16.7333 13.121 16.3 13.363C15.8667 13.6043 15.5083 13.9333 15.225 14.35C14.8583 14.8833 14.3917 15.2917 13.825 15.575C13.2583 15.8583 12.65 16 12 16ZM4 13C3.16667 13 2.45833 12.7083 1.875 12.125C1.29167 11.5417 1 10.8333 1 10C1 9.15 1.29167 8.43733 1.875 7.862C2.45833 7.28733 3.16667 7 4 7C4.85 7 5.56267 7.28733 6.138 7.862C6.71267 8.43733 7 9.15 7 10C7 10.8333 6.71267 11.5417 6.138 12.125C5.56267 12.7083 4.85 13 4 13ZM20 13C19.1667 13 18.4583 12.7083 17.875 12.125C17.2917 11.5417 17 10.8333 17 10C17 9.15 17.2917 8.43733 17.875 7.862C18.4583 7.28733 19.1667 7 20 7C20.85 7 21.5627 7.28733 22.138 7.862C22.7127 8.43733 23 9.15 23 10C23 10.8333 22.7127 11.5417 22.138 12.125C21.5627 12.7083 20.85 13 20 13ZM12 10C11.1667 10 10.4583 9.70833 9.875 9.125C9.29167 8.54167 9 7.83333 9 7C9 6.15 9.29167 5.43733 9.875 4.862C10.4583 4.28733 11.1667 4 12 4C12.85 4 13.5623 4.28733 14.137 4.862C14.7123 5.43733 15 6.15 15 7C15 7.83333 14.7123 8.54167 14.137 9.125C13.5623 9.70833 12.85 10 12 10Z" fill="#7AAC47"/>
</svg>
