<svg width="24" height="24" viewBox="0 0 24 24" fill="none" xmlns="http://www.w3.org/2000/svg">
<path d="M12 14C12.55 14 13.021 13.804 13.413 13.412C13.8043 13.0207 14 12.55 14 12C14 11.45 13.8043 10.979 13.413 10.587C13.021 10.1957 12.55 10 12 10C11.45 10 10.9793 10.1957 10.588 10.587C10.196 10.979 10 11.45 10 12C10 12.55 10.196 13.0207 10.588 13.412C10.9793 13.804 11.45 14 12 14ZM12 19.9C12.6833 19.7167 13.3627 19.379 14.038 18.887C14.7127 18.3957 15.3 17.85 15.8 17.25L14 15.45C13.7 15.6333 13.3793 15.771 13.038 15.863C12.696 15.9543 12.35 16 12 16C10.9 16 9.95833 15.6083 9.175 14.825C8.39167 14.0417 8 13.1 8 12C8 10.9 8.39167 9.95833 9.175 9.175C9.95833 8.39167 10.9 8 12 8C13.1 8 14.0417 8.39167 14.825 9.175C15.6083 9.95833 16 10.9 16 12C16 12.3667 15.9543 12.7207 15.863 13.062C15.771 13.404 15.6333 13.7333 15.45 14.05L16.95 15.55C17.2833 14.8667 17.5417 14.15 17.725 13.4C17.9083 12.65 18 11.8833 18 11.1V6.375L12 4.125L6 6.375V11.1C6 13.1167 6.56667 14.95 7.7 16.6C8.83333 18.25 10.2667 19.35 12 19.9ZM12 22C9.68333 21.4167 7.771 20.0873 6.263 18.012C4.75433 15.9373 4 13.6333 4 11.1V5L12 2L20 5V11.1C20 13.6333 19.246 15.9373 17.738 18.012C16.2293 20.0873 14.3167 21.4167 12 22Z" fill="#D6DFF0"/>
</svg>
