<svg width="25" height="25" viewBox="0 0 25 25" fill="none" xmlns="http://www.w3.org/2000/svg">
<path d="M14.9 11.3C14.75 10.9167 14.5293 10.575 14.238 10.275C13.946 9.975 13.6083 9.75833 13.225 9.625V3C15.4417 3.21667 17.3293 4.1 18.888 5.65C20.446 7.2 21.3333 9.08333 21.55 11.3H14.9ZM11.375 21.5C8.99167 21.25 7 20.246 5.4 18.488C3.8 16.7293 3 14.65 3 12.25C3 9.85 3.8 7.76667 5.4 6C7 4.23333 8.99167 3.23333 11.375 3V9.6C10.8083 9.81667 10.3583 10.1667 10.025 10.65C9.69167 11.1333 9.525 11.6667 9.525 12.25C9.525 12.8333 9.69567 13.3623 10.037 13.837C10.379 14.3123 10.825 14.65 11.375 14.85V21.5ZM13.225 21.5V14.825C13.6083 14.6917 13.946 14.4793 14.238 14.188C14.5293 13.896 14.75 13.5583 14.9 13.175H21.55C21.3333 15.3917 20.446 17.279 18.888 18.837C17.3293 20.3957 15.4417 21.2833 13.225 21.5Z" fill="#D6DFF0"/>
</svg>
