<svg width="11" height="10" viewBox="0 0 11 10" fill="none" xmlns="http://www.w3.org/2000/svg">
<path d="M9.85417 10C8.65972 10 7.49537 9.7338 6.36111 9.20139C5.22685 8.66898 4.22222 7.96528 3.34722 7.09028C2.47222 6.21528 1.76852 5.21065 1.23611 4.07639C0.703704 2.94213 0.4375 1.77778 0.4375 0.583333C0.4375 0.416667 0.493056 0.277778 0.604167 0.166667C0.715278 0.0555556 0.854167 0 1.02083 0H3.27083C3.40046 0 3.5162 0.0416667 3.61806 0.125C3.71991 0.208333 3.78009 0.314815 3.79861 0.444444L4.15972 2.38889C4.17824 2.51852 4.17593 2.63657 4.15278 2.74306C4.12963 2.84954 4.07639 2.94444 3.99306 3.02778L2.65972 4.38889C3.04861 5.05556 3.53472 5.68056 4.11806 6.26389C4.70139 6.84722 5.34491 7.35185 6.04861 7.77778L7.35417 6.47222C7.4375 6.38889 7.5463 6.32639 7.68056 6.28472C7.81482 6.24306 7.94676 6.23148 8.07639 6.25L9.99306 6.63889C10.1227 6.66667 10.2292 6.72917 10.3125 6.82639C10.3958 6.92361 10.4375 7.03704 10.4375 7.16667V9.41667C10.4375 9.58333 10.3819 9.72222 10.2708 9.83333C10.1597 9.94444 10.0208 10 9.85417 10Z" fill="#B2BBC6"/>
</svg>
