<svg width="25" height="24" viewBox="0 0 25 24" fill="none" xmlns="http://www.w3.org/2000/svg">
<mask id="mask0_647_1077" style="mask-type:alpha" maskUnits="userSpaceOnUse" x="4" y="4" width="17" height="16">
<rect x="4.9375" y="4.5" width="15" height="15" fill="#D9D9D9" stroke="#EC7A7D"/>
</mask>
<g mask="url(#mask0_647_1077)">
<path d="M10.9234 14.6134L10.9437 14.6054L10.7093 14.0068L10.9234 14.6134ZM10.9234 14.6134H10.9553M10.9234 14.6134H10.9553M10.9553 14.6134H11.5619C11.8069 14.6134 12.0142 14.7075 12.1846 14.8966C12.355 15.0857 12.4403 15.3141 12.4403 15.5823C12.4403 15.8527 12.3524 16.0815 12.1766 16.2695C12.0008 16.4576 11.7873 16.5513 11.5354 16.5513H9.15004C8.67927 16.5513 8.27853 16.3743 7.94714 16.0198C7.61572 15.6653 7.45 15.2361 7.45 14.7317C7.45 14.2178 7.61576 13.7864 7.94708 13.4366C8.27846 13.0868 8.67922 12.9122 9.15004 12.9122C9.48995 12.9122 9.80144 13.0106 10.0848 13.2076M10.9553 14.6134L10.0848 13.2076M10.0848 13.2076C10.3681 13.4046 10.5762 13.6709 10.7093 14.0067L10.0848 13.2076ZM8.99579 8.85648C9.58372 7.98061 10.3578 7.36793 11.3183 7.01809C11.284 7.89774 11.4112 8.74392 11.6999 9.55654C11.9907 10.3749 12.4299 11.0985 13.0176 11.7272C13.6052 12.3559 14.2817 12.8258 15.047 13.137C15.8067 13.4459 16.5978 13.582 17.4203 13.5455C17.102 14.572 16.5378 15.3959 15.7275 16.0179C14.9202 16.6376 14.0177 16.9605 13.0196 16.9868C13.1789 16.7963 13.3023 16.5831 13.3896 16.3473C13.4802 16.1027 13.5254 15.8477 13.5254 15.5823C13.5254 15.0095 13.3452 14.5185 12.9846 14.1101C12.6258 13.7037 12.1884 13.4918 11.6731 13.4752C11.4439 12.9524 11.1028 12.5349 10.65 12.2231C10.195 11.9098 9.69492 11.753 9.15004 11.753C8.96836 11.753 8.78821 11.7728 8.60963 11.8122C8.43717 11.8503 8.26809 11.9068 8.1024 11.9817L8.1024 11.8267C8.1024 11.8267 8.1024 11.8266 8.1024 11.8266C8.10646 10.7276 8.40428 9.73766 8.99579 8.85648Z" fill="#EC7A7D" stroke="#EC7A7D" stroke-width="0.025"/>
</g>
<circle cx="12.4375" cy="12" r="11.5" stroke="#EC7A7D"/>
<rect x="0.9375" y="0.5" width="23" height="23" stroke="black"/>
</svg>
