<svg width="11" height="10" viewBox="0 0 11 10" fill="none" xmlns="http://www.w3.org/2000/svg">
<path d="M3.92342 7.61337L3.9437 7.60543L3.70927 7.00678L3.92342 7.61337ZM3.92342 7.61337H3.95534M3.92342 7.61337H3.95534M3.95534 7.61337H4.56186C4.8069 7.61337 5.01424 7.70754 5.18458 7.89659C5.35501 8.08574 5.44029 8.31408 5.44029 8.58233C5.44029 8.85269 5.35236 9.08151 5.17658 9.26955C5.00084 9.45755 4.78734 9.5513 4.53536 9.5513H2.15004C1.67927 9.5513 1.27853 9.37434 0.947138 9.01982C0.615722 8.66527 0.45 8.23615 0.45 7.73174C0.45 7.2178 0.615763 6.78638 0.947081 6.43662C1.27846 6.08681 1.67922 5.91217 2.15004 5.91217C2.48995 5.91217 2.80144 6.0106 3.0848 6.20764M3.95534 7.61337L3.0848 6.20764M3.0848 6.20764C3.3681 6.40464 3.57624 6.67088 3.70925 7.00673L3.0848 6.20764ZM1.99579 1.85648C2.58372 0.980607 3.35781 0.367932 4.31826 0.0180886C4.28403 0.897741 4.41124 1.74392 4.69993 2.55654C4.99068 3.37493 5.42991 4.09851 6.01757 4.72718C6.60522 5.35586 7.2817 5.82584 8.04696 6.13699C8.80668 6.44588 9.59785 6.58204 10.4203 6.54547C10.102 7.57195 9.53776 8.39594 8.72754 9.01789C7.92025 9.6376 7.0177 9.96051 6.01955 9.98685C6.17895 9.79625 6.3023 9.58305 6.38959 9.34731C6.48016 9.10271 6.52543 8.84769 6.52543 8.58233C6.52543 8.00949 6.34519 7.51849 5.98459 7.11005C5.62579 6.70365 5.18843 6.49178 4.6731 6.47521C4.44389 5.95238 4.10284 5.5349 3.64999 5.22307C3.195 4.90977 2.69492 4.75304 2.15004 4.75304C1.96836 4.75304 1.78821 4.77277 1.60963 4.81222C1.43717 4.85032 1.26809 4.90681 1.1024 4.98166L1.1024 4.82666C1.1024 4.82665 1.1024 4.82665 1.1024 4.82664C1.10646 3.7276 1.40428 2.73766 1.99579 1.85648Z" fill="#EC7A7D" stroke="#EC7A7D" stroke-width="0.025"/>
</svg>
