<svg width="115" height="28" viewBox="0 0 115 28" fill="none" xmlns="http://www.w3.org/2000/svg">
<path fill-rule="evenodd" clip-rule="evenodd" d="M9 19.9216H14.0923H15.449L16.2285 19.2093L19.7446 15.9976L22.4292 19.9216H28.63L23.5782 12.4714H23.607L28.3644 8.02493H23.8322C23.8322 11.0507 23.4722 11.3768 21.0103 13.6069L21.0101 13.6071L21.0101 13.6071C20.772 13.8228 20.5143 14.0562 20.2353 14.3117L17.6545 16.6863C17.3717 16.9448 17.028 17.1229 16.6575 17.2027C16.2871 17.2826 15.9028 17.2615 15.5427 17.1414C15.1827 17.0214 14.8594 16.8067 14.605 16.5186C14.3506 16.2305 14.1738 15.879 14.0923 15.499V15.4693V15.4337V15.398V15.3209C14.095 15.3092 14.095 15.297 14.0923 15.2852V15.2021V15.1606V15.119V15.0419V4H9V19.9216ZM65.9906 10.9219C66.3017 11.0587 66.5763 11.2703 66.7913 11.5389C67.0063 11.8075 67.1554 12.1252 67.2261 12.4654V12.501V12.5426V12.5782C67.2234 12.6058 67.2234 12.6337 67.2261 12.6613V12.7029V12.786V12.8275V12.8632C67.2292 12.8908 67.2292 12.9187 67.2261 12.9463V19.9216H72.3184V12.127C72.3112 11.2755 72.0673 10.4439 71.6154 9.73026C71.1635 9.01662 70.5226 8.45076 69.7682 8.09942C69.0138 7.74808 68.1774 7.62592 67.3577 7.74736C66.538 7.8688 65.7691 8.22877 65.1419 8.7848L57.7575 15.5286V4H52.6653V19.9216H54.2068L54.9516 19.2449L57.7575 16.6803L63.6581 11.29C63.9655 11.0026 64.3484 10.8144 64.759 10.749C65.1696 10.6836 65.5899 10.7437 65.9675 10.9219H65.9906ZM73.9295 4.00002H79.0218V6.18464H73.9295V4.00002ZM73.9295 19.9217H79.0218V8.0487H73.9295V19.9217ZM100.447 4.00002H95.3551V6.18464H100.447V4.00002ZM100.447 19.9217H95.3551V8.0487H100.447V19.9217ZM101.908 4.00002H107V6.18464H101.908V4.00002ZM101.908 11.3197V20.2778C101.907 21.0845 101.594 21.8576 101.039 22.4274C100.483 22.9973 99.7308 23.3173 98.9463 23.3173H97.018V24H103.808C104.654 23.9969 105.466 23.6492 106.064 23.0329C106.662 22.4167 106.999 21.5819 107 20.7112V8.07244H101.908V11.3197ZM43.9356 13.6587H38.2198C34.5651 13.6587 34.5651 8.75521 38.2198 8.75521H50.3788V8.07251H33.3642C30.1195 8.07251 28.9359 12.4655 31.9497 14.009C32.4063 14.244 32.9114 14.3621 33.422 14.3533H43.0984C46.7531 14.3533 46.7531 19.2568 43.0984 19.2568H30.9393V19.9336H47.9597C48.6592 19.9628 49.3469 19.7422 49.9061 19.3092C50.4653 18.8762 50.8616 18.2576 51.0275 17.5583C51.1934 16.859 51.1189 16.1223 50.8164 15.4731C50.514 14.8239 50.0024 14.3024 49.3685 13.9971C48.9114 13.7639 48.4063 13.6478 47.8962 13.6587H43.9356ZM86.542 18.3512C85.9869 17.7804 85.6744 17.0067 85.6728 16.1995L85.6844 16.1935V11.7887C85.6874 10.9825 86.0006 10.2103 86.5556 9.64081C87.1105 9.0713 87.8621 8.75076 88.6462 8.7492H93.8077V8.07244H85.6844V4.00002H80.5921V16.6388C80.5936 17.5079 80.9297 18.3412 81.5269 18.9563C82.1241 19.5714 82.9338 19.9185 83.7791 19.9217H93.7962V19.2449H88.6347C87.8496 19.2433 87.0971 18.922 86.542 18.3512Z" fill="white"/>
</svg>
