<svg width="56" height="56" viewBox="0 0 56 56" fill="none" xmlns="http://www.w3.org/2000/svg">
<mask id="mask0_635_3452" style="mask-type:alpha" maskUnits="userSpaceOnUse" x="0" y="0" width="56" height="56">
<rect width="56" height="56" fill="#D9D9D9"/>
</mask>
<g mask="url(#mask0_635_3452)">
<path d="M10.7692 46.6663C9.69529 46.6663 8.79861 46.3066 8.07917 45.5872C7.35972 44.8677 7 43.9711 7 42.8971V20.1022C7 19.0283 7.35972 18.1316 8.07917 17.4122C8.79861 16.6927 9.69529 16.333 10.7692 16.333H21V13.1022C21 12.0283 21.3597 11.1316 22.0792 10.4122C22.7986 9.69273 23.6953 9.33301 24.7692 9.33301H31.2308C32.3047 9.33301 33.2014 9.69273 33.9208 10.4122C34.6403 11.1316 35 12.0283 35 13.1022V16.333H45.2308C46.3047 16.333 47.2014 16.6927 47.9208 17.4122C48.6403 18.1316 49 19.0283 49 20.1022V42.8971C49 43.9711 48.6403 44.8677 47.9208 45.5872C47.2014 46.3066 46.3047 46.6663 45.2308 46.6663H10.7692ZM23.3333 16.333H32.6667V13.1022C32.6667 12.7432 32.5171 12.4142 32.218 12.115C31.9188 11.8159 31.5897 11.6663 31.2308 11.6663H24.7692C24.4103 11.6663 24.0812 11.8159 23.782 12.115C23.4829 12.4142 23.3333 12.7432 23.3333 13.1022V16.333ZM46.6667 33.833H32.6667V37.333H23.3333V33.833H9.33333V42.8971C9.33333 43.2561 9.4829 43.5851 9.78203 43.8843C10.0812 44.1834 10.4103 44.333 10.7692 44.333H45.2308C45.5897 44.333 45.9188 44.1834 46.218 43.8843C46.5171 43.5851 46.6667 43.2561 46.6667 42.8971V33.833ZM25.6667 34.9997H30.3333V30.333H25.6667V34.9997ZM9.33333 31.4997H23.3333V27.9997H32.6667V31.4997H46.6667V20.1022C46.6667 19.7433 46.5171 19.4142 46.218 19.115C45.9188 18.8159 45.5897 18.6663 45.2308 18.6663H10.7692C10.4103 18.6663 10.0812 18.8159 9.78203 19.115C9.4829 19.4142 9.33333 19.7433 9.33333 20.1022V31.4997Z" fill="#CE6730"/>
</g>
</svg>
