<svg width="56" height="56" viewBox="0 0 56 56" fill="none" xmlns="http://www.w3.org/2000/svg">
<mask id="mask0_635_3619" style="mask-type:alpha" maskUnits="userSpaceOnUse" x="0" y="0" width="56" height="56">
<rect width="56" height="56" fill="#D9D9D9"/>
</mask>
<g mask="url(#mask0_635_3619)">
<path d="M15.1667 31.5H31.5V29.1667H15.1667V31.5ZM15.1667 24.5H40.8333V22.1667H15.1667V24.5ZM15.1667 17.5H40.8333V15.1667H15.1667V17.5ZM7 46.8462V10.7692C7 9.69529 7.35972 8.79861 8.07917 8.07917C8.79861 7.35972 9.69529 7 10.7692 7H45.2308C46.3047 7 47.2014 7.35972 47.9208 8.07917C48.6403 8.79861 49 9.69529 49 10.7692V35.8975C49 36.9714 48.6403 37.8681 47.9208 38.5875C47.2014 39.3069 46.3047 39.6667 45.2308 39.6667H14.1795L7 46.8462ZM9.33333 41.1968L13.1968 37.3333H45.2308C45.6496 37.3333 45.9936 37.1987 46.2628 36.9295C46.5321 36.6603 46.6667 36.3163 46.6667 35.8975V10.7692C46.6667 10.3504 46.5321 10.0064 46.2628 9.73717C45.9936 9.46795 45.6496 9.33333 45.2308 9.33333H10.7692C10.3504 9.33333 10.0064 9.46795 9.73717 9.73717C9.46795 10.0064 9.33333 10.3504 9.33333 10.7692V41.1968ZM9.33333 10.7692V9.33333V41.1968V10.7692Z" fill="#CE6730"/>
</g>
</svg>
