<svg width="56" height="56" viewBox="0 0 56 56" fill="none" xmlns="http://www.w3.org/2000/svg">
<mask id="mask0_635_3528" style="mask-type:alpha" maskUnits="userSpaceOnUse" x="0" y="0" width="56" height="56">
<rect width="56" height="56" transform="matrix(-1 0 0 1 56 0)" fill="#D9D9D9"/>
</mask>
<g mask="url(#mask0_635_3528)">
<path d="M27.4474 34.2058C25.2936 34.2058 23.4359 33.5103 21.8744 32.1193C20.3128 30.7282 19.532 29.0276 19.532 27.0173C19.532 25.3092 20.0698 23.8516 21.1452 22.6445C22.2206 21.4375 23.56 20.834 25.1635 20.834C26.5126 20.834 27.677 21.2752 28.6567 22.1577C29.6364 23.0402 30.1263 24.1126 30.1263 25.375C30.1263 25.9344 30.0104 26.4744 29.7785 26.9949C29.5467 27.5154 29.2184 28.0075 28.7936 28.4712L26.9942 26.8513C27.2604 26.6539 27.4601 26.437 27.5932 26.2006C27.7264 25.9643 27.7929 25.7085 27.7929 25.4333C27.7929 24.8859 27.5656 24.3811 27.1109 23.9189C26.6562 23.4567 26.0071 23.2256 25.1635 23.2256C24.266 23.2256 23.4898 23.5764 22.8346 24.2779C22.1795 24.9794 21.8519 25.912 21.8519 27.0756C21.8519 28.371 22.3702 29.4965 23.4067 30.4522C24.4433 31.408 25.7707 31.8859 27.3891 31.8859C29.2468 31.8859 30.845 31.147 32.1837 29.6692C33.5223 28.1914 34.1917 26.3382 34.1917 24.1096C34.1917 22.9819 33.9703 21.8952 33.5275 20.8497C33.0848 19.8041 32.4447 18.8626 31.607 18.025L33.3167 16.3602C34.3517 17.3863 35.1549 18.562 35.7263 19.8872C36.2977 21.2124 36.5833 22.6004 36.5833 24.0513C36.5833 26.8453 35.7038 29.2362 33.9449 31.224C32.1859 33.2119 30.0201 34.2058 27.4474 34.2058ZM39.666 49V40.2231C41.8827 38.2009 43.6035 35.9281 44.8285 33.4048C46.0535 30.8815 46.666 28.2872 46.666 25.6218C46.666 20.4466 44.8487 16.0492 41.2141 12.4295C37.5795 8.80983 33.1746 7 27.9994 7C23.7964 7 19.998 8.27958 16.6042 10.8387C13.2103 13.3979 11.0094 16.7028 10.0012 20.7532L7.5961 30.3333C7.4316 30.9227 7.53781 31.4589 7.91472 31.942C8.29163 32.4251 8.79419 32.6667 9.4224 32.6667H13.9994V40.5641C13.9994 41.6081 14.3665 42.4973 15.1009 43.2318C15.8353 43.9661 16.7245 44.3333 17.7686 44.3333H23.3327V49H25.666V42H17.7686C17.3498 42 17.0058 41.8654 16.7365 41.5962C16.4673 41.3269 16.3327 40.9829 16.3327 40.5641V30.3333H10.0327L12.2494 21.2917C13.1438 17.7229 15.0643 14.8376 18.0109 12.6359C20.9574 10.4342 24.2869 9.33333 27.9994 9.33333C32.5105 9.33333 36.3605 10.9158 39.5493 14.0808C42.7382 17.2457 44.3327 21.0837 44.3327 25.5949C44.3327 27.9282 43.8563 30.1374 42.9035 32.2225C41.9507 34.3075 40.5993 36.1667 38.8493 37.8L37.3327 39.2V49H39.666Z" fill="#CE6730"/>
</g>
</svg>
