<svg width="42" height="38" viewBox="0 0 42 38" fill="none" xmlns="http://www.w3.org/2000/svg">
<path d="M3.76921 37.6663C2.69529 37.6663 1.79861 37.3066 1.07917 36.5872C0.359722 35.8677 0 34.9711 0 33.8971V4.10222C0 3.0283 0.359722 2.13162 1.07917 1.41217C1.79861 0.69273 2.69529 0.333008 3.76921 0.333008H38.2308C39.3047 0.333008 40.2014 0.69273 40.9208 1.41217C41.6403 2.13162 42 3.0283 42 4.10222V33.8971C42 34.9711 41.6403 35.8677 40.9208 36.5872C40.2014 37.3066 39.3047 37.6663 38.2308 37.6663H3.76921ZM3.76921 35.333H38.2308C38.5897 35.333 38.9188 35.1834 39.218 34.8843C39.5171 34.5851 39.6667 34.2561 39.6667 33.8971V4.10222C39.6667 3.74327 39.5171 3.41421 39.218 3.11504C38.9188 2.81591 38.5897 2.66634 38.2308 2.66634H3.76921C3.41026 2.66634 3.08121 2.81591 2.78203 3.11504C2.4829 3.41421 2.33333 3.74327 2.33333 4.10222V33.8971C2.33333 34.2561 2.4829 34.5851 2.78203 34.8843C3.08121 35.1834 3.41026 35.333 3.76921 35.333ZM5.83333 29.4997H15.1667V27.1663H5.83333V29.4997ZM26.95 24.3394L36.8398 14.4497L35.175 12.7849L26.95 21.0682L23.625 17.7432L22.0186 19.408L26.95 24.3394ZM5.83333 20.1663H15.1667V17.833H5.83333V20.1663ZM5.83333 10.833H15.1667V8.49967H5.83333V10.833Z" fill="#CE6730"/>
</svg>
