<svg width="56" height="56" viewBox="0 0 56 56" fill="none" xmlns="http://www.w3.org/2000/svg">
<mask id="mask0_635_3549" style="mask-type:alpha" maskUnits="userSpaceOnUse" x="0" y="0" width="56" height="56">
<rect width="56" height="56" fill="#D9D9D9"/>
</mask>
<g mask="url(#mask0_635_3549)">
<path d="M28.0005 46.6662C30.1633 46.6662 32.2558 46.3125 34.278 45.605C36.3002 44.8975 38.1235 43.8453 39.7479 42.4482C38.0637 41.141 36.2252 40.1561 34.2324 39.4935C32.2397 38.8309 30.1621 38.4995 27.9998 38.4995C25.8374 38.4995 23.7451 38.8159 21.7229 39.4486C19.7007 40.0813 17.8774 41.0812 16.253 42.4482C17.8774 43.8453 19.7007 44.8975 21.7229 45.605C23.7451 46.3125 25.8376 46.6662 28.0005 46.6662ZM33.2863 26.7701L31.6216 25.1053C31.9656 24.7045 32.2259 24.2443 32.4023 23.7248C32.5789 23.2052 32.6671 22.6857 32.6671 22.1662C32.6671 20.8949 32.2072 19.7992 31.2873 18.8794C30.3674 17.9595 29.2718 17.4995 28.0005 17.4995C27.4809 17.4995 26.9614 17.5878 26.4419 17.7643C25.9224 17.9408 25.4622 18.201 25.0613 18.5451L23.3966 16.8803C24.0332 16.3089 24.7451 15.8804 25.5325 15.5947C26.3198 15.309 27.1491 15.1662 28.0202 15.1662C29.9634 15.1662 31.6126 15.8438 32.9678 17.1989C34.3229 18.554 35.0005 20.2032 35.0005 22.1465C35.0005 23.0176 34.8576 23.8468 34.5719 24.6342C34.2863 25.4215 33.8577 26.1335 33.2863 26.7701ZM45.7786 39.2624L44.0556 37.5393C44.9112 36.0705 45.5603 34.5388 46.003 32.9444C46.4457 31.35 46.6671 29.7017 46.6671 27.9995C46.6671 22.7884 44.8588 18.3745 41.2421 14.7579C37.6255 11.1412 33.2116 9.33288 28.0005 9.33288C26.2983 9.33288 24.65 9.55425 23.0556 9.997C21.4611 10.4397 19.9295 11.0888 18.4607 11.9444L16.7376 10.2214C18.4338 9.15638 20.2336 8.35317 22.1371 7.81172C24.0405 7.27027 25.995 6.99954 28.0005 6.99954C30.9055 6.99954 33.6355 7.55079 36.1905 8.65329C38.7455 9.75579 40.968 11.252 42.858 13.142C44.748 15.032 46.2442 17.2545 47.3467 19.8095C48.4492 22.3645 49.0005 25.0945 49.0005 27.9995C49.0005 30.005 48.7297 31.9595 48.1883 33.8629C47.6468 35.7664 46.8436 37.5662 45.7786 39.2624ZM27.9832 48.9995C25.0848 48.9995 22.3611 48.4469 19.812 47.3415C17.2628 46.2362 15.0422 44.739 13.15 42.8499C11.2578 40.9608 9.75985 38.7394 8.65607 36.1856C7.55232 33.6318 7.00045 30.9031 7.00045 27.9995C7.00045 25.6153 7.38112 23.3044 8.14244 21.0669C8.90377 18.8292 10.0413 16.7831 11.5549 14.9284L4.40234 7.71751L6.06712 6.05273L50.921 50.9066L49.2562 52.5714L13.2466 16.6201C11.9723 18.2684 11.0015 20.0543 10.3344 21.9777C9.66734 23.9013 9.33379 25.9085 9.33379 27.9995C9.33379 30.4068 9.77055 32.7086 10.6441 34.9047C11.5176 37.1008 12.7889 39.0649 14.4581 40.797C16.4684 39.382 18.6157 38.2565 20.9002 37.4204C23.1847 36.5843 25.5515 36.1662 28.0005 36.1662C30.0765 36.1662 32.1003 36.4863 34.0716 37.1264C36.043 37.7666 37.9081 38.6282 39.6671 39.7111L42.8486 42.8925C40.8712 44.8998 38.5977 46.4194 36.028 47.4515C33.4584 48.4835 30.7768 48.9995 27.9832 48.9995Z" fill="#CE6730"/>
</g>
</svg>
