<svg width="56" height="56" viewBox="0 0 56 56" fill="none" xmlns="http://www.w3.org/2000/svg">
<mask id="mask0_635_3637" style="mask-type:alpha" maskUnits="userSpaceOnUse" x="0" y="0" width="56" height="56">
<rect width="56" height="56" fill="#D9D9D9"/>
</mask>
<g mask="url(#mask0_635_3637)">
<path d="M10.5 49.8975V47.5641H45.5V49.8975H10.5ZM10.5 8.43587V6.10254H45.5V8.43587H10.5ZM28 32.6667C29.6154 32.6667 30.9915 32.0983 32.1282 30.9615C33.265 29.8248 33.8333 28.4487 33.8333 26.8333C33.8333 25.2179 33.265 23.8418 32.1282 22.7051C30.9915 21.5684 29.6154 21 28 21C26.3846 21 25.0085 21.5684 23.8718 22.7051C22.735 23.8418 22.1667 25.2179 22.1667 26.8333C22.1667 28.4487 22.735 29.8248 23.8718 30.9615C25.0085 32.0983 26.3846 32.6667 28 32.6667ZM10.7692 44.3333C9.69529 44.3333 8.79861 43.9736 8.07917 43.2542C7.35972 42.5347 7 41.638 7 40.5641V15.4359C7 14.362 7.35972 13.4653 8.07917 12.7458C8.79861 12.0264 9.69529 11.6667 10.7692 11.6667H45.2308C46.3047 11.6667 47.2014 12.0264 47.9208 12.7458C48.6403 13.4653 49 14.362 49 15.4359V40.5641C49 41.638 48.6403 42.5347 47.9208 43.2542C47.2014 43.9736 46.3047 44.3333 45.2308 44.3333H10.7692ZM16.4679 42C18.2179 40.4205 20.0532 39.2479 21.9737 38.482C23.8942 37.7162 25.903 37.3333 28 37.3333C30.097 37.3333 32.1058 37.7162 34.0263 38.482C35.9468 39.2479 37.7821 40.4205 39.5321 42H45.2308C45.5897 42 45.9188 41.8504 46.218 41.5513C46.5171 41.2521 46.6667 40.9231 46.6667 40.5641V15.4359C46.6667 15.0769 46.5171 14.7479 46.218 14.4487C45.9188 14.1496 45.5897 14 45.2308 14H10.7692C10.4103 14 10.0812 14.1496 9.78203 14.4487C9.4829 14.7479 9.33333 15.0769 9.33333 15.4359V40.5641C9.33333 40.9231 9.4829 41.2521 9.78203 41.5513C10.0812 41.8504 10.4103 42 10.7692 42H16.4679ZM20.3 42H35.7C34.5722 41.2222 33.3569 40.6389 32.0542 40.25C30.7514 39.8611 29.4 39.6667 28 39.6667C26.6 39.6667 25.2486 39.8611 23.9458 40.25C22.6431 40.6389 21.4278 41.2222 20.3 42ZM28 30.3333C27.0398 30.3333 26.2164 29.9901 25.5298 29.3035C24.8433 28.617 24.5 27.7936 24.5 26.8333C24.5 25.873 24.8433 25.0497 25.5298 24.3631C26.2164 23.6766 27.0398 23.3333 28 23.3333C28.9602 23.3333 29.7836 23.6766 30.4702 24.3631C31.1567 25.0497 31.5 25.873 31.5 26.8333C31.5 27.7936 31.1567 28.617 30.4702 29.3035C29.7836 29.9901 28.9602 30.3333 28 30.3333Z" fill="#CE6730"/>
</g>
</svg>
