<svg width="56" height="56" viewBox="0 0 56 56" fill="none" xmlns="http://www.w3.org/2000/svg">
<mask id="mask0_635_3629" style="mask-type:alpha" maskUnits="userSpaceOnUse" x="0" y="0" width="56" height="56">
<rect width="56" height="56" fill="#D9D9D9"/>
</mask>
<g mask="url(#mask0_635_3629)">
<path d="M25.0295 46.4244C23.9406 44.9615 22.9617 43.308 22.0926 41.4638C21.2236 39.6196 20.5393 37.7342 20.0397 35.8077H11.0923C12.4594 38.7393 14.3253 41.1115 16.69 42.9244C19.0548 44.7372 21.8346 45.9038 25.0295 46.4244ZM10.141 33.4743H19.5551C19.3786 32.5171 19.2537 31.5845 19.1805 30.6766C19.1072 29.7687 19.0705 28.8765 19.0705 28C19.0705 27.1235 19.1072 26.2313 19.1805 25.3234C19.2537 24.4155 19.3786 23.4829 19.5551 22.5257H10.141C9.88676 23.3333 9.68858 24.2136 9.54648 25.1663C9.40438 26.1191 9.33333 27.0637 9.33333 28C9.33333 28.9363 9.40438 29.8809 9.54648 30.8337C9.68858 31.7864 9.88676 32.6667 10.141 33.4743ZM11.0923 20.1923H20.0397C20.4795 18.2359 21.1488 16.3131 22.0477 14.424C22.9467 12.5349 23.9406 10.9188 25.0295 9.57565C21.9842 10.0363 19.2343 11.1955 16.7798 13.0532C14.3253 14.9109 12.4295 17.2906 11.0923 20.1923ZM22.4449 20.1923H33.5551C32.9987 18.0923 32.2763 16.1942 31.3878 14.498C30.4994 12.8019 29.3701 11.0743 28 9.31537C26.6299 10.9547 25.5156 12.6224 24.657 14.3186C23.7985 16.0147 23.0611 17.9727 22.4449 20.1923ZM35.9603 20.1923H44.9077C43.5705 17.2906 41.6747 14.9034 39.2202 13.0308C36.7657 11.1581 34.0158 10.0064 30.9705 9.57565C31.9098 10.8889 32.829 12.4901 33.7279 14.3792C34.6268 16.2683 35.371 18.206 35.9603 20.1923ZM28 49C25.1102 49 22.388 48.4473 19.8333 47.342C17.2786 46.2367 15.0538 44.7364 13.1587 42.8413C11.2636 40.9462 9.76335 38.7214 8.65801 36.1667C7.55267 33.612 7 30.8898 7 28C7 25.1013 7.55267 22.3768 8.65801 19.8266C9.76335 17.2764 11.2636 15.0538 13.1587 13.1587C15.0538 11.2636 17.2786 9.76335 19.8333 8.65801C22.388 7.55267 25.1102 7 28 7C30.8987 7 33.6232 7.55267 36.1734 8.65801C38.7236 9.76335 40.9462 11.2636 42.8413 13.1587C44.7364 15.0538 46.2367 17.2764 47.342 19.8266C48.4473 22.3768 49 25.1013 49 28C49 28.4188 48.9903 28.8526 48.9708 29.3013C48.9514 29.75 48.9073 30.1837 48.8385 30.6025H46.4468C46.5246 30.1837 46.5807 29.7522 46.615 29.308C46.6495 28.8638 46.6667 28.4278 46.6667 28C46.6667 27.0637 46.5956 26.1191 46.4535 25.1663C46.3114 24.2136 46.1132 23.3333 45.859 22.5257H36.4449C36.6214 23.4829 36.7463 24.4155 36.8196 25.3234C36.8929 26.2313 36.9295 27.1235 36.9295 28C36.9295 28.4278 36.922 28.8563 36.9071 29.2856C36.8921 29.7148 36.8652 30.1538 36.8263 30.6025H34.493C34.5319 30.1837 34.5588 29.7522 34.5737 29.308C34.5887 28.8638 34.5962 28.4278 34.5962 28C34.5962 27.0637 34.5595 26.1565 34.4862 25.2785C34.4129 24.4005 34.288 23.4829 34.1115 22.5257H21.8885C21.712 23.4829 21.5871 24.4005 21.5138 25.2785C21.4405 26.1565 21.4038 27.0637 21.4038 28C21.4038 28.9363 21.4405 29.8435 21.5138 30.7215C21.5871 31.5995 21.712 32.5171 21.8885 33.4743H30.6025V35.8077H22.4449C23.0611 37.9974 23.8209 39.9778 24.7243 41.7487C25.6278 43.5197 26.7197 45.165 28 46.6846C28.4876 46.0923 28.9408 45.4828 29.3596 44.8561C29.7784 44.2294 30.1927 43.5855 30.6025 42.9244V48.8385C30.1837 48.9073 29.7522 48.9514 29.308 48.9708C28.8638 48.9903 28.4278 49 28 49ZM46.55 48.2148L38.5 40.1648V47.0167H36.1667V36.1667H47.0167V38.5H40.1064L48.1564 46.55L46.55 48.2148Z" fill="#CE6730"/>
</g>
</svg>
