<svg width="56" height="56" viewBox="0 0 56 56" fill="none" xmlns="http://www.w3.org/2000/svg">
<mask id="mask0_635_3605" style="mask-type:alpha" maskUnits="userSpaceOnUse" x="0" y="0" width="56" height="56">
<rect width="56" height="56" fill="#D9D9D9"/>
</mask>
<g mask="url(#mask0_635_3605)">
<path d="M11.3083 46.6663C10.2344 46.6663 9.33771 46.3066 8.61823 45.5872C7.89878 44.8677 7.53906 43.9711 7.53906 42.8971V13.1022C7.53906 12.0283 7.89878 11.1316 8.61823 10.4122C9.33771 9.69273 10.2344 9.33301 11.3083 9.33301H41.1032C42.1771 9.33301 43.0738 9.69273 43.7933 10.4122C44.5127 11.1316 44.8725 12.0283 44.8725 13.1022V18.1279H48.4622V20.4612H44.8725V26.833H48.4622V29.1663H44.8725V35.5382H48.4622V37.8715H44.8725V42.8971C44.8725 43.9711 44.5127 44.8677 43.7933 45.5872C43.0738 46.3066 42.1771 46.6663 41.1032 46.6663H11.3083ZM11.3083 44.333H41.1032C41.4622 44.333 41.7912 44.1834 42.0904 43.8843C42.3895 43.5851 42.5391 43.2561 42.5391 42.8971V13.1022C42.5391 12.7433 42.3895 12.4142 42.0904 12.115C41.7912 11.8159 41.4622 11.6663 41.1032 11.6663H11.3083C10.9493 11.6663 10.6203 11.8159 10.3212 12.115C10.022 12.4142 9.87245 12.7433 9.87245 13.1022V42.8971C9.87245 43.2561 10.022 43.5851 10.3212 43.8843C10.6203 44.1834 10.9493 44.333 11.3083 44.333ZM16.334 37.8715H25.757V30.7817H16.334V37.8715ZM28.9878 22.8843H36.0776V18.1279H28.9878V22.8843ZM16.334 27.551H25.757V18.1279H16.334V27.551ZM28.9878 37.8715H36.0776V26.115H28.9878V37.8715Z" fill="#CE6730"/>
</g>
</svg>
