<svg width="56" height="56" viewBox="0 0 56 56" fill="none" xmlns="http://www.w3.org/2000/svg">
<mask id="mask0_635_3439" style="mask-type:alpha" maskUnits="userSpaceOnUse" x="0" y="0" width="56" height="56">
<rect width="56" height="56" fill="#D9D9D9"/>
</mask>
<g mask="url(#mask0_635_3439)">
<path d="M11.6667 44.3337C10.3504 44.3337 9.2436 43.8849 8.34616 42.9875C7.44872 42.0901 7 40.9832 7 39.667C7 38.3508 7.44872 37.2439 8.34616 36.3465C9.2436 35.449 10.3504 35.0003 11.6667 35.0003H44.3333C45.6496 35.0003 46.7564 35.449 47.6538 36.3465C48.5513 37.2439 49 38.3508 49 39.667C49 40.9832 48.5513 42.0901 47.6538 42.9875C46.7564 43.8849 45.6496 44.3337 44.3333 44.3337H11.6667ZM11.6667 42.0003H44.3333C44.9944 42.0003 45.5486 41.7767 45.9958 41.3295C46.4431 40.8823 46.6667 40.3281 46.6667 39.667C46.6667 39.0059 46.4431 38.4517 45.9958 38.0045C45.5486 37.5573 44.9944 37.3337 44.3333 37.3337H11.6667C11.0056 37.3337 10.4514 37.5573 10.0042 38.0045C9.55694 38.4517 9.33333 39.0059 9.33333 39.667C9.33333 40.3281 9.55694 40.8823 10.0042 41.3295C10.4514 41.7767 11.0056 42.0003 11.6667 42.0003ZM27.4427 30.3337C26.9138 30.3337 26.4706 30.1548 26.1131 29.7969C25.7556 29.4392 25.5769 28.9958 25.5769 28.4669V13.5328C25.5769 13.0039 25.7558 12.5607 26.1136 12.2032C26.4714 11.8457 26.9147 11.667 27.4437 11.667H42.3778C42.9067 11.667 43.3499 11.8459 43.7074 12.2037C44.0649 12.5615 44.2436 13.0048 44.2436 13.5337V28.4679C44.2436 28.9968 44.0647 29.44 43.7069 29.7975C43.3491 30.1549 42.9058 30.3337 42.3768 30.3337H27.4427ZM27.9102 28.0003H41.9102V14.0003H27.9102V28.0003ZM7 26.8067V24.5137H20.8699V26.8067H7ZM30.2436 19.8337H39.5769V17.5137H30.2436V19.8337ZM11.6667 19.8337H20.8699V17.5137H11.6667V19.8337Z" fill="#CE6730"/>
</g>
</svg>
