<svg width="32" height="32" viewBox="0 0 32 32" fill="none" xmlns="http://www.w3.org/2000/svg">
<mask id="mask0_635_3764" style="mask-type:alpha" maskUnits="userSpaceOnUse" x="0" y="0" width="32" height="32">
<rect width="32" height="32" fill="#D9D9D9"/>
</mask>
<g mask="url(#mask0_635_3764)">
<path d="M12.6663 24.6666V23.3333H15.333C15.2561 20.0205 14.0659 17.1965 11.7625 14.8615C9.45907 12.5264 6.64925 11.3589 3.33301 11.3589V10.0256C6.35694 10.0256 9.01805 10.926 11.3163 12.7269C13.6146 14.5277 15.1843 16.8119 16.0253 19.5794C16.7535 17.4256 17.9463 15.5487 19.6035 13.9487C21.2608 12.3487 23.0997 11.041 25.1202 10.0256H19.333V8.69226H27.333V16.3077H25.9997V11.0871C23.5689 12.2581 21.4249 13.8803 19.5676 15.9538C17.7104 18.0273 16.7433 20.4871 16.6663 23.3333H19.333V24.6666H12.6663Z" fill="#AF48A5"/>
</g>
</svg>
