<svg width="32" height="32" viewBox="0 0 32 32" fill="none" xmlns="http://www.w3.org/2000/svg">
<mask id="mask0_635_3750" style="mask-type:alpha" maskUnits="userSpaceOnUse" x="0" y="0" width="32" height="32">
<rect width="32" height="32" fill="#D9D9D9"/>
</mask>
<g mask="url(#mask0_635_3750)">
<path d="M15.9491 24.9744C14.8653 24.2325 13.7097 23.6624 12.4824 23.2641C11.255 22.8658 9.98324 22.6667 8.66699 22.6667C7.97297 22.6667 7.29135 22.7248 6.62213 22.841C5.95288 22.9573 5.30117 23.1436 4.66699 23.4C4.18324 23.5932 3.72896 23.5393 3.30416 23.2385C2.87938 22.9376 2.66699 22.5231 2.66699 21.9949V9.15897C2.66699 8.82906 2.75801 8.53162 2.94006 8.26667C3.1221 8.00171 3.36099 7.81368 3.65673 7.70257C4.43964 7.35726 5.25417 7.09828 6.10033 6.92563C6.94648 6.75299 7.80204 6.66667 8.66699 6.66667C9.97297 6.66667 11.2384 6.86752 12.4632 7.26923C13.6879 7.67094 14.867 8.20513 16.0003 8.8718V23.3641C17.1166 22.653 18.3012 22.1368 19.5542 21.8154C20.8072 21.494 22.067 21.3333 23.3337 21.3333C24.0653 21.3333 24.729 21.3744 25.3247 21.4564C25.9204 21.5385 26.5559 21.6786 27.2311 21.8769C27.4191 21.9282 27.5943 21.9325 27.7567 21.8897C27.9191 21.847 28.0003 21.706 28.0003 21.4667V7.51793C28.1285 7.54358 28.2512 7.57905 28.3683 7.62437C28.4854 7.66965 28.5969 7.72991 28.7029 7.80513C28.9132 7.91624 29.0708 8.07436 29.176 8.27947C29.2811 8.4846 29.3337 8.70939 29.3337 8.95383V21.9436C29.3337 22.4718 29.1084 22.8821 28.658 23.1744C28.2076 23.4667 27.7149 23.5248 27.1798 23.3487C26.5627 23.1094 25.9324 22.9359 25.2888 22.8282C24.6452 22.7205 23.9935 22.6667 23.3337 22.6667C22.0003 22.6667 20.7029 22.853 19.4414 23.2257C18.1798 23.5983 17.0157 24.1812 15.9491 24.9744ZM18.667 20V8.66667L25.3337 2V14L18.667 20ZM14.667 22.7308V9.65897C13.7285 9.14272 12.758 8.73717 11.7555 8.4423C10.7529 8.14743 9.72339 8 8.66699 8C7.84477 8 7.08324 8.0735 6.38239 8.2205C5.68153 8.36752 5.04989 8.55386 4.48749 8.7795C4.35074 8.83077 4.23536 8.90341 4.14136 8.99743C4.04734 9.09145 4.00033 9.20684 4.00033 9.3436V21.5256C4.00033 21.765 4.08153 21.906 4.24393 21.9487C4.4063 21.9915 4.58151 21.9786 4.76956 21.9103C5.30803 21.7239 5.89221 21.5812 6.52213 21.4821C7.15204 21.3829 7.86699 21.3333 8.66699 21.3333C9.86015 21.3333 10.9811 21.4726 12.0298 21.7513C13.0785 22.0299 13.9576 22.3564 14.667 22.7308Z" fill="#AF48A5"/>
</g>
</svg>
