<svg width="32" height="32" viewBox="0 0 32 32" fill="none" xmlns="http://www.w3.org/2000/svg">
<mask id="mask0_635_3815" style="mask-type:alpha" maskUnits="userSpaceOnUse" x="0" y="0" width="32" height="32">
<rect width="32" height="32" fill="#D9D9D9"/>
</mask>
<g mask="url(#mask0_635_3815)">
<path d="M25.3333 12C25.7111 12 26.0278 11.8723 26.2833 11.6167C26.5389 11.3612 26.6667 11.0445 26.6667 10.6667C26.6667 10.2889 26.5389 9.97226 26.2833 9.71671C26.0278 9.46115 25.7111 9.33337 25.3333 9.33337C24.9556 9.33337 24.6389 9.46115 24.3833 9.71671C24.1278 9.97226 24 10.2889 24 10.6667C24 11.0445 24.1278 11.3612 24.3833 11.6167C24.6389 11.8723 24.9556 12 25.3333 12ZM25.3315 13.3334C24.5755 13.3334 23.9423 13.0784 23.432 12.5684C22.9218 12.0585 22.6667 11.4266 22.6667 10.6727C22.6667 9.93367 22.9216 9.30345 23.4316 8.78207C23.9416 8.26072 24.5735 8.00004 25.3273 8.00004C26.0664 8.00004 26.6966 8.25947 27.218 8.77834C27.7393 9.29721 28 9.92726 28 10.6685C28 11.4246 27.7406 12.0577 27.2217 12.568C26.7028 13.0782 26.0728 13.3334 25.3315 13.3334ZM16 10.6667C16.5556 10.6667 17.0278 10.4778 17.4167 10.1C17.8056 9.72226 18 9.24448 18 8.66671C18 8.11115 17.8056 7.63893 17.4167 7.25004C17.0278 6.86115 16.5556 6.66671 16 6.66671C15.4222 6.66671 14.9444 6.86115 14.5667 7.25004C14.1889 7.63893 14 8.11115 14 8.66671C14 9.24448 14.1889 9.72226 14.5667 10.1C14.9444 10.4778 15.4222 10.6667 16 10.6667ZM16.0015 12C15.0655 12 14.2756 11.6794 13.632 11.0381C12.9885 10.3969 12.6667 9.60917 12.6667 8.67497C12.6667 7.75664 12.9873 6.97012 13.6285 6.31541C14.2698 5.66072 15.0575 5.33337 15.9917 5.33337C16.9101 5.33337 17.6966 5.65862 18.3513 6.30911C19.006 6.9596 19.3333 7.74494 19.3333 8.66514C19.3333 9.60123 19.0081 10.3911 18.3576 11.0346C17.7071 11.6782 16.9218 12 16.0015 12ZM9.94873 17.8334C9.94873 18.6368 10.3214 19.5171 11.0667 20.4744C11.812 21.4317 13.294 22.9197 15.5128 24.9385L16 25.3744L16.5385 24.8616C18.6274 22.9727 20.0684 21.5289 20.8615 20.5301C21.6547 19.5313 22.0513 18.6324 22.0513 17.8334C22.0513 17.1221 21.8156 16.5191 21.3442 16.0243C20.8728 15.5295 20.2914 15.2821 19.6 15.2821C19.1846 15.2821 18.7914 15.3744 18.4205 15.559C18.0496 15.7436 17.7325 15.9924 17.4692 16.3052L16.1 17.9488H15.8923L14.4974 16.3052C14.2342 15.9924 13.9209 15.7436 13.5577 15.559C13.1945 15.3744 12.8086 15.2821 12.4 15.2821C11.6772 15.2821 11.0879 15.5295 10.6323 16.0243C10.1766 16.5191 9.94873 17.1221 9.94873 17.8334ZM8.61537 17.8334C8.61537 16.8265 8.98546 15.9274 9.72563 15.1359C10.4658 14.3445 11.3573 13.9487 12.4 13.9487C13.0547 13.9487 13.6645 14.1043 14.2295 14.4154C14.7945 14.7265 15.2735 15.1317 15.6667 15.6308L16 16.0154L16.3333 15.6052C16.7436 15.1231 17.2256 14.7265 17.7795 14.4154C18.3333 14.1043 18.9402 13.9487 19.6 13.9487C20.6256 13.9487 21.5128 14.3468 22.2615 15.1429C23.0103 15.939 23.3846 16.8358 23.3846 17.8334C23.3846 18.8744 22.9782 19.9372 22.1654 21.0218C21.3526 22.1065 19.7692 23.7231 17.4154 25.8718L16 27.1795L14.6359 25.9488C12.2034 23.7094 10.5919 22.0616 9.80127 21.0052C9.01067 19.9488 8.61537 18.8915 8.61537 17.8334ZM6.66667 12C7.04444 12 7.36111 11.8723 7.61667 11.6167C7.87222 11.3612 8 11.0445 8 10.6667C8 10.2889 7.87222 9.97226 7.61667 9.71671C7.36111 9.46115 7.04444 9.33337 6.66667 9.33337C6.28889 9.33337 5.97222 9.46115 5.71667 9.71671C5.46111 9.97226 5.33333 10.2889 5.33333 10.6667C5.33333 11.0445 5.46111 11.3612 5.71667 11.6167C5.97222 11.8723 6.28889 12 6.66667 12ZM16.1 28V26.6667H26.6667V18.1539C26.6667 17.9317 26.5855 17.7394 26.4231 17.577C26.2607 17.4146 26.0684 17.3334 25.8462 17.3334H22.8359V16H25.8462C26.4385 16 26.9455 16.2109 27.3673 16.6327C27.7891 17.0545 28 17.5616 28 18.1539V28H16.1ZM5.33333 26.6667H16.1V28H4V18.1609C4 17.5597 4.20641 17.0492 4.61923 16.6295C5.03206 16.2099 5.54359 16 6.15383 16H9.1641V17.3334H6.15383C5.91452 17.3334 5.71794 17.4146 5.5641 17.577C5.41026 17.7394 5.33333 17.9317 5.33333 18.1539V26.6667ZM6.66487 13.3334C5.9088 13.3334 5.27563 13.0784 4.76537 12.5684C4.25512 12.0585 4 11.4266 4 10.6727C4 9.93367 4.25498 9.30345 4.76493 8.78207C5.27489 8.26072 5.90679 8.00004 6.66063 8.00004C7.3997 8.00004 8.02992 8.25947 8.5513 8.77834C9.07266 9.29721 9.33333 9.92726 9.33333 10.6685C9.33333 11.4246 9.0739 12.0577 8.55503 12.568C8.03617 13.0782 7.40611 13.3334 6.66487 13.3334Z" fill="#AF48A5"/>
</g>
</svg>
