<svg width="40" height="34" viewBox="0 0 40 34" fill="none" xmlns="http://www.w3.org/2000/svg">
<rect width="40" height="33.5" rx="5" fill="#8E1F83"/>
<path d="M15.2467 27.5L18.3217 11.95C18.4217 11.4667 18.6467 11.1042 18.9967 10.8625C19.3467 10.6208 19.7133 10.5 20.0967 10.5C20.48 10.5 20.8342 10.5833 21.1592 10.75C21.4842 10.9167 21.7467 11.1667 21.9467 11.5L22.9467 13.1C23.2467 13.5833 23.6342 14.0208 24.1092 14.4125C24.5842 14.8042 25.13 15.0917 25.7467 15.275V13.5H27.2467V27.5H25.7467V17.35C24.9467 17.1667 24.205 16.875 23.5217 16.475C22.8383 16.075 22.2467 15.5833 21.7467 15L21.1467 18L23.2467 20V27.5H21.2467V21.5L19.1467 19.5L17.3467 27.5H15.2467ZM15.6717 17.625L13.5467 17.225C13.28 17.175 13.0717 17.0375 12.9217 16.8125C12.7717 16.5875 12.7217 16.3333 12.7717 16.05L13.5217 12.125C13.6217 11.5917 13.905 11.1708 14.3717 10.8625C14.8383 10.5542 15.3383 10.45 15.8717 10.55L17.0217 10.775L15.6717 17.625ZM21.7467 10C21.1967 10 20.7258 9.80417 20.3342 9.4125C19.9425 9.02083 19.7467 8.55 19.7467 8C19.7467 7.45 19.9425 6.97917 20.3342 6.5875C20.7258 6.19583 21.1967 6 21.7467 6C22.2967 6 22.7675 6.19583 23.1592 6.5875C23.5508 6.97917 23.7467 7.45 23.7467 8C23.7467 8.55 23.5508 9.02083 23.1592 9.4125C22.7675 9.80417 22.2967 10 21.7467 10Z" fill="white"/>
</svg>
