<svg width="32" height="32" viewBox="0 0 32 32" fill="none" xmlns="http://www.w3.org/2000/svg">
<mask id="mask0_635_3801" style="mask-type:alpha" maskUnits="userSpaceOnUse" x="0" y="0" width="32" height="32">
<rect width="32" height="32" fill="#D9D9D9"/>
</mask>
<g mask="url(#mask0_635_3801)">
<path d="M17.3333 22.5641L21.3846 18.359C21.5778 18.1658 21.7252 17.941 21.8269 17.6846C21.9286 17.4282 21.9795 17.1453 21.9795 16.8359C21.9795 16.2684 21.7769 15.7735 21.3718 15.3513C20.9667 14.929 20.4803 14.7179 19.9128 14.7179C19.4735 14.7179 19.044 14.8316 18.6244 15.059C18.2047 15.2863 17.7744 15.6889 17.3333 16.2667C16.8718 15.6786 16.435 15.2735 16.0231 15.0513C15.6111 14.829 15.188 14.7179 14.7538 14.7179C14.1863 14.7179 13.7 14.929 13.2949 15.3513C12.8897 15.7735 12.6872 16.2684 12.6872 16.8359C12.6872 17.1453 12.738 17.4282 12.8397 17.6846C12.9414 17.941 13.0889 18.1658 13.282 18.359L17.3333 22.5641ZM18.0769 27.6103C17.8222 27.865 17.5051 27.9923 17.1256 27.9923C16.7461 27.9923 16.4291 27.865 16.1744 27.6103L4.44103 15.8769C4.29914 15.735 4.19017 15.5786 4.1141 15.4077C4.03803 15.2368 4 15.0564 4 14.8667V5.33333C4 4.97607 4.1329 4.66452 4.3987 4.3987C4.66452 4.1329 4.97607 4 5.33333 4H14.8667C15.0393 4 15.2111 4.03376 15.3821 4.10127C15.553 4.1688 15.7009 4.26496 15.8256 4.38973L27.559 16.1308C27.8308 16.4026 27.9709 16.7312 27.9795 17.1167C27.988 17.5021 27.865 17.8222 27.6103 18.0769L18.0769 27.6103ZM17.1256 26.6667L26.659 17.1333L14.8667 5.33333H5.33333V14.8667L17.1256 26.6667ZM8.66667 10C9.0342 10 9.3483 9.86966 9.60897 9.60897C9.86966 9.3483 10 9.0342 10 8.66667C10 8.29913 9.86966 7.98503 9.60897 7.72437C9.3483 7.46368 9.0342 7.33333 8.66667 7.33333C8.29913 7.33333 7.98503 7.46368 7.72437 7.72437C7.46368 7.98503 7.33333 8.29913 7.33333 8.66667C7.33333 9.0342 7.46368 9.3483 7.72437 9.60897C7.98503 9.86966 8.29913 10 8.66667 10Z" fill="#AF48A5"/>
</g>
</svg>
