<svg width="32" height="32" viewBox="0 0 32 32" fill="none" xmlns="http://www.w3.org/2000/svg">
<mask id="mask0_635_3757" style="mask-type:alpha" maskUnits="userSpaceOnUse" x="0" y="0" width="32" height="32">
<rect width="32" height="32" fill="#D9D9D9"/>
</mask>
<g mask="url(#mask0_635_3757)">
<path d="M19.9997 26.5641L11.9997 23.7641L6.72274 25.8051C6.38085 25.9316 6.06376 25.8945 5.77147 25.6936C5.47916 25.4928 5.33301 25.2103 5.33301 24.8462V8.53848C5.33301 8.30086 5.3907 8.08376 5.50607 7.88718C5.62145 7.6906 5.7894 7.55385 6.00991 7.47691L11.9997 5.43591L19.9997 8.23591L25.2766 6.19488C25.6185 6.06839 25.9356 6.09275 26.2279 6.26795C26.5202 6.44317 26.6663 6.70428 26.6663 7.05128V23.5641C26.6663 23.8188 26.5958 24.0402 26.4548 24.2282C26.3138 24.4163 26.1245 24.5487 25.8869 24.6256L19.9997 26.5641ZM19.333 24.9385V9.33848L12.6663 7.01028V22.6103L19.333 24.9385ZM20.6663 24.9385L25.333 23.4V7.60001L20.6663 9.33848V24.9385ZM6.66634 24.4L11.333 22.6103V7.01028L6.66634 8.60001V24.4Z" fill="#AF48A5"/>
</g>
</svg>
