<svg width="18" height="18" viewBox="0 0 18 18" fill="none" xmlns="http://www.w3.org/2000/svg">
<mask id="mask0_635_3879" style="mask-type:alpha" maskUnits="userSpaceOnUse" x="0" y="0" width="18" height="18">
<rect x="0.5" y="0.5" width="17" height="17" fill="#D9D9D9" stroke="#FD5044"/>
</mask>
<g mask="url(#mask0_635_3879)">
<path d="M5.26768 6.3L6.3 5.26768L8.99116 7.95884L9 7.96768L9.00884 7.95884L11.7 5.26768L12.7323 6.3L10.0412 8.99116L10.0323 9L10.0412 9.00884L12.7323 11.7L11.7 12.7323L9.00884 10.0412L9 10.0323L8.99116 10.0412L6.3 12.7323L5.26768 11.7L7.95884 9.00884L7.96768 9L7.95884 8.99116L5.26768 6.3ZM9 16.4875C7.96413 16.4875 6.99082 16.2909 6.07995 15.8979C5.16884 15.5047 4.37643 14.9712 3.70259 14.2974C3.02875 13.6236 2.49525 12.8312 2.1021 11.92C1.70906 11.0092 1.5125 10.0359 1.5125 9C1.5125 7.96413 1.70906 6.99082 2.1021 6.07995C2.49525 5.16884 3.02875 4.37643 3.70259 3.70259C4.37643 3.02875 5.16884 2.49525 6.07995 2.1021C6.99082 1.70906 7.96413 1.5125 9 1.5125C10.0359 1.5125 11.0092 1.70906 11.92 2.1021C12.8312 2.49525 13.6236 3.02875 14.2974 3.70259C14.9712 4.37643 15.5047 5.16884 15.8979 6.07995C16.2909 6.99082 16.4875 7.96413 16.4875 9C16.4875 10.0359 16.2909 11.0092 15.8979 11.92C15.5047 12.8312 14.9712 13.6236 14.2974 14.2974C13.6236 14.9712 12.8312 15.5047 11.92 15.8979C11.0092 16.2909 10.0359 16.4875 9 16.4875ZM9 15.0125C10.6782 15.0125 12.1002 14.43 13.2651 13.2651C14.43 12.1002 15.0125 10.6782 15.0125 9C15.0125 7.32175 14.43 5.89981 13.2651 4.73491C12.1002 3.57002 10.6782 2.9875 9 2.9875C7.32175 2.9875 5.89981 3.57002 4.73491 4.73491C3.57002 5.89981 2.9875 7.32175 2.9875 9C2.9875 10.6782 3.57002 12.1002 4.73491 13.2651C5.89981 14.43 7.32175 15.0125 9 15.0125Z" fill="#FD5044" stroke="#FD5044" stroke-width="0.025"/>
</g>
</svg>
