<svg width="16" height="16" viewBox="0 0 16 16" fill="none" xmlns="http://www.w3.org/2000/svg">
<path d="M14 7.66667L11.1 11.7667C10.9778 11.9444 10.8196 12.0833 10.6253 12.1833C10.4307 12.2833 10.2222 12.3333 10 12.3333H3.33333C2.96667 12.3333 2.65267 12.2029 2.39133 11.942C2.13044 11.6807 2 11.3667 2 11V4.33333C2 3.96667 2.13044 3.65289 2.39133 3.392C2.65267 3.13067 2.96667 3 3.33333 3H10C10.2222 3 10.4307 3.05 10.6253 3.15C10.8196 3.25 10.9778 3.38889 11.1 3.56667L14 7.66667ZM7.01667 10.3333L7.85 8.5L9.68333 7.66667L7.85 6.83333L7.01667 5L6.18333 6.83333L4.35 7.66667L6.18333 8.5L7.01667 10.3333Z" fill="#FD5044"/>
</svg>
