<svg width="18" height="18" viewBox="0 0 18 18" fill="none" xmlns="http://www.w3.org/2000/svg">
<path d="M8.02 12.22L12.955 7.285L11.975 6.305L8.02 10.26L6.025 8.265L5.045 9.245L8.02 12.22ZM9 16C8.03167 16 7.12167 15.8161 6.27 15.4484C5.41833 15.0811 4.6775 14.5825 4.0475 13.9525C3.4175 13.3225 2.91887 12.5817 2.5516 11.73C2.18387 10.8783 2 9.96833 2 9C2 8.03167 2.18387 7.12167 2.5516 6.27C2.91887 5.41833 3.4175 4.6775 4.0475 4.0475C4.6775 3.4175 5.41833 2.91863 6.27 2.5509C7.12167 2.18363 8.03167 2 9 2C9.96833 2 10.8783 2.18363 11.73 2.5509C12.5817 2.91863 13.3225 3.4175 13.9525 4.0475C14.5825 4.6775 15.0811 5.41833 15.4484 6.27C15.8161 7.12167 16 8.03167 16 9C16 9.96833 15.8161 10.8783 15.4484 11.73C15.0811 12.5817 14.5825 13.3225 13.9525 13.9525C13.3225 14.5825 12.5817 15.0811 11.73 15.4484C10.8783 15.8161 9.96833 16 9 16Z" fill="#7AAC47"/>
</svg>
