<svg width="40" height="40" viewBox="0 0 40 40" fill="none" xmlns="http://www.w3.org/2000/svg">
<mask id="mask0_1426_2466" style="mask-type:alpha" maskUnits="userSpaceOnUse" x="0" y="0" width="40" height="40">
<rect width="40" height="40" transform="matrix(1 0 0 -1 0 40)" fill="#D9D9D9"/>
</mask>
<g mask="url(#mask0_1426_2466)">
<path d="M11.6666 10.0003H19.9999H28.3333V13.3337H11.6666V10.0003ZM19.9999 15.0003L26.6666 21.667L24.3333 24.0003L21.6666 21.417V30.0003H18.3333V21.417L15.6666 24.0003L13.3333 21.667L19.9999 15.0003ZM19.9999 3.33366C17.6944 3.33366 15.5277 3.77116 13.4999 4.64616C11.4721 5.52116 9.70825 6.70866 8.20825 8.20866C6.70825 9.70866 5.52075 11.4725 4.64575 13.5003C3.77075 15.5281 3.33325 17.6948 3.33325 20.0003C3.33325 22.3059 3.77075 24.4725 4.64575 26.5003C5.52075 28.5281 6.70825 30.292 8.20825 31.792C9.70825 33.292 11.4721 34.4795 13.4999 35.3545C15.5277 36.2295 17.6944 36.667 19.9999 36.667C22.3055 36.667 24.4721 36.2295 26.4999 35.3545C28.5277 34.4795 30.2916 33.292 31.7916 31.792C33.2916 30.292 34.4791 28.5281 35.3541 26.5003C36.2291 24.4725 36.6666 22.3059 36.6666 20.0003C36.6666 17.6948 36.2291 15.5281 35.3541 13.5003C34.4791 11.4725 33.2916 9.70866 31.7916 8.20866C30.2916 6.70866 28.5277 5.52116 26.4999 4.64616C24.4721 3.77116 22.3055 3.33366 19.9999 3.33366Z" fill="#B2BBC6"/>
</g>
</svg>
