<svg width="20" height="20" viewBox="0 0 20 20" fill="none" xmlns="http://www.w3.org/2000/svg">
<circle cx="10" cy="10" r="10" fill="#151A20"/>
<mask id="mask0_635_562" style="mask-type:alpha" maskUnits="userSpaceOnUse" x="4" y="4" width="12" height="12">
<rect x="4" y="4" width="12" height="12" fill="#D9D9D9"/>
</mask>
<g mask="url(#mask0_635_562)">
<path d="M7 14.4999C6.625 14.4999 6.25417 14.4082 5.8875 14.2249C5.52083 14.0415 5.225 13.7999 5 13.4999C5.21667 13.4999 5.4375 13.4144 5.6625 13.2436C5.8875 13.0728 6 12.8249 6 12.4999C6 12.0832 6.14583 11.729 6.4375 11.4374C6.72917 11.1457 7.08333 10.9999 7.5 10.9999C7.91667 10.9999 8.27083 11.1457 8.5625 11.4374C8.85417 11.729 9 12.0832 9 12.4999C9 13.0499 8.80417 13.5207 8.4125 13.9124C8.02083 14.304 7.55 14.4999 7 14.4999ZM7 13.4999C7.275 13.4999 7.51042 13.4019 7.70625 13.2061C7.90208 13.0103 8 12.7749 8 12.4999C8 12.3582 7.95208 12.2394 7.85625 12.1436C7.76042 12.0478 7.64167 11.9999 7.5 11.9999C7.35833 11.9999 7.23958 12.0478 7.14375 12.1436C7.04792 12.2394 7 12.3582 7 12.4999C7 12.6915 6.97708 12.8665 6.93125 13.0249C6.88542 13.1832 6.825 13.3332 6.75 13.4749C6.79167 13.4915 6.83333 13.4999 6.875 13.4999H7ZM9.875 11.4999L8.5 10.1249L12.975 5.64986C13.0667 5.55819 13.1813 5.51028 13.3188 5.50611C13.4563 5.50194 13.575 5.54986 13.675 5.64986L14.35 6.32486C14.45 6.42486 14.5 6.54153 14.5 6.67486C14.5 6.80819 14.45 6.92486 14.35 7.02486L9.875 11.4999Z" fill="#B2BBC6"/>
</g>
</svg>
