<svg width="24" height="24" viewBox="0 0 24 24" fill="none" xmlns="http://www.w3.org/2000/svg">
<mask id="mask0_1531_2443" style="mask-type:alpha" maskUnits="userSpaceOnUse" x="0" y="0" width="24" height="24">
<rect x="0.5" y="0.5" width="23" height="23" fill="#909DAD" stroke="#B2BBC6"/>
</mask>
<g mask="url(#mask0_1531_2443)">
<circle cx="12" cy="12" r="11.5" stroke="#B2BBC6"/>
<path d="M16.4167 17C15.2222 17 14.0579 16.7338 12.9236 16.2014C11.7894 15.669 10.7847 14.9653 9.90972 14.0903C9.03472 13.2153 8.33102 12.2106 7.79861 11.0764C7.2662 9.94213 7 8.77778 7 7.58333C7 7.41667 7.05556 7.27778 7.16667 7.16667C7.27778 7.05556 7.41667 7 7.58333 7H9.83333C9.96296 7 10.0787 7.04167 10.1806 7.125C10.2824 7.20833 10.3426 7.31481 10.3611 7.44444L10.7222 9.38889C10.7407 9.51852 10.7384 9.63657 10.7153 9.74306C10.6921 9.84954 10.6389 9.94444 10.5556 10.0278L9.22222 11.3889C9.61111 12.0556 10.0972 12.6806 10.6806 13.2639C11.2639 13.8472 11.9074 14.3519 12.6111 14.7778L13.9167 13.4722C14 13.3889 14.1088 13.3264 14.2431 13.2847C14.3773 13.2431 14.5093 13.2315 14.6389 13.25L16.5556 13.6389C16.6852 13.6667 16.7917 13.7292 16.875 13.8264C16.9583 13.9236 17 14.037 17 14.1667V16.4167C17 16.5833 16.9444 16.7222 16.8333 16.8333C16.7222 16.9444 16.5833 17 16.4167 17Z" fill="#B2BBC6"/>
</g>
</svg>
