<svg width="20" height="20" viewBox="0 0 20 20" fill="none" xmlns="http://www.w3.org/2000/svg">
<circle cx="10" cy="9.99951" r="10" fill="#151A20"/>
<mask id="mask0_635_529" style="mask-type:alpha" maskUnits="userSpaceOnUse" x="4" y="4" width="12" height="12">
<rect x="4" y="4" width="12" height="12" fill="#D9D9D9"/>
</mask>
<g mask="url(#mask0_635_529)">
<path d="M7.375 14.5L7.25 13.4L8.675 9.475C8.8 9.59167 8.93542 9.68958 9.08125 9.76875C9.22708 9.84792 9.38333 9.90833 9.55 9.95L8.175 13.725L7.375 14.5ZM12.625 14.5L11.825 13.725L10.45 9.95C10.6167 9.90833 10.7729 9.84792 10.9188 9.76875C11.0646 9.68958 11.2 9.59167 11.325 9.475L12.75 13.4L12.625 14.5ZM10 9.5C9.58333 9.5 9.22917 9.35417 8.9375 9.0625C8.64583 8.77083 8.5 8.41667 8.5 8C8.5 7.675 8.59375 7.38542 8.78125 7.13125C8.96875 6.87708 9.20833 6.7 9.5 6.6V5.5H10.5V6.6C10.7917 6.7 11.0312 6.87708 11.2188 7.13125C11.4062 7.38542 11.5 7.675 11.5 8C11.5 8.41667 11.3542 8.77083 11.0625 9.0625C10.7708 9.35417 10.4167 9.5 10 9.5ZM10 8.5C10.1417 8.5 10.2604 8.45208 10.3563 8.35625C10.4521 8.26042 10.5 8.14167 10.5 8C10.5 7.85833 10.4521 7.73958 10.3563 7.64375C10.2604 7.54792 10.1417 7.5 10 7.5C9.85833 7.5 9.73958 7.54792 9.64375 7.64375C9.54792 7.73958 9.5 7.85833 9.5 8C9.5 8.14167 9.54792 8.26042 9.64375 8.35625C9.73958 8.45208 9.85833 8.5 10 8.5Z" fill="#B2BBC6"/>
</g>
</svg>
