<svg width="32" height="32" viewBox="0 0 32 32" fill="none" xmlns="http://www.w3.org/2000/svg">
<mask id="mask0_635_3743" style="mask-type:alpha" maskUnits="userSpaceOnUse" x="0" y="0" width="32" height="32">
<rect width="32" height="32" fill="#D9D9D9"/>
</mask>
<g mask="url(#mask0_635_3743)">
<path d="M15.9996 29.3333C13.2885 29.3333 10.8586 28.6128 8.70989 27.1718C6.56115 25.7307 4.94833 23.7923 3.87142 21.3564V25.7436H2.53809V19.0769H9.20475V20.4102H4.93039C5.79194 22.694 7.23596 24.5299 9.26245 25.9179C11.2889 27.3059 13.5347 28 15.9996 28C17.5979 28 19.0992 27.7132 20.5035 27.1397C21.9077 26.5662 23.1445 25.7747 24.2137 24.7653C25.283 23.7559 26.1513 22.5576 26.8189 21.1705C27.4864 19.7833 27.8714 18.282 27.974 16.6666H29.3073C29.2219 18.4324 28.8129 20.0846 28.0804 21.623C27.3479 23.1615 26.3877 24.5034 25.1996 25.6487C24.0116 26.794 22.627 27.6944 21.0458 28.35C19.4646 29.0055 17.7825 29.3333 15.9996 29.3333ZM15.3125 24.8205V23.1897C14.4047 22.9794 13.6317 22.6192 12.9932 22.1089C12.3548 21.5987 11.8458 20.8871 11.4663 19.9743L12.6407 19.4666C13.0099 20.2923 13.5035 20.9286 14.1214 21.3756C14.7394 21.8226 15.4321 22.0461 16.1996 22.0461C16.9842 22.0461 17.7189 21.8397 18.4035 21.4269C19.0881 21.0141 19.4304 20.3384 19.4304 19.4C19.4304 18.653 19.1838 18.0666 18.6907 17.641C18.1975 17.2153 17.2338 16.7384 15.7996 16.2102C14.3688 15.6923 13.3522 15.1453 12.7496 14.5692C12.1471 13.9931 11.8458 13.2256 11.8458 12.2666C11.8458 11.4581 12.1496 10.7115 12.7573 10.0269C13.365 9.34227 14.2389 8.91449 15.3791 8.74356V7.17946H16.6868V8.74356C17.3842 8.79312 18.0351 9.03414 18.6394 9.46663C19.2436 9.89911 19.7022 10.4359 20.015 11.0769L18.856 11.5333C18.5757 11.0564 18.2099 10.6628 17.7586 10.3525C17.3073 10.0423 16.7432 9.88713 16.0663 9.88713C15.186 9.88713 14.4804 10.1136 13.9496 10.5666C13.4188 11.0196 13.1535 11.5863 13.1535 12.2666C13.1535 12.947 13.3577 13.4709 13.7663 13.8384C14.1748 14.2059 15.1142 14.6461 16.5843 15.1589C18.1843 15.7367 19.268 16.3547 19.8355 17.0128C20.403 17.6709 20.6868 18.4666 20.6868 19.4C20.6868 20.0273 20.5629 20.5769 20.315 21.0487C20.0672 21.5205 19.7471 21.9115 19.3548 22.2218C18.9624 22.532 18.5261 22.7713 18.0458 22.9397C17.5654 23.1081 17.0902 23.2136 16.6201 23.2564V24.8205H15.3125ZM2.69192 15.3333C2.81159 13.482 3.2462 11.7829 3.99575 10.2359C4.74533 8.68884 5.72269 7.35123 6.92782 6.22303C8.13295 5.09483 9.5133 4.22004 11.0689 3.59866C12.6244 2.9773 14.268 2.66663 15.9996 2.66663C18.6594 2.66663 21.0894 3.3914 23.2894 4.84096C25.4894 6.29054 27.1022 8.25891 28.1278 10.7461V6.25636H29.4612V12.923H22.7945V11.5897H27.0689C26.2586 9.37431 24.8359 7.55551 22.8009 6.13329C20.7658 4.71107 18.4988 3.99996 15.9996 3.99996C14.4697 3.99996 13.0069 4.27816 11.6112 4.83456C10.2154 5.39098 8.9744 6.16535 7.88809 7.15766C6.80175 8.14997 5.91201 9.33972 5.21885 10.7269C4.5257 12.1141 4.12783 13.6495 4.02525 15.3333H2.69192Z" fill="#AF48A5"/>
</g>
</svg>
