<svg width="32" height="32" viewBox="0 0 32 32" fill="none" xmlns="http://www.w3.org/2000/svg">
<mask id="mask0_635_3808" style="mask-type:alpha" maskUnits="userSpaceOnUse" x="0" y="0" width="32" height="32">
<rect width="32" height="32" fill="#D9D9D9"/>
</mask>
<g mask="url(#mask0_635_3808)">
<path d="M8.12274 25.1974C7.24241 24.3085 6.55736 23.2921 6.06761 22.1481C5.57787 21.0042 5.33301 19.8215 5.33301 18.6C5.33301 17.3709 5.56975 16.1457 6.04324 14.9243C6.51675 13.703 7.27659 12.5692 8.32274 11.523C9.1689 10.6769 10.2411 10.0059 11.5394 9.5102C12.8377 9.01449 14.2488 8.65253 15.7727 8.42433C17.2967 8.19611 18.8762 8.07003 20.5112 8.0461C22.1463 8.02216 23.721 8.06149 25.2356 8.16406C25.345 9.63073 25.3877 11.1777 25.3638 12.8051C25.3398 14.4325 25.2078 16.0107 24.9676 17.5397C24.7275 19.0688 24.3608 20.4876 23.8676 21.7961C23.3745 23.1047 22.7108 24.176 21.8766 25.0102C20.8527 26.0513 19.748 26.8098 18.5625 27.2859C17.377 27.7619 16.1872 28 14.993 28C13.741 28 12.5031 27.7551 11.2792 27.2654C10.0552 26.7756 9.0031 26.0863 8.12274 25.1974ZM10.3689 25.2923C11.0646 25.7555 11.8198 26.1004 12.6343 26.3269C13.4488 26.5534 14.2373 26.6666 14.9997 26.6666C16.0335 26.6666 17.056 26.4654 18.0673 26.0628C19.0786 25.6602 20.0313 24.9948 20.9253 24.0666C21.3221 23.6666 21.7244 23.1055 22.1322 22.3833C22.5401 21.6611 22.8928 20.7166 23.1903 19.55C23.4879 18.3833 23.7139 16.9722 23.8682 15.3166C24.0225 13.6611 24.0612 11.6889 23.9843 9.39996C22.8954 9.35552 21.6591 9.3474 20.2753 9.3756C18.8916 9.4038 17.5091 9.52218 16.1279 9.73073C14.7467 9.93929 13.4492 10.2572 12.2356 10.6846C11.0219 11.1119 10.0518 11.6889 9.32531 12.4154C8.3424 13.3983 7.65351 14.4171 7.25864 15.4718C6.86377 16.5265 6.66634 17.5094 6.66634 18.4205C6.66634 19.629 6.9078 20.7577 7.39071 21.8064C7.87362 22.8551 8.45781 23.6735 9.14328 24.2615C9.70054 22.6889 10.5621 21.1799 11.7279 19.7346C12.8937 18.2893 14.5245 16.9418 16.6202 15.6923C15.0886 17.0239 13.801 18.4406 12.7574 19.9423C11.7138 21.444 10.9176 23.2273 10.3689 25.2923Z" fill="#AF48A5"/>
</g>
</svg>
