<svg width="65" height="138" viewBox="0 0 65 138" fill="none" xmlns="http://www.w3.org/2000/svg">
<path d="M31.2832 93.2754V132.794C31.2832 134.347 30.7716 135.635 29.8094 136.565C28.8493 137.535 27.5936 137.998 26.0525 137.998C24.4952 137.998 23.1661 137.533 22.1367 136.565C21.0339 135.635 20.5263 134.347 20.5263 132.794V93.2754H5.71896L21.1256 41.2512H18.4756C16.7857 47.0831 15.3629 51.7734 14.2478 55.4956C13.2449 59.1994 12.1319 62.7156 11.1657 66.0994C10.067 69.4403 9.32906 71.5562 9.25567 72.2778C8.58502 74.4854 7.12345 75.5555 4.83223 75.5555L3.66623 75.2742C1.52993 74.4833 0.488281 73.1013 0.488281 71.1322C0.488281 70.594 0.563704 70.1517 0.779781 69.7073C0.932665 69.3262 1.37501 68.0195 1.89278 65.8018C2.48801 63.6023 3.28708 60.8668 4.25127 57.6869C5.21138 54.456 6.25099 50.9581 7.33953 47.2054C8.45252 43.4323 9.47175 39.8019 10.7234 36.3019C11.4613 33.6214 13.0819 31.1774 15.5892 29.0656C18.0863 26.8764 20.6832 25.8796 23.3944 25.8796H41.5183C44.3212 25.8796 47.0445 26.8764 49.4764 29.0656C51.841 31.1876 53.5411 33.6194 54.489 36.3019C55.5041 39.8019 56.5417 43.4323 57.567 47.2054C58.6169 50.9581 59.7197 54.456 60.6064 57.6869C61.5461 60.8688 62.3696 63.6023 62.9486 65.8018C63.5356 68.0195 63.9148 69.3262 64.1207 69.7073L64.4101 70.8733C64.4101 73.2542 63.2971 74.6464 61.1649 75.2579L60.0784 75.5555C57.7301 75.5555 56.2522 74.4833 55.6652 72.2778C55.5021 71.5562 54.8416 69.4383 53.9712 66.0994C52.9418 62.7156 51.892 59.2014 50.7158 55.4956C49.5376 51.7857 48.1555 47.0831 46.4677 41.241H43.8075L59.1917 93.2774H44.6208V132.796C44.6208 134.349 44.1785 135.637 43.0002 136.567C41.9606 137.537 40.709 138 39.1741 138C37.5535 138 36.361 137.535 35.3479 136.567C34.3878 135.637 33.9536 134.349 33.9536 132.796V93.2754H31.2832ZM32.7407 22.6263C35.8432 22.6263 38.5034 21.6071 40.5663 19.481C42.6924 17.3061 43.8054 14.6031 43.8054 11.3417C43.8054 8.23923 42.6924 5.57911 40.5663 3.38375C38.5136 1.1252 35.8432 0 32.7407 0C29.4364 0 26.6967 1.1252 24.4177 3.38375C22.2101 5.56892 21.1236 8.23923 21.1236 11.3417C21.1236 14.6031 22.2101 17.304 24.4279 19.481C26.7089 21.6071 29.4466 22.6263 32.7407 22.6263Z" fill="#909DAD"/>
</svg>
