<svg width="19" height="16" viewBox="0 0 19 16" fill="none" xmlns="http://www.w3.org/2000/svg">
<path d="M15.3125 7.66667L12.4125 11.7667C12.2903 11.9444 12.1321 12.0833 11.9378 12.1833C11.7432 12.2833 11.5347 12.3333 11.3125 12.3333H4.64583C4.27917 12.3333 3.96517 12.2029 3.70383 11.942C3.44294 11.6807 3.3125 11.3667 3.3125 11V4.33333C3.3125 3.96667 3.44294 3.65289 3.70383 3.392C3.96517 3.13067 4.27917 3 4.64583 3H11.3125C11.5347 3 11.7432 3.05 11.9378 3.15C12.1321 3.25 12.2903 3.38889 12.4125 3.56667L15.3125 7.66667ZM8.32917 10.3333L9.1625 8.5L10.9958 7.66667L9.1625 6.83333L8.32917 5L7.49583 6.83333L5.6625 7.66667L7.49583 8.5L8.32917 10.3333Z" fill="#909DAD"/>
</svg>
