<svg width="100" height="80" viewBox="0 0 100 80" fill="none" xmlns="http://www.w3.org/2000/svg">
<rect x="15.5786" y="2.47229" width="81.6958" height="63.4073" stroke="#979797" stroke-dasharray="2 4"/>
<rect x="13.1604" width="3.97576" height="3.97576" fill="#979797"/>
<rect x="54.8362" width="3.97576" height="3.97576" fill="#979797"/>
<rect x="13.1606" y="32.9833" width="3.97576" height="3.97576" fill="#979797"/>
<rect x="95.639" width="3.97576" height="3.97576" fill="#979797"/>
<rect x="95.639" y="32.9833" width="3.97576" height="3.97576" fill="#979797"/>
<rect x="95.639" y="64.0928" width="3.97576" height="3.97576" fill="#979797"/>
<rect x="54.8362" y="64.0928" width="3.97576" height="3.97576" fill="#979797"/>
<rect x="15.5461" y="58.5271" width="3.97576" height="3.97576" fill="#979797"/>
<path fill-rule="evenodd" clip-rule="evenodd" d="M20.4639 4.35779C18.807 4.35779 17.4639 5.70094 17.4639 7.35779V15.1258H95.3888V7.35779C95.3888 5.70093 94.0456 4.35779 92.3888 4.35779H20.4639ZM95.3888 16.1258H17.4639V39.3365L48.4458 64.7893H92.3888C94.0456 64.7893 95.3888 63.4462 95.3888 61.7893V16.1258ZM32.6064 10.0553C32.6064 11.1385 31.7342 12.0166 30.6582 12.0166C29.5823 12.0166 28.7101 11.1385 28.7101 10.0553C28.7101 8.97203 29.5823 8.09389 30.6582 8.09389C31.7342 8.09389 32.6064 8.97203 32.6064 10.0553ZM24.8164 10.0557C24.8164 11.1389 23.9441 12.017 22.8682 12.017C21.7923 12.017 20.9201 11.1389 20.9201 10.0557C20.9201 8.97241 21.7923 8.09428 22.8682 8.09428C23.9441 8.09428 24.8164 8.97241 24.8164 10.0557ZM38.4513 12.0166C39.5273 12.0166 40.3995 11.1385 40.3995 10.0553C40.3995 8.97203 39.5273 8.09389 38.4513 8.09389C37.3754 8.09389 36.5032 8.97203 36.5032 10.0553C36.5032 11.1385 37.3754 12.0166 38.4513 12.0166Z" fill="url(#paint0_linear_635_1264)"/>
<path d="M14.7086 41.769L44.1014 66.2568L25.3773 66.2568L14.1139 78.8951L14.7086 41.769Z" fill="url(#paint1_linear_635_1264)"/>
<defs>
<linearGradient id="paint0_linear_635_1264" x1="58.9102" y1="-6.61452" x2="19.1471" y2="46.0281" gradientUnits="userSpaceOnUse">
<stop stop-color="#717186" stop-opacity="0.943428"/>
<stop offset="1" stop-color="#101017"/>
</linearGradient>
<linearGradient id="paint1_linear_635_1264" x1="14.7362" y1="41.7561" x2="29.3653" y2="73.1284" gradientUnits="userSpaceOnUse">
<stop stop-color="#ED787B"/>
<stop offset="1" stop-color="#DF5B5D"/>
</linearGradient>
</defs>
</svg>
