<svg width="17" height="17" viewBox="0 0 17 17" fill="none" xmlns="http://www.w3.org/2000/svg">
<path d="M8.325 12.925C8.54167 12.925 8.725 12.85 8.875 12.7C9.025 12.55 9.1 12.3667 9.1 12.15C9.1 11.9333 9.025 11.75 8.875 11.6C8.725 11.45 8.54167 11.375 8.325 11.375C8.10833 11.375 7.925 11.45 7.775 11.6C7.625 11.75 7.55 11.9333 7.55 12.15C7.55 12.3667 7.625 12.55 7.775 12.7C7.925 12.85 8.10833 12.925 8.325 12.925ZM7.625 9.55H9.025V3.6H7.625V9.55ZM4.875 16.65L0 11.775V4.875L4.875 0H11.775L16.65 4.875V11.775L11.775 16.65H4.875Z" fill="#EC7A7D"/>
</svg>
