<svg width="35" height="45" viewBox="0 0 35 45" fill="none" xmlns="http://www.w3.org/2000/svg">
<path d="M4.025 44.3333C2.89722 44.3333 1.94444 43.9444 1.16667 43.1667C0.388889 42.3889 0 41.4556 0 40.3667V18.725C0 17.6361 0.388889 16.7028 1.16667 15.925C1.94444 15.1472 2.89722 14.7583 4.025 14.7583H6.94167V10.2083C6.94167 7.36944 7.924 4.95833 9.88867 2.975C11.8518 0.991667 14.2528 0 17.0917 0C19.9306 0 22.3323 0.991667 24.297 2.975C26.2601 4.95833 27.2417 7.36944 27.2417 10.2083V14.7583H30.1583C31.2861 14.7583 32.2389 15.1472 33.0167 15.925C33.7944 16.7028 34.1833 17.6361 34.1833 18.725V40.3667C34.1833 41.4556 33.7944 42.3889 33.0167 43.1667C32.2389 43.9444 31.2861 44.3333 30.1583 44.3333H4.025ZM4.025 41.0667H30.1583C30.3917 41.0667 30.576 40.9982 30.7113 40.8613C30.8482 40.726 30.9167 40.5611 30.9167 40.3667V18.725C30.9167 18.5306 30.8482 18.3649 30.7113 18.228C30.576 18.0927 30.3917 18.025 30.1583 18.025H4.025C3.79167 18.025 3.60656 18.0927 3.46967 18.228C3.33433 18.3649 3.26667 18.5306 3.26667 18.725V40.3667C3.26667 40.5611 3.33433 40.726 3.46967 40.8613C3.60656 40.9982 3.79167 41.0667 4.025 41.0667ZM17.0917 33.4833C18.1806 33.4833 19.1139 33.1038 19.8917 32.3447C20.6694 31.5871 21.0583 30.6444 21.0583 29.5167C21.0583 28.4278 20.6694 27.5038 19.8917 26.7447C19.1139 25.9871 18.1806 25.6083 17.0917 25.6083C16.0028 25.6083 15.0694 25.9871 14.2917 26.7447C13.5139 27.5038 13.125 28.4278 13.125 29.5167C13.125 30.6056 13.5139 31.5389 14.2917 32.3167C15.0694 33.0944 16.0028 33.4833 17.0917 33.4833ZM10.2083 14.7583H23.975V10.15C23.975 8.24444 23.3046 6.62044 21.9637 5.278C20.6212 3.93711 18.9972 3.26667 17.0917 3.26667C15.1861 3.26667 13.5629 3.93711 12.222 5.278C10.8796 6.62044 10.2083 8.26389 10.2083 10.2083V14.7583Z" fill="#D6DFF0"/>
</svg>
