<svg width="250" height="168" viewBox="0 0 250 168" fill="none" xmlns="http://www.w3.org/2000/svg">
<g clip-path="url(#clip0_1425_2447)">
<path opacity="0.5" d="M248.059 126.886H221.772C227.607 103.002 224.692 77.8192 213.556 55.9006H232.198C232.713 55.9006 233.207 55.6961 233.571 55.3321C233.935 54.9681 234.139 54.4744 234.139 53.9596C234.139 53.4448 233.935 52.9511 233.571 52.5871C233.207 52.2231 232.713 52.0186 232.198 52.0186H211.466C193.878 20.9627 160.526 0 122.283 0C96.8456 0 73.5759 9.27351 55.6655 24.6229H24.1238C23.6091 24.6232 23.1156 24.8278 22.7516 25.1917C22.3877 25.5557 22.1831 26.0492 22.1828 26.5639C22.1831 27.0786 22.3877 27.5721 22.7516 27.9361C23.1156 28.3 23.6091 28.5046 24.1238 28.5049H51.3842C49.2073 30.5938 47.1266 32.7751 45.142 35.0488H1.94099C1.4263 35.0491 0.932772 35.2537 0.568828 35.6176C0.204885 35.9816 0.000293859 36.4751 0 36.9898C0.000293859 37.5045 0.204885 37.998 0.568828 38.362C0.932772 38.7259 1.4263 38.9305 1.94099 38.9308H41.9077C28.0989 56.3864 19.8536 78.4439 19.8536 102.429C19.838 115.44 22.3079 128.333 27.1307 140.417H22.0164C21.5017 140.417 21.0082 140.622 20.6443 140.986C20.2803 141.35 20.0757 141.843 20.0754 142.358C20.0754 142.873 20.2799 143.367 20.6439 143.731C21.0079 144.095 21.5016 144.299 22.0164 144.299H28.7755C29.4824 145.873 30.2266 147.426 31.0082 148.957H8.04126C7.52648 148.957 7.03278 149.162 6.66877 149.526C6.30476 149.89 6.10027 150.384 6.10027 150.898C6.10027 151.413 6.30476 151.907 6.66877 152.271C7.03278 152.635 7.52648 152.839 8.04126 152.839H33.0978C35.4851 157.054 38.1682 161.094 41.1269 164.929H203.438C208.993 157.73 213.564 149.822 217.03 141.415H236.08C236.595 141.415 237.089 141.211 237.453 140.847C237.817 140.483 238.021 139.989 238.021 139.474C238.021 138.959 237.817 138.466 237.453 138.102C237.089 137.738 236.595 137.533 236.08 137.533H218.536C219.349 135.315 220.084 133.06 220.74 130.768H248.059C248.574 130.768 249.067 130.563 249.431 130.199C249.796 129.835 250 129.341 250 128.827C250 128.312 249.796 127.818 249.431 127.454C249.067 127.09 248.574 126.886 248.059 126.886Z" fill="#3D4C5E"/>
<path d="M165.333 164.929H152.924C152.924 164.499 153.095 164.086 153.399 163.782C153.703 163.478 154.115 163.306 154.545 163.306H163.709C164.139 163.306 164.552 163.477 164.856 163.781C165.161 164.086 165.332 164.498 165.332 164.929H165.333Z" fill="#909DAD"/>
<path d="M162.393 163.301H155.863L157.985 102.815L159.411 103.762L162.393 163.301Z" fill="#909DAD"/>
<path d="M164.409 164.929H152C152 164.498 152.171 164.086 152.475 163.781C152.78 163.477 153.192 163.306 153.623 163.306H162.787C163.218 163.306 163.63 163.478 163.934 163.782C164.238 164.086 164.409 164.499 164.409 164.929Z" fill="#282B31"/>
<path d="M164.409 164.929H152C152 164.498 152.171 164.086 152.475 163.781C152.78 163.477 153.192 163.306 153.623 163.306H162.787C163.218 163.306 163.63 163.478 163.934 163.782C164.238 164.086 164.409 164.499 164.409 164.929Z" fill="black" fill-opacity="0.2"/>
<path d="M158.204 103.35L189.427 121.376L189.087 119.602C189.019 119.252 188.827 118.938 188.545 118.72L168.145 102.928C167.961 102.786 167.746 102.689 167.517 102.646C167.288 102.604 167.053 102.616 166.83 102.683L162.737 103.903C162.546 103.96 162.346 103.978 162.148 103.954C161.95 103.931 161.758 103.868 161.586 103.768L158.866 102.198L158.204 103.35Z" fill="#282B31"/>
<path d="M158.204 103.35L189.427 121.376L189.087 119.602C189.019 119.252 188.827 118.938 188.545 118.72L168.145 102.928C167.961 102.786 167.746 102.689 167.517 102.646C167.288 102.604 167.053 102.616 166.83 102.683L162.737 103.903C162.546 103.96 162.346 103.978 162.148 103.954C161.95 103.931 161.758 103.868 161.586 103.768L158.866 102.198L158.204 103.35Z" fill="black" fill-opacity="0.2"/>
<path d="M157.542 102.203L126.318 120.231L128.023 120.821C128.362 120.938 128.732 120.928 129.063 120.793L152.931 111.025C153.148 110.936 153.34 110.797 153.492 110.619C153.645 110.441 153.752 110.23 153.806 110.002L154.791 105.854C154.838 105.659 154.923 105.475 155.043 105.315C155.163 105.154 155.314 105.019 155.488 104.919L158.204 103.351L157.542 102.203Z" fill="#282B31"/>
<path d="M157.542 102.203L126.318 120.231L128.023 120.821C128.362 120.938 128.732 120.928 129.063 120.793L152.931 111.025C153.148 110.936 153.34 110.797 153.492 110.619C153.645 110.441 153.752 110.23 153.806 110.002L154.791 105.854C154.838 105.659 154.923 105.475 155.043 105.315C155.163 105.154 155.314 105.019 155.488 104.919L158.204 103.351L157.542 102.203Z" fill="black" fill-opacity="0.2"/>
<path d="M158.866 102.203V66.1489L157.497 67.3302C157.227 67.5643 157.051 67.8888 157.003 68.243L153.531 93.7998C153.5 94.0308 153.523 94.266 153.6 94.486C153.678 94.706 153.806 94.9046 153.975 95.0653L157.08 97.9956C157.226 98.133 157.342 98.2986 157.421 98.4822C157.5 98.6659 157.541 98.8638 157.541 99.0637V102.203H158.866Z" fill="#282B31"/>
<path d="M158.866 102.203V66.1489L157.497 67.3302C157.227 67.5643 157.051 67.8888 157.003 68.243L153.531 93.7998C153.5 94.0308 153.523 94.266 153.6 94.486C153.678 94.706 153.806 94.9046 153.975 95.0653L157.08 97.9956C157.226 98.133 157.342 98.2986 157.421 98.4822C157.5 98.6659 157.541 98.8638 157.541 99.0637V102.203H158.866Z" fill="black" fill-opacity="0.2"/>
<path d="M161.202 163.301H155.209L157.331 102.815H159.08L161.202 163.301Z" fill="#282B31"/>
<path d="M161.202 163.301H155.209L157.331 102.815H159.08L161.202 163.301Z" fill="black" fill-opacity="0.2"/>
<path d="M159.693 103.162C159.888 102.337 159.377 101.51 158.552 101.315C157.727 101.121 156.9 101.632 156.705 102.457C156.51 103.282 157.021 104.109 157.847 104.303C158.672 104.498 159.498 103.987 159.693 103.162Z" fill="#909DAD"/>
<path d="M158.1 104.124C158.873 104.124 159.5 103.497 159.5 102.724C159.5 101.951 158.873 101.324 158.1 101.324C157.327 101.324 156.7 101.951 156.7 102.724C156.7 103.497 157.327 104.124 158.1 104.124Z" fill="#3D4C5E"/>
<path d="M126.872 120.421L156.7 102.724L156.673 102.704L126.318 120.23L126.872 120.421Z" fill="#909DAD"/>
<path d="M161.201 162.908H155.222V163.301H161.201V162.908Z" fill="#909DAD"/>
<path d="M158.424 66.5327L158.834 101.458L158.866 101.445V66.1489L158.424 66.5327Z" fill="#909DAD"/>
<path d="M189.316 120.801L159.077 103.818L159.072 103.851L189.427 121.377L189.316 120.801Z" fill="#909DAD"/>
<path d="M206.099 164.929H186.233C186.233 164.24 186.507 163.58 186.994 163.092C187.481 162.605 188.142 162.332 188.831 162.332H203.503C203.844 162.332 204.182 162.399 204.497 162.529C204.812 162.66 205.098 162.851 205.339 163.092C205.58 163.334 205.771 163.62 205.902 163.935C206.032 164.25 206.099 164.588 206.099 164.929Z" fill="#909DAD"/>
<path d="M201.394 162.326H190.939L194.337 65.4893L196.62 67.0066L201.394 162.326Z" fill="#909DAD"/>
<path d="M204.622 164.929H184.756C184.756 164.588 184.823 164.25 184.953 163.935C185.084 163.62 185.275 163.334 185.516 163.092C185.757 162.851 186.043 162.66 186.358 162.529C186.674 162.399 187.011 162.332 187.352 162.332H202.024C202.713 162.332 203.374 162.605 203.861 163.092C204.348 163.58 204.622 164.24 204.622 164.929Z" fill="#F2F2F2"/>
<path d="M194.688 66.3452L244.676 95.2061L244.067 92.0384C244.001 91.6862 243.808 91.3705 243.525 91.1511L210.251 65.3914C210.066 65.2487 209.851 65.1521 209.622 65.1094C209.392 65.0668 209.156 65.0794 208.933 65.1462L201.586 67.3412C201.395 67.3982 201.194 67.4157 200.996 67.3926C200.798 67.3696 200.607 67.3064 200.434 67.207L195.751 64.5029L194.688 66.3452Z" fill="#282B31"/>
<path d="M194.688 66.3452L244.676 95.2061L244.067 92.0384C244.001 91.6862 243.808 91.3705 243.525 91.1511L210.251 65.3914C210.066 65.2487 209.851 65.1521 209.622 65.1094C209.392 65.0668 209.156 65.0794 208.933 65.1462L201.586 67.3412C201.395 67.3982 201.194 67.4157 200.996 67.3926C200.798 67.3696 200.607 67.3064 200.434 67.207L195.751 64.5029L194.688 66.3452Z" fill="black" fill-opacity="0.2"/>
<path d="M193.628 64.5088L143.641 93.3697L146.687 94.4256C147.025 94.5422 147.394 94.5319 147.724 94.3968L187.367 78.1734L189.459 69.3646L194.689 66.3455L193.628 64.5088Z" fill="#282B31"/>
<path d="M193.628 64.5088L143.641 93.3697L146.687 94.4256C147.025 94.5422 147.394 94.5319 147.724 94.3968L187.367 78.1734L189.459 69.3646L194.689 66.3455L193.628 64.5088Z" fill="black" fill-opacity="0.2"/>
<path d="M195.747 64.5088V6.78809L193.307 8.89545C193.036 9.12919 192.861 9.45391 192.813 9.80827L187.144 51.503C187.112 51.7342 187.136 51.9696 187.213 52.1898C187.29 52.41 187.418 52.6088 187.587 52.7697L193.159 58.0325C193.305 58.1697 193.421 58.3353 193.5 58.5189C193.58 58.7026 193.621 58.9006 193.621 59.1006V64.5055L195.747 64.5088Z" fill="#282B31"/>
<path d="M195.747 64.5088V6.78809L193.307 8.89545C193.036 9.12919 192.861 9.45391 192.813 9.80827L187.144 51.503C187.112 51.7342 187.136 51.9696 187.213 52.1898C187.29 52.41 187.418 52.6088 187.587 52.7697L193.159 58.0325C193.305 58.1697 193.421 58.3353 193.5 58.5189C193.58 58.7026 193.621 58.9006 193.621 59.1006V64.5055L195.747 64.5088Z" fill="black" fill-opacity="0.2"/>
<path d="M199.487 162.326H189.892L193.289 65.4893H196.088L199.487 162.326Z" fill="#282B31"/>
<path d="M199.487 162.326H189.892L193.289 65.4893H196.088L199.487 162.326Z" fill="black" fill-opacity="0.2"/>
<path d="M196.958 66.4294C197.477 65.1759 196.882 63.7388 195.629 63.2195C194.375 62.7003 192.938 63.2956 192.419 64.5491C191.899 65.8027 192.495 67.2398 193.748 67.759C195.002 68.2782 196.439 67.683 196.958 66.4294Z" fill="#909DAD"/>
<path d="M196.591 66.202C197.064 65.0588 196.522 63.7482 195.378 63.2747C194.235 62.8012 192.925 63.344 192.451 64.4872C191.978 65.6304 192.52 66.941 193.664 67.4145C194.807 67.888 196.117 67.3452 196.591 66.202Z" fill="#3D4C5E"/>
<path d="M144.527 93.6767L192.281 65.3448L192.238 65.3115L143.641 93.3694L144.527 93.6767Z" fill="#909DAD"/>
<path d="M199.486 161.697H189.913V162.326H199.486V161.697Z" fill="#ECECEC"/>
<path d="M195.04 7.40366L195.698 63.3176L195.748 63.2976V6.78809L195.04 7.40366Z" fill="#909DAD"/>
<path d="M244.499 94.2847L196.086 67.0952L196.079 67.1485L244.676 95.2064L244.499 94.2847Z" fill="#909DAD"/>
<path d="M58.6172 79.6373C58.6172 73.214 53.4103 68.0068 46.9873 68.0068C40.5643 68.0068 35.3574 73.214 35.3574 79.6373V106.407C35.3574 112.831 40.5643 118.038 46.9873 118.038C53.4103 118.038 58.6172 112.831 58.6172 106.407V79.6373Z" fill="#25272C" fill-opacity="0.7"/>
<path d="M47.6224 164.981H46.3535V86.6081C46.3535 86.5247 46.3699 86.4422 46.4018 86.3653C46.4337 86.2883 46.4804 86.2184 46.5393 86.1595C46.5982 86.1005 46.6682 86.0538 46.7452 86.0219C46.8221 85.99 46.9046 85.9736 46.9879 85.9736C47.1562 85.9736 47.3176 86.0405 47.4366 86.1595C47.5555 86.2784 47.6224 86.4398 47.6224 86.6081V164.981Z" fill="#282B31"/>
<path d="M47.6224 164.981H46.3535V86.6081C46.3535 86.5247 46.3699 86.4422 46.4018 86.3653C46.4337 86.2883 46.4804 86.2184 46.5393 86.1595C46.5982 86.1005 46.6682 86.0538 46.7452 86.0219C46.8221 85.99 46.9046 85.9736 46.9879 85.9736C47.1562 85.9736 47.3176 86.0405 47.4366 86.1595C47.5555 86.2784 47.6224 86.4398 47.6224 86.6081V164.981Z" fill="black" fill-opacity="0.2"/>
<path d="M47.6225 97.2305L44.0943 91.1191C44.0102 90.9733 43.8716 90.867 43.709 90.8234C43.5465 90.7798 43.3733 90.8026 43.2275 90.8867C43.0817 90.9709 42.9754 91.1095 42.9318 91.272C42.8882 91.4346 42.911 91.6078 42.9951 91.7535L46.5233 97.8649L47.6225 97.2305Z" fill="#282B31"/>
<path d="M47.6225 97.2305L44.0943 91.1191C44.0102 90.9733 43.8716 90.867 43.709 90.8234C43.5465 90.7798 43.3733 90.8026 43.2275 90.8867C43.0817 90.9709 42.9754 91.1095 42.9318 91.272C42.8882 91.4346 42.911 91.6078 42.9951 91.7535L46.5233 97.8649L47.6225 97.2305Z" fill="black" fill-opacity="0.2"/>
<path d="M47.4516 104.54L50.9797 98.4285C51.0573 98.2833 51.0754 98.1136 51.0302 97.9554C50.985 97.7971 50.88 97.6626 50.7375 97.5802C50.595 97.4979 50.4261 97.4741 50.2664 97.514C50.1067 97.5539 49.9687 97.6543 49.8817 97.794L46.3535 103.905L47.4516 104.54Z" fill="#282B31"/>
<path d="M47.4516 104.54L50.9797 98.4285C51.0573 98.2833 51.0754 98.1136 51.0302 97.9554C50.985 97.7971 50.88 97.6626 50.7375 97.5802C50.595 97.4979 50.4261 97.4741 50.2664 97.514C50.1067 97.5539 49.9687 97.6543 49.8817 97.794L46.3535 103.905L47.4516 104.54Z" fill="black" fill-opacity="0.2"/>
<path d="M91.4543 56.5353C91.4543 48.379 84.8424 41.7671 76.6862 41.7671C68.5299 41.7671 61.918 48.379 61.918 56.5353V90.5315C61.918 98.6878 68.5299 105.3 76.6862 105.3C84.8424 105.3 91.4543 98.6878 91.4543 90.5315V56.5353Z" fill="#25272C" fill-opacity="0.7"/>
<path d="M77.4913 164.91H75.8809V65.3884C75.8809 65.1747 75.9657 64.9698 76.1166 64.8186C76.2676 64.6674 76.4724 64.5823 76.6861 64.582C76.8998 64.5823 77.1046 64.6674 77.2555 64.8186C77.4065 64.9698 77.4913 65.1747 77.4913 65.3884V164.91Z" fill="#282B31"/>
<path d="M77.4913 164.91H75.8809V65.3884C75.8809 65.1747 75.9657 64.9698 76.1166 64.8186C76.2676 64.6674 76.4724 64.5823 76.6861 64.582C76.8998 64.5823 77.1046 64.6674 77.2555 64.8186C77.4065 64.9698 77.4913 65.1747 77.4913 65.3884V164.91Z" fill="black" fill-opacity="0.2"/>
<path d="M77.4908 78.8763L73.011 71.1123C72.9581 71.0207 72.8877 70.9404 72.8038 70.876C72.7199 70.8116 72.6241 70.7644 72.5219 70.737C72.4198 70.7096 72.3132 70.7026 72.2083 70.7163C72.1034 70.7301 72.0023 70.7644 71.9107 70.8173C71.8191 70.8702 71.7388 70.9406 71.6744 71.0245C71.6099 71.1084 71.5627 71.2042 71.5353 71.3063C71.5079 71.4085 71.5009 71.5151 71.5147 71.62C71.5285 71.7248 71.5628 71.826 71.6157 71.9176L76.0955 79.6816L77.4908 78.8763Z" fill="#282B31"/>
<path d="M77.4908 78.8763L73.011 71.1123C72.9581 71.0207 72.8877 70.9404 72.8038 70.876C72.7199 70.8116 72.6241 70.7644 72.5219 70.737C72.4198 70.7096 72.3132 70.7026 72.2083 70.7163C72.1034 70.7301 72.0023 70.7644 71.9107 70.8173C71.8191 70.8702 71.7388 70.9406 71.6744 71.0245C71.6099 71.1084 71.5627 71.2042 71.5353 71.3063C71.5079 71.4085 71.5009 71.5151 71.5147 71.62C71.5285 71.7248 71.5628 71.826 71.6157 71.9176L76.0955 79.6816L77.4908 78.8763Z" fill="black" fill-opacity="0.2"/>
<path d="M77.2762 88.1586L81.756 80.3946C81.8088 80.303 81.8431 80.2019 81.8569 80.097C81.8707 79.9921 81.8637 79.8856 81.8363 79.7834C81.8089 79.6812 81.7617 79.5855 81.6973 79.5015C81.6329 79.4176 81.5526 79.3472 81.4609 79.2944C81.3693 79.2415 81.2682 79.2072 81.1633 79.1934C81.0584 79.1796 80.9519 79.1866 80.8497 79.214C80.7475 79.2414 80.6518 79.2887 80.5679 79.3531C80.4839 79.4175 80.4135 79.4978 80.3607 79.5894L75.8809 87.3534L77.2762 88.1586Z" fill="#282B31"/>
<path d="M77.2762 88.1586L81.756 80.3946C81.8088 80.303 81.8431 80.2019 81.8569 80.097C81.8707 79.9921 81.8637 79.8856 81.8363 79.7834C81.8089 79.6812 81.7617 79.5855 81.6973 79.5015C81.6329 79.4176 81.5526 79.3472 81.4609 79.2944C81.3693 79.2415 81.2682 79.2072 81.1633 79.1934C81.0584 79.1796 80.9519 79.1866 80.8497 79.214C80.7475 79.2414 80.6518 79.2887 80.5679 79.3531C80.4839 79.4175 80.4135 79.4978 80.3607 79.5894L75.8809 87.3534L77.2762 88.1586Z" fill="black" fill-opacity="0.2"/>
<path d="M54.1614 160.583C54.8391 159.946 55.1485 159.219 54.8812 158.707C54.5485 158.074 53.4393 157.976 52.2625 158.422C52.3224 158.269 52.379 158.11 52.43 157.947C53.06 155.936 52.6995 154.033 51.627 153.697C50.58 153.364 49.2423 154.652 48.5924 156.581C48.0545 154.372 46.6714 152.816 45.4868 153.095C44.3699 153.358 43.8231 155.154 44.1825 157.214C42.5476 156.492 40.9659 156.549 40.4668 157.419C39.9466 158.321 40.7574 159.784 42.3014 160.851C41.5693 161.096 41.0658 161.545 40.997 162.108C40.9127 162.8 41.505 163.481 42.4455 163.902C42.3934 164.029 42.3811 164.168 42.41 164.301C42.5088 164.718 43.0367 164.976 43.7277 165.004H52.562V164.996C52.7317 164.974 52.8592 164.901 52.9025 164.786C52.9156 164.745 52.9198 164.701 52.9148 164.658C52.9098 164.615 52.8958 164.573 52.8737 164.535C53.3328 164.491 53.6778 164.314 53.792 164.006C53.8797 163.77 53.8131 163.497 53.6301 163.23C54.8224 163.15 55.7375 162.628 55.7685 161.956C55.7896 161.363 55.1241 160.825 54.1614 160.583Z" fill="#25272C" fill-opacity="0.7"/>
<path d="M72.5256 156.875C73.7722 155.702 74.3423 154.366 73.8565 153.424C73.2476 152.258 71.2124 152.08 69.0395 152.901C69.1505 152.617 69.2532 152.326 69.3479 152.025C70.5058 148.328 69.8448 144.829 67.8705 144.212C65.9462 143.608 63.4861 145.966 62.2904 149.51C61.3 145.448 58.7578 142.586 56.5784 143.099C54.5253 143.582 53.5205 146.886 54.1804 150.673C51.1735 149.342 48.272 149.453 47.3481 151.053C46.3909 152.71 47.8816 155.402 50.7221 157.363C49.3756 157.814 48.4495 158.639 48.323 159.674C48.1667 160.946 49.2569 162.2 50.985 162.974C50.889 163.207 50.8665 163.463 50.9206 163.709C51.1003 164.476 52.0719 164.949 53.3419 164.999H69.5852V164.985C69.898 164.944 70.1309 164.812 70.2108 164.6C70.2353 164.524 70.2432 164.443 70.234 164.363C70.2249 164.284 70.1988 164.207 70.1576 164.138C71.0027 164.056 71.6383 163.722 71.8468 163.165C72.0087 162.731 71.8867 162.228 71.5495 161.737C73.7434 161.59 75.4315 160.628 75.4825 159.392C75.5324 158.309 74.3002 157.324 72.5256 156.875Z" fill="#282B31"/>
<path d="M72.5256 156.875C73.7722 155.702 74.3423 154.366 73.8565 153.424C73.2476 152.258 71.2124 152.08 69.0395 152.901C69.1505 152.617 69.2532 152.326 69.3479 152.025C70.5058 148.328 69.8448 144.829 67.8705 144.212C65.9462 143.608 63.4861 145.966 62.2904 149.51C61.3 145.448 58.7578 142.586 56.5784 143.099C54.5253 143.582 53.5205 146.886 54.1804 150.673C51.1735 149.342 48.272 149.453 47.3481 151.053C46.3909 152.71 47.8816 155.402 50.7221 157.363C49.3756 157.814 48.4495 158.639 48.323 159.674C48.1667 160.946 49.2569 162.2 50.985 162.974C50.889 163.207 50.8665 163.463 50.9206 163.709C51.1003 164.476 52.0719 164.949 53.3419 164.999H69.5852V164.985C69.898 164.944 70.1309 164.812 70.2108 164.6C70.2353 164.524 70.2432 164.443 70.234 164.363C70.2249 164.284 70.1988 164.207 70.1576 164.138C71.0027 164.056 71.6383 163.722 71.8468 163.165C72.0087 162.731 71.8867 162.228 71.5495 161.737C73.7434 161.59 75.4315 160.628 75.4825 159.392C75.5324 158.309 74.3002 157.324 72.5256 156.875Z" fill="black" fill-opacity="0.2"/>
<path d="M181.751 157.711C180.642 156.668 180.134 155.477 180.572 154.638C181.113 153.601 182.926 153.443 184.861 154.173C184.762 153.921 184.67 153.662 184.586 153.396C183.556 150.103 184.142 146.988 185.902 146.437C187.615 145.901 189.806 148 190.87 151.156C191.752 147.54 194.016 144.99 195.957 145.447C197.785 145.876 198.68 148.819 198.092 152.192C200.77 151.009 203.354 151.104 204.177 152.524C205.029 154.001 203.701 156.398 201.172 158.143C202.371 158.546 203.195 159.28 203.308 160.202C203.447 161.334 202.477 162.451 200.937 163.14C201.023 163.347 201.043 163.575 200.995 163.794C200.834 164.478 199.969 164.904 198.837 164.943H184.371V164.931C184.091 164.895 183.884 164.778 183.816 164.589C183.795 164.521 183.788 164.449 183.796 164.378C183.804 164.307 183.827 164.239 183.863 164.177C183.112 164.105 182.545 163.808 182.36 163.311C182.215 162.924 182.323 162.477 182.624 162.04C180.671 161.909 179.17 161.053 179.122 159.951C179.077 158.988 180.172 158.112 181.751 157.711Z" fill="#282B31"/>
<path d="M181.751 157.711C180.642 156.668 180.134 155.477 180.572 154.638C181.113 153.601 182.926 153.443 184.861 154.173C184.762 153.921 184.67 153.662 184.586 153.396C183.556 150.103 184.142 146.988 185.902 146.437C187.615 145.901 189.806 148 190.87 151.156C191.752 147.54 194.016 144.99 195.957 145.447C197.785 145.876 198.68 148.819 198.092 152.192C200.77 151.009 203.354 151.104 204.177 152.524C205.029 154.001 203.701 156.398 201.172 158.143C202.371 158.546 203.195 159.28 203.308 160.202C203.447 161.334 202.477 162.451 200.937 163.14C201.023 163.347 201.043 163.575 200.995 163.794C200.834 164.478 199.969 164.904 198.837 164.943H184.371V164.931C184.091 164.895 183.884 164.778 183.816 164.589C183.795 164.521 183.788 164.449 183.796 164.378C183.804 164.307 183.827 164.239 183.863 164.177C183.112 164.105 182.545 163.808 182.36 163.311C182.215 162.924 182.323 162.477 182.624 162.04C180.671 161.909 179.17 161.053 179.122 159.951C179.077 158.988 180.172 158.112 181.751 157.711Z" fill="black" fill-opacity="0.2"/>
<path d="M198.262 162.035C197.818 161.614 197.609 161.132 197.786 160.794C198.008 160.375 198.737 160.31 199.519 160.605C199.479 160.503 199.441 160.398 199.408 160.29C198.991 158.96 199.229 157.702 199.939 157.479C200.631 157.263 201.516 158.11 201.946 159.385C202.303 157.925 203.218 156.894 204.002 157.078C204.74 157.253 205.102 158.442 204.865 159.804C205.946 159.327 206.991 159.36 207.322 159.94C207.667 160.537 207.131 161.505 206.109 162.21C206.594 162.373 206.927 162.67 206.972 163.042C207.029 163.5 206.639 163.951 206.014 164.229C206.048 164.313 206.057 164.405 206.037 164.494C205.973 164.77 205.623 164.938 205.166 164.958H199.32C199.274 164.957 199.229 164.943 199.19 164.919C199.151 164.894 199.119 164.86 199.098 164.819C199.09 164.792 199.087 164.763 199.09 164.734C199.094 164.706 199.103 164.679 199.117 164.654C198.813 164.624 198.585 164.504 198.51 164.303C198.486 164.215 198.483 164.122 198.502 164.033C198.522 163.943 198.562 163.86 198.621 163.79C197.832 163.737 197.226 163.391 197.206 162.946C197.182 162.551 197.624 162.197 198.262 162.035Z" fill="#25272C" fill-opacity="0.7"/>
<path d="M127.918 158.13C126.871 157.146 126.393 156.022 126.809 155.234C127.319 154.256 129.027 154.106 130.852 154.79C130.759 154.553 130.672 154.308 130.593 154.056C129.621 150.95 130.176 148.016 131.833 147.496C133.448 146.991 135.513 148.969 136.516 151.944C137.348 148.535 139.482 146.132 141.311 146.563C143.033 146.967 143.877 149.741 143.324 152.92C145.847 151.811 148.283 151.894 149.058 153.238C149.862 154.629 148.615 156.889 146.227 158.535C147.357 158.914 148.134 159.606 148.241 160.476C148.371 161.543 147.456 162.595 146.005 163.248C146.086 163.444 146.105 163.659 146.059 163.865C145.908 164.508 145.093 164.906 144.026 164.948H130.384V164.937C130.121 164.901 129.926 164.791 129.859 164.613C129.839 164.549 129.832 164.481 129.839 164.415C129.847 164.348 129.868 164.283 129.902 164.226C129.194 164.157 128.661 163.876 128.486 163.408C128.349 163.044 128.452 162.623 128.734 162.21C126.893 162.087 125.479 161.28 125.434 160.242C125.397 159.333 126.428 158.507 127.918 158.13Z" fill="#25272C" fill-opacity="0.7"/>
<path d="M143.058 161.088C142.465 160.533 142.194 159.896 142.428 159.448C142.718 158.893 143.685 158.809 144.718 159.199C144.666 159.064 144.617 158.925 144.571 158.783C144.017 157.025 144.335 155.362 145.274 155.068C146.188 154.781 147.358 155.902 147.926 157.586C148.398 155.655 149.607 154.295 150.643 154.539C151.619 154.768 152.097 156.34 151.783 158.14C153.212 157.509 154.591 157.559 155.03 158.32C155.486 159.108 154.777 160.388 153.427 161.314C154.067 161.529 154.507 161.921 154.567 162.413C154.641 163.018 154.123 163.614 153.301 163.982C153.347 164.092 153.358 164.214 153.332 164.331C153.246 164.696 152.784 164.921 152.181 164.945H144.456V164.938C144.394 164.938 144.334 164.921 144.281 164.888C144.229 164.856 144.186 164.81 144.159 164.755C144.146 164.718 144.143 164.679 144.147 164.641C144.151 164.603 144.164 164.566 144.184 164.533C143.783 164.494 143.48 164.336 143.381 164.071C143.303 163.864 143.362 163.627 143.522 163.392C142.479 163.322 141.677 162.865 141.653 162.283C141.63 161.77 142.214 161.302 143.058 161.088Z" fill="#282B31"/>
<path d="M143.058 161.088C142.465 160.533 142.194 159.896 142.428 159.448C142.718 158.893 143.685 158.809 144.718 159.199C144.666 159.064 144.617 158.925 144.571 158.783C144.017 157.025 144.335 155.362 145.274 155.068C146.188 154.781 147.358 155.902 147.926 157.586C148.398 155.655 149.607 154.295 150.643 154.539C151.619 154.768 152.097 156.34 151.783 158.14C153.212 157.509 154.591 157.559 155.03 158.32C155.486 159.108 154.777 160.388 153.427 161.314C154.067 161.529 154.507 161.921 154.567 162.413C154.641 163.018 154.123 163.614 153.301 163.982C153.347 164.092 153.358 164.214 153.332 164.331C153.246 164.696 152.784 164.921 152.181 164.945H144.456V164.938C144.394 164.938 144.334 164.921 144.281 164.888C144.229 164.856 144.186 164.81 144.159 164.755C144.146 164.718 144.143 164.679 144.147 164.641C144.151 164.603 144.164 164.566 144.184 164.533C143.783 164.494 143.48 164.336 143.381 164.071C143.303 163.864 143.362 163.627 143.522 163.392C142.479 163.322 141.677 162.865 141.653 162.283C141.63 161.77 142.214 161.302 143.058 161.088Z" fill="black" fill-opacity="0.2"/>
<path d="M150.733 69.1561C150.64 69.1564 150.547 69.1706 150.459 69.1982C150.459 69.1527 150.459 69.1073 150.459 69.0607C150.458 68.5963 150.289 68.1479 149.984 67.798C149.678 67.4482 149.257 67.2204 148.797 67.1568C148.337 67.0932 147.869 67.198 147.481 67.4519C147.092 67.7057 146.808 68.0916 146.681 68.5383C146.571 68.5065 146.456 68.4904 146.341 68.4906C146.017 68.5003 145.709 68.6359 145.483 68.8687C145.257 69.1016 145.131 69.4133 145.131 69.7378C145.131 70.0623 145.257 70.374 145.483 70.6069C145.709 70.8397 146.017 70.9754 146.341 70.985H146.407H150.733C150.97 70.9768 151.194 70.8768 151.359 70.7062C151.524 70.5356 151.616 70.3077 151.616 70.0706C151.616 69.8334 151.524 69.6055 151.359 69.4349C151.194 69.2643 150.97 69.1643 150.733 69.1561Z" fill="#25272C" fill-opacity="0.7"/>
<path d="M117.125 48.1366C116.624 48.1365 116.132 48.2722 115.702 48.5293C115.467 47.5182 114.866 46.63 114.014 46.036C113.163 45.4421 112.122 45.1844 111.092 45.3128C110.536 44.0723 109.571 43.0603 108.358 42.4454C107.146 41.8306 105.759 41.6503 104.43 41.9345C103.1 42.2188 101.909 42.9504 101.053 44.0073C100.198 45.0641 99.7316 46.3823 99.7312 47.7418C99.7312 47.7762 99.7312 47.8117 99.7312 47.846C99.3157 47.6501 98.8615 47.55 98.4021 47.5533C97.9428 47.5566 97.49 47.6631 97.0774 47.8649C96.6647 48.0668 96.3027 48.3588 96.0182 48.7194C95.7336 49.08 95.5338 49.5 95.4334 49.9483C95.333 50.3966 95.3348 50.8617 95.4384 51.3092C95.542 51.7567 95.745 52.1752 96.0322 52.5338C96.3194 52.8923 96.6835 53.1816 97.0976 53.3805C97.5117 53.5793 97.9653 53.6824 98.4246 53.6823H117.125C117.86 53.6823 118.565 53.3902 119.085 52.8702C119.605 52.3502 119.898 51.6449 119.898 50.9095C119.898 50.1741 119.605 49.4688 119.085 48.9488C118.565 48.4288 117.86 48.1366 117.125 48.1366Z" fill="#25272C" fill-opacity="0.7"/>
<path d="M88.6203 114.144C88.95 114.143 89.2736 114.233 89.5564 114.402C89.6975 113.794 90.0402 113.252 90.5288 112.863C91.0174 112.475 91.6231 112.264 92.2472 112.264C92.361 112.264 92.4747 112.272 92.5877 112.286C92.9534 111.47 93.5881 110.804 94.3857 110.399C95.1833 109.994 96.0956 109.875 96.9702 110.062C97.8449 110.249 98.6289 110.731 99.1914 111.426C99.754 112.121 100.061 112.989 100.061 113.883V113.953C100.33 113.825 100.624 113.758 100.922 113.759C101.448 113.771 101.949 113.989 102.317 114.366C102.685 114.742 102.891 115.248 102.891 115.775C102.891 116.301 102.685 116.807 102.317 117.184C101.949 117.56 101.448 117.778 100.922 117.79H88.6203C88.3808 117.79 88.1437 117.743 87.9225 117.652C87.7013 117.56 87.5003 117.426 87.3309 117.256C87.1616 117.087 87.0273 116.886 86.9357 116.665C86.844 116.444 86.7969 116.206 86.7969 115.967C86.7969 115.728 86.844 115.49 86.9357 115.269C87.0273 115.048 87.1616 114.847 87.3309 114.678C87.5003 114.508 87.7013 114.374 87.9225 114.282C88.1437 114.191 88.3808 114.144 88.6203 114.144Z" fill="#25272C" fill-opacity="0.7"/>
<path d="M210.983 154.036L210.954 154.147C210.889 154.373 210.8 154.591 210.689 154.798C210.486 155.24 210.153 155.609 209.734 155.856C209.315 156.103 208.831 156.217 208.346 156.181C208.111 156.178 207.876 156.151 207.647 156.099L207.536 156.071L207.566 155.96C207.631 155.735 207.72 155.517 207.831 155.311C208.034 154.868 208.367 154.499 208.786 154.252C209.205 154.005 209.69 153.891 210.175 153.927C210.409 153.93 210.643 153.957 210.872 154.008L210.983 154.036ZM207.821 155.902C208.124 155.956 208.955 156.051 209.618 155.66C210.281 155.268 210.6 154.495 210.699 154.204C210.395 154.15 209.566 154.055 208.901 154.447C208.237 154.838 207.92 155.612 207.821 155.902Z" fill="#25272C" fill-opacity="0.7"/>
<path d="M209.405 156.689C208.35 157.087 207.175 156.561 207.175 156.561C207.175 156.561 207.709 155.388 208.765 154.991C209.821 154.594 210.996 155.12 210.996 155.12C210.996 155.12 210.456 156.292 209.405 156.689Z" fill="#282B31"/>
<path d="M209.405 156.689C208.35 157.087 207.175 156.561 207.175 156.561C207.175 156.561 207.709 155.388 208.765 154.991C209.821 154.594 210.996 155.12 210.996 155.12C210.996 155.12 210.456 156.292 209.405 156.689Z" fill="black" fill-opacity="0.2"/>
<path d="M207.142 141.356V141.498C207.132 141.79 207.091 142.08 207.019 142.363C206.908 142.806 206.674 143.447 206.186 143.929C205.698 144.41 205.059 144.636 204.61 144.741C204.326 144.808 204.035 144.845 203.743 144.852H203.601V144.71C203.611 144.417 203.653 144.127 203.725 143.843C203.836 143.4 204.069 142.76 204.557 142.277C205.045 141.795 205.684 141.57 206.134 141.465C206.418 141.399 206.708 141.361 207 141.354L207.142 141.356ZM203.891 144.564C204.274 144.538 205.305 144.401 205.986 143.728C206.667 143.055 206.818 142.026 206.85 141.644C206.469 141.672 205.437 141.807 204.755 142.48C204.073 143.154 203.923 144.188 203.891 144.564Z" fill="#25272C" fill-opacity="0.7"/>
<path d="M206.035 145.037C204.881 145.837 203.303 145.557 203.303 145.557C203.303 145.557 203.594 143.981 204.745 143.181C205.895 142.382 207.476 142.661 207.476 142.661C207.476 142.661 207.187 144.237 206.035 145.037Z" fill="#282B31"/>
<path d="M206.035 145.037C204.881 145.837 203.303 145.557 203.303 145.557C203.303 145.557 203.594 143.981 204.745 143.181C205.895 142.382 207.476 142.661 207.476 142.661C207.476 142.661 207.187 144.237 206.035 145.037Z" fill="black" fill-opacity="0.2"/>
<path d="M60.7533 137.633L60.8431 137.71C61.0238 137.873 61.187 138.055 61.3301 138.252C61.65 138.642 61.8435 139.12 61.8845 139.622C61.9255 140.125 61.8122 140.628 61.5596 141.064C61.4511 141.282 61.3195 141.487 61.167 141.677L61.0916 141.768L61.0006 141.692C60.8205 141.528 60.6577 141.346 60.5148 141.149C60.1948 140.76 60.0014 140.282 59.9604 139.779C59.9193 139.277 60.0327 138.774 60.2852 138.338C60.3943 138.12 60.5255 137.914 60.6768 137.723L60.7533 137.633ZM61.0627 141.427C61.2502 141.168 61.7149 140.437 61.6506 139.641C61.5863 138.844 61.0084 138.199 60.781 137.977C60.5947 138.237 60.1289 138.968 60.1943 139.763C60.2597 140.558 60.8365 141.203 61.0627 141.427Z" fill="#25272C" fill-opacity="0.7"/>
<path d="M62.5126 140.306C62.4017 141.471 61.3824 142.329 61.3824 142.329C61.3824 142.329 60.5317 141.299 60.6381 140.135C60.7446 138.972 61.7672 138.112 61.7672 138.112C61.7672 138.112 62.6179 139.146 62.5126 140.306Z" fill="#282B31"/>
<path d="M62.5126 140.306C62.4017 141.471 61.3824 142.329 61.3824 142.329C61.3824 142.329 60.5317 141.299 60.6381 140.135C60.7446 138.972 61.7672 138.112 61.7672 138.112C61.7672 138.112 62.6179 139.146 62.5126 140.306Z" fill="black" fill-opacity="0.2"/>
<path d="M38.3105 151.084L38.4093 151.077C38.6139 151.069 38.8187 151.083 39.0204 151.118C39.4412 151.164 39.8379 151.337 40.1576 151.615C40.4773 151.892 40.7047 152.261 40.8094 152.671C40.8725 152.866 40.9141 153.067 40.9337 153.271L40.9414 153.37L40.8416 153.376C40.6371 153.384 40.4322 153.371 40.2305 153.336C39.8099 153.29 39.4134 153.117 39.0939 152.839C38.7744 152.562 38.5472 152.194 38.4425 151.784C38.38 151.588 38.338 151.387 38.3172 151.183L38.3105 151.084ZM40.724 153.184C40.6852 152.919 40.5355 152.206 40.0286 151.765C39.5217 151.323 38.7952 151.274 38.5268 151.272C38.5668 151.537 38.7165 152.25 39.2223 152.692C39.728 153.133 40.4556 153.182 40.724 153.184Z" fill="#25272C" fill-opacity="0.7"/>
<path d="M40.9408 151.662C41.5608 152.424 41.4488 153.542 41.4488 153.542C41.4488 153.542 40.3319 153.423 39.713 152.655C39.0941 151.888 39.205 150.77 39.205 150.77C39.205 150.77 40.3208 150.899 40.9408 151.662Z" fill="#282B31"/>
<path d="M40.9408 151.662C41.5608 152.424 41.4488 153.542 41.4488 153.542C41.4488 153.542 40.3319 153.423 39.713 152.655C39.0941 151.888 39.205 150.77 39.205 150.77C39.205 150.77 40.3208 150.899 40.9408 151.662Z" fill="black" fill-opacity="0.2"/>
<path d="M177.381 148.056H177.492C177.721 148.056 177.95 148.081 178.175 148.129C178.646 148.2 179.083 148.413 179.429 148.739C179.775 149.066 180.012 149.491 180.109 149.957C180.171 150.178 180.208 150.405 180.22 150.634V150.745H180.109C179.88 150.745 179.651 150.72 179.426 150.672C178.956 150.602 178.518 150.389 178.172 150.062C177.827 149.736 177.589 149.311 177.492 148.845C177.431 148.624 177.394 148.396 177.381 148.167V148.056ZM179.992 150.521C179.96 150.222 179.824 149.412 179.276 148.897C178.728 148.383 177.917 148.292 177.613 148.277C177.645 148.577 177.779 149.387 178.327 149.9C178.875 150.414 179.691 150.51 179.992 150.521Z" fill="#25272C" fill-opacity="0.7"/>
<path d="M180.304 148.824C180.97 149.711 180.788 150.955 180.788 150.955C180.788 150.955 179.541 150.77 178.881 149.887C178.221 149.004 178.399 147.755 178.399 147.755C178.399 147.755 179.644 147.94 180.304 148.824Z" fill="#282B31"/>
<path d="M180.304 148.824C180.97 149.711 180.788 150.955 180.788 150.955C180.788 150.955 179.541 150.77 178.881 149.887C178.221 149.004 178.399 147.755 178.399 147.755C178.399 147.755 179.644 147.94 180.304 148.824Z" fill="black" fill-opacity="0.2"/>
<path d="M146.458 158.121H94.8916L95.8299 154.724L97.6622 148.091L98.7714 144.075L100.407 138.154L103.561 126.74L105.197 120.818L116.697 79.1924H124.652L128.867 94.4475L136.153 120.818L137.789 126.74L140.942 138.154L142.578 144.075L145.519 154.724L146.458 158.121Z" fill="#EC7A7D"/>
<path d="M146.458 158.121H94.8916L95.8299 154.725L97.6622 148.092C133.598 145.969 128.867 94.4487 128.867 94.4487L145.519 154.725L146.458 158.121Z" fill="url(#paint0_linear_1425_2447)"/>
<path d="M157.007 158.121H84.3398V165.03H157.007V158.121Z" fill="url(#paint1_linear_1425_2447)"/>
<path d="M146.458 158.121H94.8916L95.8299 154.724H145.519L146.458 158.121Z" fill="url(#paint2_linear_1425_2447)"/>
<path d="M137.788 126.74C137.788 126.74 136.708 149.53 110.524 154.743L145.519 154.725L137.788 126.74Z" fill="url(#paint3_linear_1425_2447)"/>
<path d="M137.788 126.74C137.788 126.74 136.708 149.53 110.524 154.743L145.519 154.725L137.788 126.74Z" fill="black" fill-opacity="0.2"/>
<path d="M137.789 126.74H103.561L105.197 120.818H136.153L137.789 126.74Z" fill="white"/>
<path d="M142.578 144.075H98.7715L100.407 138.154H140.942L142.578 144.075Z" fill="white"/>
<path d="M140.195 158.121C140.195 158.121 130.563 165.393 94.8867 165.03H157.004V158.121H140.195Z" fill="url(#paint4_linear_1425_2447)"/>
<path d="M140.195 158.121C140.195 158.121 130.563 165.393 94.8867 165.03H157.004V158.121H140.195Z" fill="black" fill-opacity="0.2"/>
<path d="M167.686 164.94H72.6513C72.0063 164.94 71.4834 165.463 71.4834 166.108V166.141C71.4834 166.786 72.0063 167.309 72.6513 167.309H167.686C168.331 167.309 168.854 166.786 168.854 166.141V166.108C168.854 165.463 168.331 164.94 167.686 164.94Z" fill="url(#paint5_linear_1425_2447)"/>
<path d="M167.686 164.94H72.6513C72.0063 164.94 71.4834 165.463 71.4834 166.108V166.141C71.4834 166.786 72.0063 167.309 72.6513 167.309H167.686C168.331 167.309 168.854 166.786 168.854 166.141V166.108C168.854 165.463 168.331 164.94 167.686 164.94Z" fill="black" fill-opacity="0.2"/>
<path d="M74.4518 164.94H59.0625C58.4174 164.94 57.8945 165.463 57.8945 166.108V166.141C57.8945 166.786 58.4174 167.309 59.0625 167.309H74.4518C75.0968 167.309 75.6197 166.786 75.6197 166.141V166.108C75.6197 165.463 75.0968 164.94 74.4518 164.94Z" fill="url(#paint6_linear_1425_2447)"/>
<path d="M74.4518 164.94H59.0625C58.4174 164.94 57.8945 165.463 57.8945 166.108V166.141C57.8945 166.786 58.4174 167.309 59.0625 167.309H74.4518C75.0968 167.309 75.6197 166.786 75.6197 166.141V166.108C75.6197 165.463 75.0968 164.94 74.4518 164.94Z" fill="black" fill-opacity="0.2"/>
<path d="M52.0079 164.94H35.8388C35.1938 164.94 34.6709 165.463 34.6709 166.108V166.141C34.6709 166.786 35.1938 167.309 35.8388 167.309H52.0079C52.6529 167.309 53.1758 166.786 53.1758 166.141V166.108C53.1758 165.463 52.6529 164.94 52.0079 164.94Z" fill="#242850"/>
<path d="M188.201 164.94H174.929C174.284 164.94 173.761 165.463 173.761 166.108V166.141C173.761 166.786 174.284 167.309 174.929 167.309H188.201C188.846 167.309 189.369 166.786 189.369 166.141V166.108C189.369 165.463 188.846 164.94 188.201 164.94Z" fill="url(#paint7_linear_1425_2447)"/>
<path d="M188.201 164.94H174.929C174.284 164.94 173.761 165.463 173.761 166.108V166.141C173.761 166.786 174.284 167.309 174.929 167.309H188.201C188.846 167.309 189.369 166.786 189.369 166.141V166.108C189.369 165.463 188.846 164.94 188.201 164.94Z" fill="black" fill-opacity="0.2"/>
<path d="M205.552 164.94H195.457C194.812 164.94 194.289 165.463 194.289 166.108V166.141C194.289 166.786 194.812 167.309 195.457 167.309H205.552C206.197 167.309 206.72 166.786 206.72 166.141V166.108C206.72 165.463 206.197 164.94 205.552 164.94Z" fill="url(#paint8_linear_1425_2447)"/>
<path d="M205.552 164.94H195.457C194.812 164.94 194.289 165.463 194.289 166.108V166.141C194.289 166.786 194.812 167.309 195.457 167.309H205.552C206.197 167.309 206.72 166.786 206.72 166.141V166.108C206.72 165.463 206.197 164.94 205.552 164.94Z" fill="black" fill-opacity="0.2"/>
</g>
<defs>
<linearGradient id="paint0_linear_1425_2447" x1="120.675" y1="94.4487" x2="120.675" y2="158.121" gradientUnits="userSpaceOnUse">
<stop stop-color="#973537"/>
<stop offset="1" stop-color="#DF5B5D"/>
</linearGradient>
<linearGradient id="paint1_linear_1425_2447" x1="120.674" y1="158.121" x2="120.674" y2="165.03" gradientUnits="userSpaceOnUse">
<stop stop-color="#2C2933"/>
<stop offset="1" stop-color="#300A0B"/>
</linearGradient>
<linearGradient id="paint2_linear_1425_2447" x1="120.675" y1="154.724" x2="120.675" y2="158.121" gradientUnits="userSpaceOnUse">
<stop stop-color="#2C2933"/>
<stop offset="1" stop-color="#300A0B"/>
</linearGradient>
<linearGradient id="paint3_linear_1425_2447" x1="145.519" y1="126.74" x2="105.635" y2="139.723" gradientUnits="userSpaceOnUse">
<stop offset="0.0673488" stop-color="#0B426A"/>
<stop offset="0.806494" stop-color="#602D26"/>
</linearGradient>
<linearGradient id="paint4_linear_1425_2447" x1="157.004" y1="158.121" x2="144.891" y2="186.435" gradientUnits="userSpaceOnUse">
<stop offset="0.0673488" stop-color="#0B426A"/>
<stop offset="0.806494" stop-color="#602D26"/>
</linearGradient>
<linearGradient id="paint5_linear_1425_2447" x1="168.854" y1="164.94" x2="167.792" y2="176.305" gradientUnits="userSpaceOnUse">
<stop offset="0.0673488" stop-color="#0B426A"/>
<stop offset="0.806494" stop-color="#602D26"/>
</linearGradient>
<linearGradient id="paint6_linear_1425_2447" x1="92.7909" y1="163.953" x2="56.4248" y2="178.137" gradientUnits="userSpaceOnUse">
<stop offset="0.388849" stop-color="#206DA6"/>
<stop offset="0.806494" stop-color="#A84A3E"/>
</linearGradient>
<linearGradient id="paint7_linear_1425_2447" x1="189.369" y1="164.94" x2="184.381" y2="173.498" gradientUnits="userSpaceOnUse">
<stop offset="0.0673488" stop-color="#0B426A"/>
<stop offset="0.806494" stop-color="#602D26"/>
</linearGradient>
<linearGradient id="paint8_linear_1425_2447" x1="206.72" y1="164.94" x2="201.257" y2="172.407" gradientUnits="userSpaceOnUse">
<stop offset="0.0673488" stop-color="#0B426A"/>
<stop offset="0.806494" stop-color="#602D26"/>
</linearGradient>
<clipPath id="clip0_1425_2447">
<rect width="250" height="167.309" fill="white"/>
</clipPath>
</defs>
</svg>
