<svg width="32" height="32" viewBox="0 0 32 32" fill="none" xmlns="http://www.w3.org/2000/svg">
<mask id="mask0_635_3779" style="mask-type:alpha" maskUnits="userSpaceOnUse" x="0" y="0" width="32" height="32">
<rect width="32" height="32" fill="#D9D9D9"/>
</mask>
<g mask="url(#mask0_635_3779)">
<path d="M12.359 21.8974H19.3846C19.6085 21.8974 19.8047 21.85 19.9731 21.7551C20.1414 21.6603 20.2667 21.506 20.3487 21.2923L22.6359 15.9897C22.6974 15.8274 22.7436 15.6735 22.7744 15.5282C22.8051 15.3829 22.8205 15.2462 22.8205 15.118V14.5128C22.8205 14.3231 22.7654 14.1731 22.6551 14.0628C22.5449 13.9526 22.3949 13.8974 22.2051 13.8974H15.3026L16.0552 10.0329C16.0971 9.84342 16.0846 9.6658 16.018 9.5C15.9513 9.33418 15.8573 9.19059 15.7359 9.06923L15.4872 8.8205L11.3026 13.3333C11.2103 13.433 11.141 13.5451 11.0949 13.6696C11.0487 13.7941 11.0256 13.9385 11.0256 14.1026V20.5641C11.0256 20.9308 11.1562 21.2447 11.4173 21.5058C11.6784 21.7669 11.9923 21.8974 12.359 21.8974ZM16.0045 28C14.3451 28 12.785 27.6851 11.3241 27.0554C9.86331 26.4256 8.59259 25.5709 7.51197 24.4913C6.43137 23.4117 5.57589 22.1422 4.94553 20.6827C4.31518 19.2233 4 17.6638 4 16.0045C4 14.3451 4.31488 12.785 4.94463 11.3241C5.57441 9.86331 6.4291 8.59259 7.5087 7.51197C8.5883 6.43137 9.85782 5.57589 11.3173 4.94553C12.7767 4.31518 14.3362 4 15.9955 4C17.6549 4 19.215 4.31488 20.6759 4.94463C22.1367 5.57441 23.4074 6.4291 24.488 7.5087C25.5686 8.5883 26.4241 9.85782 27.0545 11.3173C27.6848 12.7767 28 14.3362 28 15.9955C28 17.6549 27.6851 19.215 27.0554 20.6759C26.4256 22.1367 25.5709 23.4074 24.4913 24.488C23.4117 25.5686 22.1422 26.4241 20.6827 27.0545C19.2233 27.6848 17.6638 28 16.0045 28ZM16 26.6667C18.9778 26.6667 21.5 25.6333 23.5667 23.5667C25.6333 21.5 26.6667 18.9778 26.6667 16C26.6667 13.0222 25.6333 10.5 23.5667 8.43333C21.5 6.36667 18.9778 5.33333 16 5.33333C13.0222 5.33333 10.5 6.36667 8.43333 8.43333C6.36667 10.5 5.33333 13.0222 5.33333 16C5.33333 18.9778 6.36667 21.5 8.43333 23.5667C10.5 25.6333 13.0222 26.6667 16 26.6667Z" fill="#AF48A5"/>
</g>
</svg>
