<svg width="72" height="72" viewBox="0 0 72 72" fill="none" xmlns="http://www.w3.org/2000/svg">
<circle cx="36" cy="36" r="36" fill="#161616"/>
<path d="M30.6 44.4H41.8V41.6H30.6V44.4ZM30.6 38.8H41.8V36H30.6V38.8ZM27.8 50C27.03 50 26.3711 49.7261 25.8232 49.1782C25.2744 48.6294 25 47.97 25 47.2V24.8C25 24.03 25.2744 23.3706 25.8232 22.8218C26.3711 22.2739 27.03 22 27.8 22H39L47.4 30.4V47.2C47.4 47.97 47.1261 48.6294 46.5782 49.1782C46.0294 49.7261 45.37 50 44.6 50H27.8ZM37.6 31.8H44.6L37.6 24.8V31.8Z" fill="#C23D2C"/>
</svg>
