<svg width="24" height="24" viewBox="0 0 24 24" fill="none" xmlns="http://www.w3.org/2000/svg">
<path d="M8.00039 13.625H15.8004V13.1C15.8004 12.4 15.4421 11.8333 14.7254 11.4C14.0087 10.9667 13.0671 10.75 11.9004 10.75C10.7504 10.75 9.81306 10.9667 9.08839 11.4C8.36306 11.8333 8.00039 12.4 8.00039 13.1V13.625ZM11.9004 9.675C12.4337 9.675 12.8881 9.48333 13.2634 9.1C13.6381 8.71667 13.8254 8.26667 13.8254 7.75C13.8254 7.21667 13.6381 6.76267 13.2634 6.388C12.8881 6.01267 12.4337 5.825 11.9004 5.825C11.3837 5.825 10.9337 6.01267 10.5504 6.388C10.1671 6.76267 9.97539 7.21667 9.97539 7.75C9.97539 8.26667 10.1671 8.71667 10.5504 9.1C10.9337 9.48333 11.3837 9.675 11.9004 9.675ZM2.15039 21.4V3.875C2.15039 3.35833 2.33372 2.91667 2.70039 2.55C3.06706 2.18333 3.50872 2 4.02539 2H19.7754C20.2921 2 20.7337 2.18333 21.1004 2.55C21.4671 2.91667 21.6504 3.35833 21.6504 3.875V15.675C21.6504 16.1917 21.4671 16.6333 21.1004 17C20.7337 17.3667 20.2921 17.55 19.7754 17.55H6.00039L2.15039 21.4ZM4.02539 16.875L5.22539 15.675H19.7754V3.875H4.02539V16.875Z" fill="white"/>
</svg>
