<svg width="31" height="22" viewBox="0 0 31 22" fill="none" xmlns="http://www.w3.org/2000/svg">
<path d="M0 22V16.5C0 15.7208 0.2695 15.0677 0.8085 14.5406C1.34658 14.0135 1.99375 13.75 2.75 13.75H7.25313C7.71146 13.75 8.14687 13.8646 8.55937 14.0938C8.97188 14.3229 9.30417 14.6323 9.55625 15.0219C10.2208 15.9156 11.0403 16.6146 12.0147 17.1188C12.9882 17.6229 14.025 17.875 15.125 17.875C16.2479 17.875 17.2966 17.6229 18.271 17.1188C19.2445 16.6146 20.0521 15.9156 20.6937 15.0219C20.9917 14.6323 21.3409 14.3229 21.7415 14.0938C22.143 13.8646 22.5615 13.75 22.9969 13.75H27.5C28.2792 13.75 28.9323 14.0135 29.4594 14.5406C29.9865 15.0677 30.25 15.7208 30.25 16.5V22H20.625V18.8719C19.8229 19.4448 18.958 19.8802 18.0304 20.1781C17.1018 20.476 16.1333 20.625 15.125 20.625C14.1396 20.625 13.1771 20.4705 12.2375 20.1616C11.2979 19.8518 10.4271 19.4104 9.625 18.8375V22H0ZM15.125 16.5C14.2542 16.5 13.4292 16.2992 12.65 15.8978C11.8708 15.4972 11.2177 14.9417 10.6906 14.2313C10.301 13.6583 9.81429 13.206 9.23037 12.8741C8.64554 12.5414 8.00937 12.375 7.32187 12.375C7.82604 11.5271 8.89167 10.8565 10.5187 10.3634C12.1458 9.87112 13.6812 9.625 15.125 9.625C16.5688 9.625 18.1042 9.87112 19.7313 10.3634C21.3583 10.8565 22.424 11.5271 22.9281 12.375C22.2635 12.375 21.6333 12.5414 21.0375 12.8741C20.4417 13.206 19.949 13.6583 19.5594 14.2313C19.0552 14.9646 18.4135 15.526 17.6344 15.9156C16.8552 16.3052 16.0187 16.5 15.125 16.5ZM4.125 12.375C2.97917 12.375 2.00521 11.974 1.20312 11.1719C0.401042 10.3698 0 9.39583 0 8.25C0 7.08125 0.401042 6.10133 1.20312 5.31025C2.00521 4.52008 2.97917 4.125 4.125 4.125C5.29375 4.125 6.27367 4.52008 7.06475 5.31025C7.85492 6.10133 8.25 7.08125 8.25 8.25C8.25 9.39583 7.85492 10.3698 7.06475 11.1719C6.27367 11.974 5.29375 12.375 4.125 12.375ZM26.125 12.375C24.9792 12.375 24.0052 11.974 23.2031 11.1719C22.401 10.3698 22 9.39583 22 8.25C22 7.08125 22.401 6.10133 23.2031 5.31025C24.0052 4.52008 24.9792 4.125 26.125 4.125C27.2938 4.125 28.2737 4.52008 29.0648 5.31025C29.8549 6.10133 30.25 7.08125 30.25 8.25C30.25 9.39583 29.8549 10.3698 29.0648 11.1719C28.2737 11.974 27.2938 12.375 26.125 12.375ZM15.125 8.25C13.9792 8.25 13.0052 7.84896 12.2031 7.04688C11.401 6.24479 11 5.27083 11 4.125C11 2.95625 11.401 1.97633 12.2031 1.18525C13.0052 0.395083 13.9792 0 15.125 0C16.2938 0 17.2732 0.395083 18.0634 1.18525C18.8545 1.97633 19.25 2.95625 19.25 4.125C19.25 5.27083 18.8545 6.24479 18.0634 7.04688C17.2732 7.84896 16.2938 8.25 15.125 8.25Z" fill="#B2BBC6"/>
</svg>
