<svg width="153" height="35" viewBox="0 0 153 35" fill="none" xmlns="http://www.w3.org/2000/svg">
<path d="M148.753 0.797295L140.462 18.5061L137.329 11.7871H133.943L139.088 22.7769H141.824L152.113 0.800287V0.797295H148.753Z" fill="#A3ADBB"/>
<path d="M60.6539 4.00293H67.3923V9.94653H60.6539V4.00293ZM7.64072 33.6813H14.6804L22.3211 11.7863H15.582L11.2898 25.8553H11.2026L6.91046 11.7863H0L7.64072 33.6813ZM32.3652 15.9358C34.7258 15.9358 36.3577 17.6887 36.6146 20.2545H27.6433C28.1587 17.6453 29.5749 15.9358 32.3652 15.9358ZM32.7086 29.4906C29.747 29.4906 27.9446 27.5663 27.6005 24.6158H43.4402C43.483 19.9117 42.2388 16.1491 39.619 13.7974C37.7739 12.0864 35.3269 11.1456 32.2368 11.1456C25.6261 11.1456 21.0326 16.1491 21.0326 22.6915C21.0326 29.2773 25.412 34.3234 32.6658 34.3234C35.4133 34.3234 37.6018 33.5959 39.4049 32.355C41.3365 31.0309 42.7099 29.1059 43.0968 27.1816H36.6574C36.0143 28.6366 34.683 29.4906 32.7086 29.4906ZM45.0284 33.6813H51.7247V23.6323C51.7247 19.0577 54.4715 17.0465 58.6773 17.6026H58.8065V11.8304C58.4632 11.7017 58.077 11.659 57.4331 11.659C54.8156 11.659 53.0553 12.8566 51.5527 15.4216H51.4235V11.7863H45.0284V33.6813ZM60.6539 33.6813H67.3923V11.7863H60.6539V33.6813ZM69.239 33.6813H88.0403V28.421H77.3937V28.2938L87.5685 16.9193V11.7863H69.239V17.0465H79.5401V17.1753L69.239 28.6366V33.6813ZM99.9296 29.4487C96.7532 29.4487 95.08 26.7968 95.08 22.7776C95.08 18.7149 96.7532 16.1049 99.9296 16.1049C103.107 16.1049 104.867 18.7149 104.867 22.7776C104.867 26.7968 103.107 29.4487 99.9296 29.4487ZM99.9732 11.1875C92.9764 11.1875 88.2973 16.1918 88.2973 22.7776C88.2973 29.3199 92.9764 34.3661 99.9732 34.3661C106.969 34.3661 111.648 29.3199 111.648 22.7776C111.648 16.1918 106.969 11.1875 99.9732 11.1875ZM113.108 33.6813H119.805V21.4939C119.805 18.7149 121.435 16.7479 123.838 16.7479C126.157 16.7479 127.359 18.3721 127.359 20.6818V33.6813H134.056V19.3982C134.056 14.5668 131.137 11.1456 126.415 11.1456C123.409 11.1456 121.307 12.4292 119.72 14.7809H119.59V11.7863H113.108V33.6813Z" fill="#A3ADBB"/>
</svg>
