<svg width="24" height="24" viewBox="0 0 24 24" fill="none" xmlns="http://www.w3.org/2000/svg">
<mask id="mask0_1533_6804" style="mask-type:alpha" maskUnits="userSpaceOnUse" x="0" y="0" width="24" height="24">
<rect width="23.3811" height="24" fill="#D9D9D9"/>
</mask>
<g mask="url(#mask0_1533_6804)">
<path d="M4.39883 21C2.86815 21 1.90484 19.3507 2.65681 18.0175L9.94892 5.08859C10.7141 3.73196 12.6678 3.73197 13.433 5.08859L20.7251 18.0175C21.477 19.3507 20.5137 21 18.9831 21H4.39883ZM11.6909 18C11.967 18 12.1983 17.9042 12.3851 17.7125C12.5718 17.5208 12.6652 17.2833 12.6652 17C12.6652 16.7167 12.5718 16.4792 12.3851 16.2875C12.1983 16.0958 11.967 16 11.6909 16C11.4149 16 11.1835 16.0958 10.9968 16.2875C10.8101 16.4792 10.7167 16.7167 10.7167 17C10.7167 17.2833 10.8101 17.5208 10.9968 17.7125C11.1835 17.9042 11.4149 18 11.6909 18ZM10.7167 15H12.6652V10H10.7167V15Z" fill="#E7994D"/>
</g>
</svg>
